<?xml version="1.0" encoding="UTF-8" standalone="no"?>
<svg
   xmlns:dc="http://purl.org/dc/elements/1.1/"
   xmlns:cc="http://creativecommons.org/ns#"
   xmlns:rdf="http://www.w3.org/1999/02/22-rdf-syntax-ns#"
   xmlns:svg="http://www.w3.org/2000/svg"
   xmlns="http://www.w3.org/2000/svg"
   xmlns:sodipodi="http://sodipodi.sourceforge.net/DTD/sodipodi-0.dtd"
   xmlns:inkscape="http://www.inkscape.org/namespaces/inkscape"
   width="112mm"
   height="98mm"
   viewBox="0 0 11200 9800"
   version="1.1"
   stroke-width="28.222"
   stroke-linejoin="round"
   xml:space="preserve"
   id="svg2"
   inkscape:version="0.48.4 r9939"
   sodipodi:docname="ssp-moment_pop.svg"><metadata
     id="metadata656"><rdf:RDF><cc:Work
         rdf:about=""><dc:format>image/svg+xml</dc:format><dc:type
           rdf:resource="http://purl.org/dc/dcmitype/StillImage" /></cc:Work></rdf:RDF></metadata><defs
     id="defs654" /><sodipodi:namedview
     pagecolor="#ffffff"
     bordercolor="#666666"
     borderopacity="1"
     objecttolerance="10"
     gridtolerance="10"
     guidetolerance="10"
     inkscape:pageopacity="0"
     inkscape:pageshadow="2"
     inkscape:window-width="1050"
     inkscape:window-height="1680"
     id="namedview652"
     showgrid="false"
     inkscape:zoom="3.8446087"
     inkscape:cx="86.338199"
     inkscape:cy="104.93228"
     inkscape:window-x="1600"
     inkscape:window-y="0"
     inkscape:window-maximized="0"
     inkscape:current-layer="svg2" /><path
     fill="rgb(255,255,255)"
     stroke="none"
     d="M 5609,9758 L 0,9758 0,-1 11218,-1 11218,9758 5609,9758 Z"
     id="path4" /><path
     fill="none"
     stroke="rgb(179,179,179)"
     stroke-linejoin="round"
     d="M 6549,7817 L 2371,7817 2371,393 10728,393 10728,7817 6549,7817 Z"
     id="path6" /><path
     fill="none"
     stroke="rgb(179,179,179)"
     stroke-linejoin="round"
     d="M 2371,7966 L 2371,7816"
     id="path8" /><path
     fill="none"
     stroke="rgb(179,179,179)"
     stroke-linejoin="round"
     d="M 2371,7966 L 2371,7816"
     id="path10" /><path
     fill="none"
     stroke="rgb(179,179,179)"
     stroke-linejoin="round"
     d="M 3565,7966 L 3565,7816"
     id="path12" /><path
     fill="none"
     stroke="rgb(179,179,179)"
     stroke-linejoin="round"
     d="M 3565,7966 L 3565,7816"
     id="path14" /><path
     fill="none"
     stroke="rgb(179,179,179)"
     stroke-linejoin="round"
     d="M 4759,7966 L 4759,7816"
     id="path16" /><path
     fill="none"
     stroke="rgb(179,179,179)"
     stroke-linejoin="round"
     d="M 4759,7966 L 4759,7816"
     id="path18" /><path
     fill="none"
     stroke="rgb(179,179,179)"
     stroke-linejoin="round"
     d="M 5952,7966 L 5952,7816"
     id="path20" /><path
     fill="none"
     stroke="rgb(179,179,179)"
     stroke-linejoin="round"
     d="M 5952,7966 L 5952,7816"
     id="path22" /><path
     fill="none"
     stroke="rgb(179,179,179)"
     stroke-linejoin="round"
     d="M 7146,7966 L 7146,7816"
     id="path24" /><path
     fill="none"
     stroke="rgb(179,179,179)"
     stroke-linejoin="round"
     d="M 7146,7966 L 7146,7816"
     id="path26" /><path
     fill="none"
     stroke="rgb(179,179,179)"
     stroke-linejoin="round"
     d="M 8340,7966 L 8340,7816"
     id="path28" /><path
     fill="none"
     stroke="rgb(179,179,179)"
     stroke-linejoin="round"
     d="M 8340,7966 L 8340,7816"
     id="path30" /><path
     fill="none"
     stroke="rgb(179,179,179)"
     stroke-linejoin="round"
     d="M 9534,7966 L 9534,7816"
     id="path32" /><path
     fill="none"
     stroke="rgb(179,179,179)"
     stroke-linejoin="round"
     d="M 9534,7966 L 9534,7816"
     id="path34" /><path
     fill="none"
     stroke="rgb(179,179,179)"
     stroke-linejoin="round"
     d="M 10728,7966 L 10728,7816"
     id="path36" /><path
     fill="none"
     stroke="rgb(179,179,179)"
     stroke-linejoin="round"
     d="M 10728,7966 L 10728,7816"
     id="path38" /><path
     fill="none"
     stroke="rgb(179,179,179)"
     stroke-linejoin="round"
     d="M 2371,7816 L 10728,7816"
     id="path40" /><path
     fill="none"
     stroke="rgb(179,179,179)"
     stroke-linejoin="round"
     d="M 2221,7816 L 2371,7816"
     id="path42" /><path
     fill="none"
     stroke="rgb(179,179,179)"
     stroke-linejoin="round"
     d="M 2221,7816 L 2371,7816"
     id="path44" /><path
     fill="none"
     stroke="rgb(179,179,179)"
     stroke-linejoin="round"
     d="M 2221,6331 L 2371,6331"
     id="path46" /><path
     fill="none"
     stroke="rgb(179,179,179)"
     stroke-linejoin="round"
     d="M 2221,6331 L 2371,6331"
     id="path48" /><path
     fill="none"
     stroke="rgb(179,179,179)"
     stroke-linejoin="round"
     d="M 2221,4847 L 2371,4847"
     id="path50" /><path
     fill="none"
     stroke="rgb(179,179,179)"
     stroke-linejoin="round"
     d="M 2221,4847 L 2371,4847"
     id="path52" /><path
     fill="none"
     stroke="rgb(179,179,179)"
     stroke-linejoin="round"
     d="M 2221,3361 L 2371,3361"
     id="path54" /><path
     fill="none"
     stroke="rgb(179,179,179)"
     stroke-linejoin="round"
     d="M 2221,3361 L 2371,3361"
     id="path56" /><path
     fill="none"
     stroke="rgb(179,179,179)"
     stroke-linejoin="round"
     d="M 2221,1876 L 2371,1876"
     id="path58" /><path
     fill="none"
     stroke="rgb(179,179,179)"
     stroke-linejoin="round"
     d="M 2221,1876 L 2371,1876"
     id="path60" /><path
     fill="none"
     stroke="rgb(179,179,179)"
     stroke-linejoin="round"
     d="M 2221,391 L 2371,391"
     id="path62" /><path
     fill="none"
     stroke="rgb(179,179,179)"
     stroke-linejoin="round"
     d="M 2221,391 L 2371,391"
     id="path64" /><path
     fill="none"
     stroke="rgb(179,179,179)"
     stroke-linejoin="round"
     d="M 2371,7816 L 2371,391"
     id="path66" /><path
     fill="rgb(0,69,134)"
     stroke="none"
     d="M 4570,5533 L 4695,5658 4820,5533 4695,5408 4570,5533 Z"
     id="path68" /><path
     fill="none"
     stroke="rgb(0,69,134)"
     stroke-linejoin="round"
     d="M 4570,5533 L 4695,5658 4820,5533 4695,5408 4570,5533 Z"
     id="path70" /><path
     fill="rgb(0,69,134)"
     stroke="none"
     d="M 4588,3456 L 4713,3581 4838,3456 4713,3331 4588,3456 Z"
     id="path72" /><path
     fill="none"
     stroke="rgb(0,69,134)"
     stroke-linejoin="round"
     d="M 4588,3456 L 4713,3581 4838,3456 4713,3331 4588,3456 Z"
     id="path74" /><path
     fill="rgb(0,69,134)"
     stroke="none"
     d="M 4536,3528 L 4661,3653 4786,3528 4661,3403 4536,3528 Z"
     id="path76" /><path
     fill="none"
     stroke="rgb(0,69,134)"
     stroke-linejoin="round"
     d="M 4536,3528 L 4661,3653 4786,3528 4661,3403 4536,3528 Z"
     id="path78" /><path
     fill="rgb(0,69,134)"
     stroke="none"
     d="M 4856,7129 L 4981,7254 5106,7129 4981,7004 4856,7129 Z"
     id="path80" /><path
     fill="none"
     stroke="rgb(0,69,134)"
     stroke-linejoin="round"
     d="M 4856,7129 L 4981,7254 5106,7129 4981,7004 4856,7129 Z"
     id="path82" /><path
     fill="rgb(0,69,134)"
     stroke="none"
     d="M 5620,6540 L 5745,6665 5870,6540 5745,6415 5620,6540 Z"
     id="path84" /><path
     fill="none"
     stroke="rgb(0,69,134)"
     stroke-linejoin="round"
     d="M 5620,6540 L 5745,6665 5870,6540 5745,6415 5620,6540 Z"
     id="path86" /><path
     fill="rgb(0,69,134)"
     stroke="none"
     d="M 3904,905 L 4029,1030 4154,905 4029,780 3904,905 Z"
     id="path88" /><path
     fill="none"
     stroke="rgb(0,69,134)"
     stroke-linejoin="round"
     d="M 3904,905 L 4029,1030 4154,905 4029,780 3904,905 Z"
     id="path90" /><path
     fill="rgb(0,69,134)"
     stroke="none"
     d="M 4460,5768 L 4585,5893 4710,5768 4585,5643 4460,5768 Z"
     id="path92" /><path
     fill="none"
     stroke="rgb(0,69,134)"
     stroke-linejoin="round"
     d="M 4460,5768 L 4585,5893 4710,5768 4585,5643 4460,5768 Z"
     id="path94" /><path
     fill="rgb(0,69,134)"
     stroke="none"
     d="M 4196,6581 L 4321,6706 4446,6581 4321,6456 4196,6581 Z"
     id="path96" /><path
     fill="none"
     stroke="rgb(0,69,134)"
     stroke-linejoin="round"
     d="M 4196,6581 L 4321,6706 4446,6581 4321,6456 4196,6581 Z"
     id="path98" /><path
     fill="rgb(0,69,134)"
     stroke="none"
     d="M 3828,6906 L 3953,7031 4078,6906 3953,6781 3828,6906 Z"
     id="path100" /><path
     fill="none"
     stroke="rgb(0,69,134)"
     stroke-linejoin="round"
     d="M 3828,6906 L 3953,7031 4078,6906 3953,6781 3828,6906 Z"
     id="path102" /><path
     fill="rgb(0,69,134)"
     stroke="none"
     d="M 3507,6262 L 3632,6387 3757,6262 3632,6137 3507,6262 Z"
     id="path104" /><path
     fill="none"
     stroke="rgb(0,69,134)"
     stroke-linejoin="round"
     d="M 3507,6262 L 3632,6387 3757,6262 3632,6137 3507,6262 Z"
     id="path106" /><path
     fill="rgb(0,69,134)"
     stroke="none"
     d="M 4630,2058 L 4755,2183 4880,2058 4755,1933 4630,2058 Z"
     id="path108" /><path
     fill="none"
     stroke="rgb(0,69,134)"
     stroke-linejoin="round"
     d="M 4630,2058 L 4755,2183 4880,2058 4755,1933 4630,2058 Z"
     id="path110" /><path
     fill="rgb(0,69,134)"
     stroke="none"
     d="M 6170,5366 L 6295,5491 6420,5366 6295,5241 6170,5366 Z"
     id="path112" /><path
     fill="none"
     stroke="rgb(0,69,134)"
     stroke-linejoin="round"
     d="M 6170,5366 L 6295,5491 6420,5366 6295,5241 6170,5366 Z"
     id="path114" /><path
     fill="rgb(0,69,134)"
     stroke="none"
     d="M 3983,3863 L 4108,3988 4233,3863 4108,3738 3983,3863 Z"
     id="path116" /><path
     fill="none"
     stroke="rgb(0,69,134)"
     stroke-linejoin="round"
     d="M 3983,3863 L 4108,3988 4233,3863 4108,3738 3983,3863 Z"
     id="path118" /><path
     fill="rgb(0,69,134)"
     stroke="none"
     d="M 4530,2219 L 4655,2344 4780,2219 4655,2094 4530,2219 Z"
     id="path120" /><path
     fill="none"
     stroke="rgb(0,69,134)"
     stroke-linejoin="round"
     d="M 4530,2219 L 4655,2344 4780,2219 4655,2094 4530,2219 Z"
     id="path122" /><path
     fill="rgb(0,69,134)"
     stroke="none"
     d="M 4233,7750 L 4358,7875 4483,7750 4358,7625 4233,7750 Z"
     id="path124" /><path
     fill="none"
     stroke="rgb(0,69,134)"
     stroke-linejoin="round"
     d="M 4233,7750 L 4358,7875 4483,7750 4358,7625 4233,7750 Z"
     id="path126" /><path
     fill="rgb(0,69,134)"
     stroke="none"
     d="M 3699,5861 L 3824,5986 3949,5861 3824,5736 3699,5861 Z"
     id="path128" /><path
     fill="none"
     stroke="rgb(0,69,134)"
     stroke-linejoin="round"
     d="M 3699,5861 L 3824,5986 3949,5861 3824,5736 3699,5861 Z"
     id="path130" /><path
     fill="rgb(0,69,134)"
     stroke="none"
     d="M 4131,1951 L 4256,2076 4381,1951 4256,1826 4131,1951 Z"
     id="path132" /><path
     fill="none"
     stroke="rgb(0,69,134)"
     stroke-linejoin="round"
     d="M 4131,1951 L 4256,2076 4381,1951 4256,1826 4131,1951 Z"
     id="path134" /><path
     fill="rgb(0,69,134)"
     stroke="none"
     d="M 4476,7771 L 4601,7896 4726,7771 4601,7646 4476,7771 Z"
     id="path136" /><path
     fill="none"
     stroke="rgb(0,69,134)"
     stroke-linejoin="round"
     d="M 4476,7771 L 4601,7896 4726,7771 4601,7646 4476,7771 Z"
     id="path138" /><path
     fill="rgb(0,69,134)"
     stroke="none"
     d="M 4187,4347 L 4312,4472 4437,4347 4312,4222 4187,4347 Z"
     id="path140" /><path
     fill="none"
     stroke="rgb(0,69,134)"
     stroke-linejoin="round"
     d="M 4187,4347 L 4312,4472 4437,4347 4312,4222 4187,4347 Z"
     id="path142" /><path
     fill="rgb(0,69,134)"
     stroke="none"
     d="M 4090,7456 L 4215,7581 4340,7456 4215,7331 4090,7456 Z"
     id="path144" /><path
     fill="none"
     stroke="rgb(0,69,134)"
     stroke-linejoin="round"
     d="M 4090,7456 L 4215,7581 4340,7456 4215,7331 4090,7456 Z"
     id="path146" /><path
     fill="rgb(0,69,134)"
     stroke="none"
     d="M 3394,1551 L 3519,1676 3644,1551 3519,1426 3394,1551 Z"
     id="path148" /><path
     fill="none"
     stroke="rgb(0,69,134)"
     stroke-linejoin="round"
     d="M 3394,1551 L 3519,1676 3644,1551 3519,1426 3394,1551 Z"
     id="path150" /><path
     fill="rgb(0,69,134)"
     stroke="none"
     d="M 5304,1426 L 5429,1551 5554,1426 5429,1301 5304,1426 Z"
     id="path152" /><path
     fill="none"
     stroke="rgb(0,69,134)"
     stroke-linejoin="round"
     d="M 5304,1426 L 5429,1551 5554,1426 5429,1301 5304,1426 Z"
     id="path154" /><path
     fill="rgb(0,69,134)"
     stroke="none"
     d="M 3786,4464 L 3911,4589 4036,4464 3911,4339 3786,4464 Z"
     id="path156" /><path
     fill="none"
     stroke="rgb(0,69,134)"
     stroke-linejoin="round"
     d="M 3786,4464 L 3911,4589 4036,4464 3911,4339 3786,4464 Z"
     id="path158" /><path
     fill="rgb(0,69,134)"
     stroke="none"
     d="M 9683,6807 L 9808,6932 9933,6807 9808,6682 9683,6807 Z"
     id="path160" /><path
     fill="none"
     stroke="rgb(0,69,134)"
     stroke-linejoin="round"
     d="M 9683,6807 L 9808,6932 9933,6807 9808,6682 9683,6807 Z"
     id="path162" /><path
     fill="rgb(0,69,134)"
     stroke="none"
     d="M 7417,7687 L 7542,7812 7667,7687 7542,7562 7417,7687 Z"
     id="path164" /><path
     fill="none"
     stroke="rgb(0,69,134)"
     stroke-linejoin="round"
     d="M 7417,7687 L 7542,7812 7667,7687 7542,7562 7417,7687 Z"
     id="path166" /><path
     fill="rgb(0,69,134)"
     stroke="none"
     d="M 4530,6145 L 4655,6270 4780,6145 4655,6020 4530,6145 Z"
     id="path168" /><path
     fill="none"
     stroke="rgb(0,69,134)"
     stroke-linejoin="round"
     d="M 4530,6145 L 4655,6270 4780,6145 4655,6020 4530,6145 Z"
     id="path170" /><path
     fill="rgb(0,69,134)"
     stroke="none"
     d="M 3875,1618 L 4000,1743 4125,1618 4000,1493 3875,1618 Z"
     id="path172" /><path
     fill="none"
     stroke="rgb(0,69,134)"
     stroke-linejoin="round"
     d="M 3875,1618 L 4000,1743 4125,1618 4000,1493 3875,1618 Z"
     id="path174" /><path
     fill="rgb(0,69,134)"
     stroke="none"
     d="M 4681,3433 L 4806,3558 4931,3433 4806,3308 4681,3433 Z"
     id="path176" /><path
     fill="none"
     stroke="rgb(0,69,134)"
     stroke-linejoin="round"
     d="M 4681,3433 L 4806,3558 4931,3433 4806,3308 4681,3433 Z"
     id="path178" /><path
     fill="rgb(0,69,134)"
     stroke="none"
     d="M 5881,3655 L 6006,3780 6131,3655 6006,3530 5881,3655 Z"
     id="path180" /><path
     fill="none"
     stroke="rgb(0,69,134)"
     stroke-linejoin="round"
     d="M 5881,3655 L 6006,3780 6131,3655 6006,3530 5881,3655 Z"
     id="path182" /><path
     fill="rgb(0,69,134)"
     stroke="none"
     d="M 3546,766 L 3671,891 3796,766 3671,641 3546,766 Z"
     id="path184" /><path
     fill="none"
     stroke="rgb(0,69,134)"
     stroke-linejoin="round"
     d="M 3546,766 L 3671,891 3796,766 3671,641 3546,766 Z"
     id="path186" /><path
     fill="rgb(0,69,134)"
     stroke="none"
     d="M 4124,2533 L 4249,2658 4374,2533 4249,2408 4124,2533 Z"
     id="path188" /><path
     fill="none"
     stroke="rgb(0,69,134)"
     stroke-linejoin="round"
     d="M 4124,2533 L 4249,2658 4374,2533 4249,2408 4124,2533 Z"
     id="path190" /><path
     fill="rgb(0,69,134)"
     stroke="none"
     d="M 4224,7423 L 4349,7548 4474,7423 4349,7298 4224,7423 Z"
     id="path192" /><path
     fill="none"
     stroke="rgb(0,69,134)"
     stroke-linejoin="round"
     d="M 4224,7423 L 4349,7548 4474,7423 4349,7298 4224,7423 Z"
     id="path194" /><path
     fill="rgb(0,69,134)"
     stroke="none"
     d="M 3879,6811 L 4004,6936 4129,6811 4004,6686 3879,6811 Z"
     id="path196" /><path
     fill="none"
     stroke="rgb(0,69,134)"
     stroke-linejoin="round"
     d="M 3879,6811 L 4004,6936 4129,6811 4004,6686 3879,6811 Z"
     id="path198" /><path
     fill="rgb(0,69,134)"
     stroke="none"
     d="M 6209,5356 L 6334,5481 6459,5356 6334,5231 6209,5356 Z"
     id="path200" /><path
     fill="none"
     stroke="rgb(0,69,134)"
     stroke-linejoin="round"
     d="M 6209,5356 L 6334,5481 6459,5356 6334,5231 6209,5356 Z"
     id="path202" /><path
     fill="rgb(0,69,134)"
     stroke="none"
     d="M 3692,1637 L 3817,1762 3942,1637 3817,1512 3692,1637 Z"
     id="path204" /><path
     fill="none"
     stroke="rgb(0,69,134)"
     stroke-linejoin="round"
     d="M 3692,1637 L 3817,1762 3942,1637 3817,1512 3692,1637 Z"
     id="path206" /><path
     fill="rgb(0,69,134)"
     stroke="none"
     d="M 4991,7485 L 5116,7610 5241,7485 5116,7360 4991,7485 Z"
     id="path208" /><path
     fill="none"
     stroke="rgb(0,69,134)"
     stroke-linejoin="round"
     d="M 4991,7485 L 5116,7610 5241,7485 5116,7360 4991,7485 Z"
     id="path210" /><path
     fill="rgb(0,69,134)"
     stroke="none"
     d="M 6760,3655 L 6885,3780 7010,3655 6885,3530 6760,3655 Z"
     id="path212" /><path
     fill="none"
     stroke="rgb(0,69,134)"
     stroke-linejoin="round"
     d="M 6760,3655 L 6885,3780 7010,3655 6885,3530 6760,3655 Z"
     id="path214" /><path
     fill="rgb(0,69,134)"
     stroke="none"
     d="M 3275,6877 L 3400,7002 3525,6877 3400,6752 3275,6877 Z"
     id="path216" /><path
     fill="none"
     stroke="rgb(0,69,134)"
     stroke-linejoin="round"
     d="M 3275,6877 L 3400,7002 3525,6877 3400,6752 3275,6877 Z"
     id="path218" /><text
     class="TextShape"
     id="text220"><tspan
       class="TextParagraph"
       font-family="cmr10"
       font-size="388px"
       font-weight="400"
       id="tspan222"><tspan
         class="TextPosition"
         x="2265"
         y="8357"
         id="tspan224"><tspan
           fill="rgb(0,0,0)"
           stroke="none"
           id="tspan226">0</tspan></tspan></tspan></text>
<text
     class="TextShape"
     id="text228"><tspan
       class="TextParagraph"
       font-family="cmr10"
       font-size="388px"
       font-weight="400"
       id="tspan230"><tspan
         class="TextPosition"
         x="3300"
         y="8357"
         id="tspan232"><tspan
           fill="rgb(0,0,0)"
           stroke="none"
           id="tspan234">0.5</tspan></tspan></tspan></text>
<text
     class="TextShape"
     id="text236"><tspan
       class="TextParagraph"
       font-family="cmr10"
       font-size="388px"
       font-weight="400"
       id="tspan238"><tspan
         class="TextPosition"
         x="4653"
         y="8357"
         id="tspan240"><tspan
           fill="rgb(0,0,0)"
           stroke="none"
           id="tspan242">1</tspan></tspan></tspan></text>
<text
     class="TextShape"
     id="text244"><tspan
       class="TextParagraph"
       font-family="cmr10"
       font-size="388px"
       font-weight="400"
       id="tspan246"><tspan
         class="TextPosition"
         x="5688"
         y="8357"
         id="tspan248"><tspan
           fill="rgb(0,0,0)"
           stroke="none"
           id="tspan250">1.5</tspan></tspan></tspan></text>
<text
     class="TextShape"
     id="text252"><tspan
       class="TextParagraph"
       font-family="cmr10"
       font-size="388px"
       font-weight="400"
       id="tspan254"><tspan
         class="TextPosition"
         x="7041"
         y="8357"
         id="tspan256"><tspan
           fill="rgb(0,0,0)"
           stroke="none"
           id="tspan258">2</tspan></tspan></tspan></text>
<text
     class="TextShape"
     id="text260"><tspan
       class="TextParagraph"
       font-family="cmr10"
       font-size="388px"
       font-weight="400"
       id="tspan262"><tspan
         class="TextPosition"
         x="8076"
         y="8357"
         id="tspan264"><tspan
           fill="rgb(0,0,0)"
           stroke="none"
           id="tspan266">2.5</tspan></tspan></tspan></text>
<text
     class="TextShape"
     id="text268"><tspan
       class="TextParagraph"
       font-family="cmr10"
       font-size="388px"
       font-weight="400"
       id="tspan270"><tspan
         class="TextPosition"
         x="9429"
         y="8357"
         id="tspan272"><tspan
           fill="rgb(0,0,0)"
           stroke="none"
           id="tspan274">3</tspan></tspan></tspan></text>
<text
     class="TextShape"
     id="text276"><tspan
       class="TextParagraph"
       font-family="cmr10"
       font-size="388px"
       font-weight="400"
       id="tspan278"><tspan
         class="TextPosition"
         x="10464"
         y="8357"
         id="tspan280"><tspan
           fill="rgb(0,0,0)"
           stroke="none"
           id="tspan282">3.5</tspan></tspan></tspan></text>
<text
     class="TextShape"
     id="text284"><tspan
       class="TextParagraph"
       font-family="cmr10"
       font-size="388px"
       font-weight="400"
       id="tspan286"><tspan
         class="TextPosition"
         x="1565"
         y="7910"
         id="tspan288"><tspan
           fill="rgb(0,0,0)"
           stroke="none"
           id="tspan290">0%</tspan></tspan></tspan></text>
<text
     class="TextShape"
     id="text292"><tspan
       class="TextParagraph"
       font-family="cmr10"
       font-size="388px"
       font-weight="400"
       id="tspan294"><tspan
         class="TextPosition"
         x="1565"
         y="6425"
         id="tspan296"><tspan
           fill="rgb(0,0,0)"
           stroke="none"
           id="tspan298">5%</tspan></tspan></tspan></text>
<text
     class="TextShape"
     id="text300"><tspan
       class="TextParagraph"
       font-family="cmr10"
       font-size="388px"
       font-weight="400"
       id="tspan302"><tspan
         class="TextPosition"
         x="1354"
         y="4940"
         id="tspan304"><tspan
           fill="rgb(0,0,0)"
           stroke="none"
           id="tspan306">10%</tspan></tspan></tspan></text>
<text
     class="TextShape"
     id="text308"><tspan
       class="TextParagraph"
       font-family="cmr10"
       font-size="388px"
       font-weight="400"
       id="tspan310"><tspan
         class="TextPosition"
         x="1354"
         y="3454"
         id="tspan312"><tspan
           fill="rgb(0,0,0)"
           stroke="none"
           id="tspan314">15%</tspan></tspan></tspan></text>
<text
     class="TextShape"
     id="text316"><tspan
       class="TextParagraph"
       font-family="cmr10"
       font-size="388px"
       font-weight="400"
       id="tspan318"><tspan
         class="TextPosition"
         x="1354"
         y="1969"
         id="tspan320"><tspan
           fill="rgb(0,0,0)"
           stroke="none"
           id="tspan322">20%</tspan></tspan></tspan></text>
<text
     class="TextShape"
     id="text324"><tspan
       class="TextParagraph"
       font-family="cmr10"
       font-size="388px"
       font-weight="400"
       id="tspan326"><tspan
         class="TextPosition"
         x="1354"
         y="484"
         id="tspan328"><tspan
           fill="rgb(0,0,0)"
           stroke="none"
           id="tspan330">25%</tspan></tspan></tspan></text>
<text
     class="TextShape"
     id="text332"><tspan
       class="TextParagraph"
       font-family="cmr10"
       font-size="353px"
       font-weight="400"
       id="tspan334"><tspan
         class="TextPosition"
         x="4457"
         y="5229"
         id="tspan336"><tspan
           fill="rgb(0,0,0)"
           stroke="none"
           id="tspan338">AL</tspan></tspan></tspan></text>
<text
     class="TextShape"
     id="text340"><tspan
       class="TextParagraph"
       font-family="cmr10"
       font-size="353px"
       font-weight="400"
       id="tspan342"><tspan
         class="TextPosition"
         x="4448"
         y="3152"
         id="tspan344"><tspan
           fill="rgb(0,0,0)"
           stroke="none"
           id="tspan346">AR</tspan></tspan></tspan></text>
<text
     class="TextShape"
     id="text348"><tspan
       class="TextParagraph"
       font-family="cmr10"
       font-size="353px"
       font-weight="400"
       id="tspan350"><tspan
         class="TextPosition"
         x="4423"
         y="3224"
         id="tspan352"><tspan
           fill="rgb(0,0,0)"
           stroke="none"
           id="tspan354">AZ</tspan></tspan></tspan></text>
<text
     class="TextShape"
     id="text356"><tspan
       class="TextParagraph"
       font-family="cmr10"
       font-size="353px"
       font-weight="400"
       id="tspan358"><tspan
         class="TextPosition"
         x="4729"
         y="6825"
         id="tspan360"><tspan
           fill="rgb(0,0,0)"
           stroke="none"
           id="tspan362">CA</tspan></tspan></tspan></text>
<text
     class="TextShape"
     id="text364"><tspan
       class="TextParagraph"
       font-family="cmr10"
       font-size="353px"
       font-weight="400"
       id="tspan366"><tspan
         class="TextPosition"
         x="5494"
         y="6236"
         id="tspan368"><tspan
           fill="rgb(0,0,0)"
           stroke="none"
           id="tspan370">CO</tspan></tspan></tspan></text>
<text
     class="TextShape"
     id="text372"><tspan
       class="TextParagraph"
       font-family="cmr10"
       font-size="353px"
       font-weight="400"
       id="tspan374"><tspan
         class="TextPosition"
         x="3791"
         y="601"
         id="tspan376"><tspan
           fill="rgb(0,0,0)"
           stroke="none"
           id="tspan378">CT</tspan></tspan></tspan></text>
<text
     class="TextShape"
     id="text380"><tspan
       class="TextParagraph"
       font-family="cmr10"
       font-size="353px"
       font-weight="400"
       id="tspan382"><tspan
         class="TextPosition"
         x="4373"
         y="5464"
         id="tspan384"><tspan
           fill="rgb(0,0,0)"
           stroke="none"
           id="tspan386">FL</tspan></tspan></tspan></text>
<text
     class="TextShape"
     id="text388"><tspan
       class="TextParagraph"
       font-family="cmr10"
       font-size="353px"
       font-weight="400"
       id="tspan390"><tspan
         class="TextPosition"
         x="4056"
         y="6277"
         id="tspan392"><tspan
           fill="rgb(0,0,0)"
           stroke="none"
           id="tspan394">GA</tspan></tspan></tspan></text>
<text
     class="TextShape"
     id="text396"><tspan
       class="TextParagraph"
       font-family="cmr10"
       font-size="353px"
       font-weight="400"
       id="tspan398"><tspan
         class="TextPosition"
         x="3754"
         y="6602"
         id="tspan400"><tspan
           fill="rgb(0,0,0)"
           stroke="none"
           id="tspan402">IA</tspan></tspan></tspan></text>
<text
     class="TextShape"
     id="text404"><tspan
       class="TextParagraph"
       font-family="cmr10"
       font-size="353px"
       font-weight="400"
       id="tspan406"><tspan
         class="TextPosition"
         x="3460"
         y="5958"
         id="tspan408"><tspan
           fill="rgb(0,0,0)"
           stroke="none"
           id="tspan410">IL</tspan></tspan></tspan></text>
<text
     class="TextShape"
     id="text412"><tspan
       class="TextParagraph"
       font-family="cmr10"
       font-size="353px"
       font-weight="400"
       id="tspan414"><tspan
         class="TextPosition"
         x="4556"
         y="1754"
         id="tspan416"><tspan
           fill="rgb(0,0,0)"
           stroke="none"
           id="tspan418">IN</tspan></tspan></tspan></text>
<text
     class="TextShape"
     id="text420"><tspan
       class="TextParagraph"
       font-family="cmr10"
       font-size="353px"
       font-weight="400"
       id="tspan422"><tspan
         class="TextPosition"
         x="6071"
         y="5062"
         id="tspan424"><tspan
           fill="rgb(0,0,0)"
           stroke="none"
           id="tspan426">KS</tspan></tspan></tspan></text>
<text
     class="TextShape"
     id="text428"><tspan
       class="TextParagraph"
       font-family="cmr10"
       font-size="353px"
       font-weight="400"
       id="tspan430"><tspan
         class="TextPosition"
         x="3843"
         y="3559"
         id="tspan432"><tspan
           fill="rgb(0,0,0)"
           stroke="none"
           id="tspan434">KY</tspan></tspan></tspan></text>
<text
     class="TextShape"
     id="text436"><tspan
       class="TextParagraph"
       font-family="cmr10"
       font-size="353px"
       font-weight="400"
       id="tspan438"><tspan
         class="TextPosition"
         x="4417"
         y="1915"
         id="tspan440"><tspan
           fill="rgb(0,0,0)"
           stroke="none"
           id="tspan442">LA</tspan></tspan></tspan></text>
<text
     class="TextShape"
     id="text444"><tspan
       class="TextParagraph"
       font-family="cmr10"
       font-size="353px"
       font-weight="400"
       id="tspan446"><tspan
         class="TextPosition"
         x="4067"
         y="7446"
         id="tspan448"><tspan
           fill="rgb(0,0,0)"
           stroke="none"
           id="tspan450">MA</tspan></tspan></tspan></text>
<text
     class="TextShape"
     id="text452"><tspan
       class="TextParagraph"
       font-family="cmr10"
       font-size="353px"
       font-weight="400"
       id="tspan454"><tspan
         class="TextPosition"
         x="3533"
         y="5557"
         id="tspan456"><tspan
           fill="rgb(0,0,0)"
           stroke="none"
           id="tspan458">MD</tspan></tspan></tspan></text>
<text
     class="TextShape"
     id="text460"><tspan
       class="TextParagraph"
       font-family="cmr10"
       font-size="353px"
       font-weight="400"
       id="tspan462"><tspan
         class="TextPosition"
         x="4031"
         y="1647"
         id="tspan464"><tspan
           fill="rgb(0,0,0)"
           stroke="none"
           id="tspan466">MI</tspan></tspan></tspan></text>
<text
     class="TextShape"
     id="text468"><tspan
       class="TextParagraph"
       font-family="cmr10"
       font-size="353px"
       font-weight="400"
       id="tspan470"><tspan
         class="TextPosition"
         x="4310"
         y="7467"
         id="tspan472"><tspan
           fill="rgb(0,0,0)"
           stroke="none"
           id="tspan474">MN</tspan></tspan></tspan></text>
<text
     class="TextShape"
     id="text476"><tspan
       class="TextParagraph"
       font-family="cmr10"
       font-size="353px"
       font-weight="400"
       id="tspan478"><tspan
         class="TextPosition"
         x="4021"
         y="4043"
         id="tspan480"><tspan
           fill="rgb(0,0,0)"
           stroke="none"
           id="tspan482">MO</tspan></tspan></tspan></text>
<text
     class="TextShape"
     id="text484"><tspan
       class="TextParagraph"
       font-family="cmr10"
       font-size="353px"
       font-weight="400"
       id="tspan486"><tspan
         class="TextPosition"
         x="3963"
         y="7152"
         id="tspan488"><tspan
           fill="rgb(0,0,0)"
           stroke="none"
           id="tspan490">MS</tspan></tspan></tspan></text>
<text
     class="TextShape"
     id="text492"><tspan
       class="TextParagraph"
       font-family="cmr10"
       font-size="353px"
       font-weight="400"
       id="tspan494"><tspan
         class="TextPosition"
         x="3267"
         y="1247"
         id="tspan496"><tspan
           fill="rgb(0,0,0)"
           stroke="none"
           id="tspan498">NC</tspan></tspan></tspan></text>
<text
     class="TextShape"
     id="text500"><tspan
       class="TextParagraph"
       font-family="cmr10"
       font-size="353px"
       font-weight="400"
       id="tspan502"><tspan
         class="TextPosition"
         x="5177"
         y="1122"
         id="tspan504"><tspan
           fill="rgb(0,0,0)"
           stroke="none"
           id="tspan506">NE</tspan></tspan></tspan></text>
<text
     class="TextShape"
     id="text508"><tspan
       class="TextParagraph"
       font-family="cmr10"
       font-size="353px"
       font-weight="400"
       id="tspan510"><tspan
         class="TextPosition"
         x="3686"
         y="4160"
         id="tspan512"><tspan
           fill="rgb(0,0,0)"
           stroke="none"
           id="tspan514">NJ</tspan></tspan></tspan></text>
<text
     class="TextShape"
     id="text516"><tspan
       class="TextParagraph"
       font-family="cmr10"
       font-size="353px"
       font-weight="400"
       id="tspan518"><tspan
         class="TextPosition"
         x="9518"
         y="6503"
         id="tspan520"><tspan
           fill="rgb(0,0,0)"
           stroke="none"
           id="tspan522">NM</tspan></tspan></tspan></text>
<text
     class="TextShape"
     id="text524"><tspan
       class="TextParagraph"
       font-family="cmr10"
       font-size="353px"
       font-weight="400"
       id="tspan526"><tspan
         class="TextPosition"
         x="7278"
         y="7383"
         id="tspan528"><tspan
           fill="rgb(0,0,0)"
           stroke="none"
           id="tspan530">NV</tspan></tspan></tspan></text>
<text
     class="TextShape"
     id="text532"><tspan
       class="TextParagraph"
       font-family="cmr10"
       font-size="353px"
       font-weight="400"
       id="tspan534"><tspan
         class="TextPosition"
         x="4390"
         y="5841"
         id="tspan536"><tspan
           fill="rgb(0,0,0)"
           stroke="none"
           id="tspan538">NY</tspan></tspan></tspan></text>
<text
     class="TextShape"
     id="text540"><tspan
       class="TextParagraph"
       font-family="cmr10"
       font-size="353px"
       font-weight="400"
       id="tspan542"><tspan
         class="TextPosition"
         x="3735"
         y="1314"
         id="tspan544"><tspan
           fill="rgb(0,0,0)"
           stroke="none"
           id="tspan546">OH</tspan></tspan></tspan></text>
<text
     class="TextShape"
     id="text548"><tspan
       class="TextParagraph"
       font-family="cmr10"
       font-size="353px"
       font-weight="400"
       id="tspan550"><tspan
         class="TextPosition"
         x="4541"
         y="3129"
         id="tspan552"><tspan
           fill="rgb(0,0,0)"
           stroke="none"
           id="tspan554">OK</tspan></tspan></tspan></text>
<text
     class="TextShape"
     id="text556"><tspan
       class="TextParagraph"
       font-family="cmr10"
       font-size="353px"
       font-weight="400"
       id="tspan558"><tspan
         class="TextPosition"
         x="5742"
         y="3351"
         id="tspan560"><tspan
           fill="rgb(0,0,0)"
           stroke="none"
           id="tspan562">OR</tspan></tspan></tspan></text>
<text
     class="TextShape"
     id="text564"><tspan
       class="TextParagraph"
       font-family="cmr10"
       font-size="353px"
       font-weight="400"
       id="tspan566"><tspan
         class="TextPosition"
         x="3419"
         y="462"
         id="tspan568"><tspan
           fill="rgb(0,0,0)"
           stroke="none"
           id="tspan570">PA</tspan></tspan></tspan></text>
<text
     class="TextShape"
     id="text572"><tspan
       class="TextParagraph"
       font-family="cmr10"
       font-size="353px"
       font-weight="400"
       id="tspan574"><tspan
         class="TextPosition"
         x="4037"
         y="2229"
         id="tspan576"><tspan
           fill="rgb(0,0,0)"
           stroke="none"
           id="tspan578">SC</tspan></tspan></tspan></text>
<text
     class="TextShape"
     id="text580"><tspan
       class="TextParagraph"
       font-family="cmr10"
       font-size="353px"
       font-weight="400"
       id="tspan582"><tspan
         class="TextPosition"
         x="4097"
         y="7119"
         id="tspan584"><tspan
           fill="rgb(0,0,0)"
           stroke="none"
           id="tspan586">TN</tspan></tspan></tspan></text>
<text
     class="TextShape"
     id="text588"><tspan
       class="TextParagraph"
       font-family="cmr10"
       font-size="353px"
       font-weight="400"
       id="tspan590"><tspan
         class="TextPosition"
         x="3752"
         y="6507"
         id="tspan592"><tspan
           fill="rgb(0,0,0)"
           stroke="none"
           id="tspan594">TX</tspan></tspan></tspan></text>
<text
     class="TextShape"
     id="text596"><tspan
       class="TextParagraph"
       font-family="cmr10"
       font-size="353px"
       font-weight="400"
       id="tspan598"><tspan
         class="TextPosition"
         x="6083"
         y="5052"
         id="tspan600"><tspan
           fill="rgb(0,0,0)"
           stroke="none"
           id="tspan602">UT</tspan></tspan></tspan></text>
<text
     class="TextShape"
     id="text604"><tspan
       class="TextParagraph"
       font-family="cmr10"
       font-size="353px"
       font-weight="400"
       id="tspan606"><tspan
         class="TextPosition"
         x="3552"
         y="1333"
         id="tspan608"><tspan
           fill="rgb(0,0,0)"
           stroke="none"
           id="tspan610">VA</tspan></tspan></tspan></text>
<text
     class="TextShape"
     id="text612"><tspan
       class="TextParagraph"
       font-family="cmr10"
       font-size="353px"
       font-weight="400"
       id="tspan614"><tspan
         class="TextPosition"
         x="4811"
         y="7181"
         id="tspan616"><tspan
           fill="rgb(0,0,0)"
           stroke="none"
           id="tspan618">WA</tspan></tspan></tspan></text>
<text
     class="TextShape"
     id="text620"><tspan
       class="TextParagraph"
       font-family="cmr10"
       font-size="353px"
       font-weight="400"
       id="tspan622"><tspan
         class="TextPosition"
         x="6648"
         y="3351"
         id="tspan624"><tspan
           fill="rgb(0,0,0)"
           stroke="none"
           id="tspan626">WI</tspan></tspan></tspan></text>
<text
     class="TextShape"
     id="text628"><tspan
       class="TextParagraph"
       font-family="cmr10"
       font-size="353px"
       font-weight="400"
       id="tspan630"><tspan
         class="TextPosition"
         x="3095"
         y="6573"
         id="tspan632"><tspan
           fill="rgb(0,0,0)"
           stroke="none"
           id="tspan634">WV</tspan></tspan></tspan></text>
<text
     class="TextShape"
     id="text636"><tspan
       class="TextParagraph"
       font-family="cmr10"
       font-size="423px"
       font-weight="400"
       id="tspan638"><tspan
         class="TextPosition"
         x="4097"
         y="9105"
         id="tspan640"><tspan
           fill="rgb(0,0,0)"
           stroke="none"
           id="tspan642">Moment of Population</tspan></tspan></tspan></text>
<text
     class="TextShape"
     id="text644"
     inkscape:transform-center-x="-7.4940933"
     inkscape:transform-center-y="-105.33081"
     x="-7856.7622"
     y="-6038.7378"
     transform="matrix(0,-1,1,0,0,0)"><tspan
       class="TextParagraph"
       font-size="423px"
       font-weight="400"
       id="tspan646"
       style="font-size:423px;font-weight:400;font-family:cmr10"><tspan
         class="TextPosition"
         x="-6960.7622"
         y="1226.2622"
         transform="matrix(0,-1,1,0,-6369,8161)"
         id="tspan648"><tspan
           id="tspan650"
           style="fill:#000000;stroke:none">Efficiency gap by seat share (%)</tspan></tspan></tspan></text>
</svg>