<?xml version="1.0" encoding="UTF-8" standalone="no"?>
<svg
   xmlns:dc="http://purl.org/dc/elements/1.1/"
   xmlns:cc="http://creativecommons.org/ns#"
   xmlns:rdf="http://www.w3.org/1999/02/22-rdf-syntax-ns#"
   xmlns:svg="http://www.w3.org/2000/svg"
   xmlns="http://www.w3.org/2000/svg"
   xmlns:sodipodi="http://sodipodi.sourceforge.net/DTD/sodipodi-0.dtd"
   xmlns:inkscape="http://www.inkscape.org/namespaces/inkscape"
   width="112mm"
   height="98mm"
   viewBox="0 0 11200 9800"
   version="1.1"
   stroke-width="28.222"
   stroke-linejoin="round"
   xml:space="preserve"
   id="svg4373"
   inkscape:version="0.48.4 r9939"
   sodipodi:docname="sss-convex_hull_pop.svg"><metadata
     id="metadata5099"><rdf:RDF><cc:Work
         rdf:about=""><dc:format>image/svg+xml</dc:format><dc:type
           rdf:resource="http://purl.org/dc/dcmitype/StillImage" /></cc:Work></rdf:RDF></metadata><defs
     id="defs5097" /><sodipodi:namedview
     pagecolor="#ffffff"
     bordercolor="#666666"
     borderopacity="1"
     objecttolerance="10"
     gridtolerance="10"
     guidetolerance="10"
     inkscape:pageopacity="0"
     inkscape:pageshadow="2"
     inkscape:window-width="1050"
     inkscape:window-height="1680"
     id="namedview5095"
     showgrid="false"
     inkscape:zoom="1.9223043"
     inkscape:cx="212.2397"
     inkscape:cy="-103.11107"
     inkscape:window-x="1600"
     inkscape:window-y="0"
     inkscape:window-maximized="0"
     inkscape:current-layer="svg4373" /><path
     fill="rgb(255,255,255)"
     stroke="none"
     d="M 5609,9759 L 0,9759 0,0 11218,0 11218,9759 5609,9759 Z"
     id="path4375" /><path
     fill="none"
     stroke="rgb(179,179,179)"
     stroke-linejoin="round"
     d="M 6431,7818 L 2133,7818 2133,394 10729,394 10729,7818 6431,7818 Z"
     id="path4377" /><path
     fill="none"
     stroke="rgb(179,179,179)"
     stroke-linejoin="round"
     d="M 2133,7967 L 2133,7817"
     id="path4379" /><path
     fill="none"
     stroke="rgb(179,179,179)"
     stroke-linejoin="round"
     d="M 2133,7967 L 2133,7817"
     id="path4381" /><path
     fill="none"
     stroke="rgb(179,179,179)"
     stroke-linejoin="round"
     d="M 3088,7967 L 3088,7817"
     id="path4383" /><path
     fill="none"
     stroke="rgb(179,179,179)"
     stroke-linejoin="round"
     d="M 3088,7967 L 3088,7817"
     id="path4385" /><path
     fill="none"
     stroke="rgb(179,179,179)"
     stroke-linejoin="round"
     d="M 4043,7967 L 4043,7817"
     id="path4387" /><path
     fill="none"
     stroke="rgb(179,179,179)"
     stroke-linejoin="round"
     d="M 4043,7967 L 4043,7817"
     id="path4389" /><path
     fill="none"
     stroke="rgb(179,179,179)"
     stroke-linejoin="round"
     d="M 4998,7967 L 4998,7817"
     id="path4391" /><path
     fill="none"
     stroke="rgb(179,179,179)"
     stroke-linejoin="round"
     d="M 4998,7967 L 4998,7817"
     id="path4393" /><path
     fill="none"
     stroke="rgb(179,179,179)"
     stroke-linejoin="round"
     d="M 5952,7967 L 5952,7817"
     id="path4395" /><path
     fill="none"
     stroke="rgb(179,179,179)"
     stroke-linejoin="round"
     d="M 5952,7967 L 5952,7817"
     id="path4397" /><path
     fill="none"
     stroke="rgb(179,179,179)"
     stroke-linejoin="round"
     d="M 6908,7967 L 6908,7817"
     id="path4399" /><path
     fill="none"
     stroke="rgb(179,179,179)"
     stroke-linejoin="round"
     d="M 6908,7967 L 6908,7817"
     id="path4401" /><path
     fill="none"
     stroke="rgb(179,179,179)"
     stroke-linejoin="round"
     d="M 7863,7967 L 7863,7817"
     id="path4403" /><path
     fill="none"
     stroke="rgb(179,179,179)"
     stroke-linejoin="round"
     d="M 7863,7967 L 7863,7817"
     id="path4405" /><path
     fill="none"
     stroke="rgb(179,179,179)"
     stroke-linejoin="round"
     d="M 8818,7967 L 8818,7817"
     id="path4407" /><path
     fill="none"
     stroke="rgb(179,179,179)"
     stroke-linejoin="round"
     d="M 8818,7967 L 8818,7817"
     id="path4409" /><path
     fill="none"
     stroke="rgb(179,179,179)"
     stroke-linejoin="round"
     d="M 9773,7967 L 9773,7817"
     id="path4411" /><path
     fill="none"
     stroke="rgb(179,179,179)"
     stroke-linejoin="round"
     d="M 9773,7967 L 9773,7817"
     id="path4413" /><path
     fill="none"
     stroke="rgb(179,179,179)"
     stroke-linejoin="round"
     d="M 10728,7967 L 10728,7817"
     id="path4415" /><path
     fill="none"
     stroke="rgb(179,179,179)"
     stroke-linejoin="round"
     d="M 10728,7967 L 10728,7817"
     id="path4417" /><path
     fill="none"
     stroke="rgb(179,179,179)"
     stroke-linejoin="round"
     d="M 2133,7817 L 10729,7817"
     id="path4419" /><path
     fill="none"
     stroke="rgb(179,179,179)"
     stroke-linejoin="round"
     d="M 1983,7817 L 2133,7817"
     id="path4421" /><path
     fill="none"
     stroke="rgb(179,179,179)"
     stroke-linejoin="round"
     d="M 1983,7817 L 2133,7817"
     id="path4423" /><path
     fill="none"
     stroke="rgb(179,179,179)"
     stroke-linejoin="round"
     d="M 1983,6992 L 2133,6992"
     id="path4425" /><path
     fill="none"
     stroke="rgb(179,179,179)"
     stroke-linejoin="round"
     d="M 1983,6992 L 2133,6992"
     id="path4427" /><path
     fill="none"
     stroke="rgb(179,179,179)"
     stroke-linejoin="round"
     d="M 1983,6167 L 2133,6167"
     id="path4429" /><path
     fill="none"
     stroke="rgb(179,179,179)"
     stroke-linejoin="round"
     d="M 1983,6167 L 2133,6167"
     id="path4431" /><path
     fill="none"
     stroke="rgb(179,179,179)"
     stroke-linejoin="round"
     d="M 1983,5342 L 2133,5342"
     id="path4433" /><path
     fill="none"
     stroke="rgb(179,179,179)"
     stroke-linejoin="round"
     d="M 1983,5342 L 2133,5342"
     id="path4435" /><path
     fill="none"
     stroke="rgb(179,179,179)"
     stroke-linejoin="round"
     d="M 1983,4518 L 2133,4518"
     id="path4437" /><path
     fill="none"
     stroke="rgb(179,179,179)"
     stroke-linejoin="round"
     d="M 1983,4518 L 2133,4518"
     id="path4439" /><path
     fill="none"
     stroke="rgb(179,179,179)"
     stroke-linejoin="round"
     d="M 1983,3693 L 2133,3693"
     id="path4441" /><path
     fill="none"
     stroke="rgb(179,179,179)"
     stroke-linejoin="round"
     d="M 1983,3693 L 2133,3693"
     id="path4443" /><path
     fill="none"
     stroke="rgb(179,179,179)"
     stroke-linejoin="round"
     d="M 1983,2868 L 2133,2868"
     id="path4445" /><path
     fill="none"
     stroke="rgb(179,179,179)"
     stroke-linejoin="round"
     d="M 1983,2868 L 2133,2868"
     id="path4447" /><path
     fill="none"
     stroke="rgb(179,179,179)"
     stroke-linejoin="round"
     d="M 1983,2043 L 2133,2043"
     id="path4449" /><path
     fill="none"
     stroke="rgb(179,179,179)"
     stroke-linejoin="round"
     d="M 1983,2043 L 2133,2043"
     id="path4451" /><path
     fill="none"
     stroke="rgb(179,179,179)"
     stroke-linejoin="round"
     d="M 1983,1218 L 2133,1218"
     id="path4453" /><path
     fill="none"
     stroke="rgb(179,179,179)"
     stroke-linejoin="round"
     d="M 1983,1218 L 2133,1218"
     id="path4455" /><path
     fill="none"
     stroke="rgb(179,179,179)"
     stroke-linejoin="round"
     d="M 1983,393 L 2133,393"
     id="path4457" /><path
     fill="none"
     stroke="rgb(179,179,179)"
     stroke-linejoin="round"
     d="M 1983,393 L 2133,393"
     id="path4459" /><path
     fill="none"
     stroke="rgb(179,179,179)"
     stroke-linejoin="round"
     d="M 2133,7817 L 2133,393"
     id="path4461" /><path
     fill="rgb(0,69,134)"
     stroke="none"
     d="M 6649,6929 L 6774,7054 6899,6929 6774,6804 6649,6929 Z"
     id="path4463" /><path
     fill="none"
     stroke="rgb(0,69,134)"
     stroke-linejoin="round"
     d="M 6649,6929 L 6774,7054 6899,6929 6774,6804 6649,6929 Z"
     id="path4465" /><path
     fill="rgb(0,69,134)"
     stroke="none"
     d="M 6442,6847 L 6567,6972 6692,6847 6567,6722 6442,6847 Z"
     id="path4467" /><path
     fill="none"
     stroke="rgb(0,69,134)"
     stroke-linejoin="round"
     d="M 6442,6847 L 6567,6972 6692,6847 6567,6722 6442,6847 Z"
     id="path4469" /><path
     fill="rgb(0,69,134)"
     stroke="none"
     d="M 4720,5672 L 4845,5797 4970,5672 4845,5547 4720,5672 Z"
     id="path4471" /><path
     fill="none"
     stroke="rgb(0,69,134)"
     stroke-linejoin="round"
     d="M 4720,5672 L 4845,5797 4970,5672 4845,5547 4720,5672 Z"
     id="path4473" /><path
     fill="rgb(0,69,134)"
     stroke="none"
     d="M 6568,5794 L 6693,5919 6818,5794 6693,5669 6568,5794 Z"
     id="path4475" /><path
     fill="none"
     stroke="rgb(0,69,134)"
     stroke-linejoin="round"
     d="M 6568,5794 L 6693,5919 6818,5794 6693,5669 6568,5794 Z"
     id="path4477" /><path
     fill="rgb(0,69,134)"
     stroke="none"
     d="M 3308,7320 L 3433,7445 3558,7320 3433,7195 3308,7320 Z"
     id="path4479" /><path
     fill="none"
     stroke="rgb(0,69,134)"
     stroke-linejoin="round"
     d="M 3308,7320 L 3433,7445 3558,7320 3433,7195 3308,7320 Z"
     id="path4481" /><path
     fill="rgb(0,69,134)"
     stroke="none"
     d="M 5018,5897 L 5143,6022 5268,5897 5143,5772 5018,5897 Z"
     id="path4483" /><path
     fill="none"
     stroke="rgb(0,69,134)"
     stroke-linejoin="round"
     d="M 5018,5897 L 5143,6022 5268,5897 5143,5772 5018,5897 Z"
     id="path4485" /><path
     fill="rgb(0,69,134)"
     stroke="none"
     d="M 7334,4746 L 7459,4871 7584,4746 7459,4621 7334,4746 Z"
     id="path4487" /><path
     fill="none"
     stroke="rgb(0,69,134)"
     stroke-linejoin="round"
     d="M 7334,4746 L 7459,4871 7584,4746 7459,4621 7334,4746 Z"
     id="path4489" /><path
     fill="rgb(0,69,134)"
     stroke="none"
     d="M 7489,6856 L 7614,6981 7739,6856 7614,6731 7489,6856 Z"
     id="path4491" /><path
     fill="none"
     stroke="rgb(0,69,134)"
     stroke-linejoin="round"
     d="M 7489,6856 L 7614,6981 7739,6856 7614,6731 7489,6856 Z"
     id="path4493" /><path
     fill="rgb(0,69,134)"
     stroke="none"
     d="M 9104,7614 L 9229,7739 9354,7614 9229,7489 9104,7614 Z"
     id="path4495" /><path
     fill="none"
     stroke="rgb(0,69,134)"
     stroke-linejoin="round"
     d="M 9104,7614 L 9229,7739 9354,7614 9229,7489 9104,7614 Z"
     id="path4497" /><path
     fill="rgb(0,69,134)"
     stroke="none"
     d="M 3767,6263 L 3892,6388 4017,6263 3892,6138 3767,6263 Z"
     id="path4499" /><path
     fill="none"
     stroke="rgb(0,69,134)"
     stroke-linejoin="round"
     d="M 3767,6263 L 3892,6388 4017,6263 3892,6138 3767,6263 Z"
     id="path4501" /><path
     fill="rgb(0,69,134)"
     stroke="none"
     d="M 9868,4937 L 9993,5062 10118,4937 9993,4813 9868,4937 Z"
     id="path4503" /><path
     fill="none"
     stroke="rgb(0,69,134)"
     stroke-linejoin="round"
     d="M 9868,4937 L 9993,5062 10118,4937 9993,4813 9868,4937 Z"
     id="path4505" /><path
     fill="rgb(0,69,134)"
     stroke="none"
     d="M 8778,7272 L 8903,7397 9028,7272 8903,7147 8778,7272 Z"
     id="path4507" /><path
     fill="none"
     stroke="rgb(0,69,134)"
     stroke-linejoin="round"
     d="M 8778,7272 L 8903,7397 9028,7272 8903,7147 8778,7272 Z"
     id="path4509" /><path
     fill="rgb(0,69,134)"
     stroke="none"
     d="M 8321,6499 L 8446,6624 8571,6499 8446,6374 8321,6499 Z"
     id="path4511" /><path
     fill="none"
     stroke="rgb(0,69,134)"
     stroke-linejoin="round"
     d="M 8321,6499 L 8446,6624 8571,6499 8446,6374 8321,6499 Z"
     id="path4513" /><path
     fill="rgb(0,69,134)"
     stroke="none"
     d="M 5352,5951 L 5477,6076 5602,5951 5477,5826 5352,5951 Z"
     id="path4515" /><path
     fill="none"
     stroke="rgb(0,69,134)"
     stroke-linejoin="round"
     d="M 5352,5951 L 5477,6076 5602,5951 5477,5826 5352,5951 Z"
     id="path4517" /><path
     fill="rgb(0,69,134)"
     stroke="none"
     d="M 5999,7784 L 6124,7909 6249,7784 6124,7659 5999,7784 Z"
     id="path4519" /><path
     fill="none"
     stroke="rgb(0,69,134)"
     stroke-linejoin="round"
     d="M 5999,7784 L 6124,7909 6249,7784 6124,7659 5999,7784 Z"
     id="path4521" /><path
     fill="rgb(0,69,134)"
     stroke="none"
     d="M 2960,6948 L 3085,7073 3210,6948 3085,6823 2960,6948 Z"
     id="path4523" /><path
     fill="none"
     stroke="rgb(0,69,134)"
     stroke-linejoin="round"
     d="M 2960,6948 L 3085,7073 3210,6948 3085,6823 2960,6948 Z"
     id="path4525" /><path
     fill="rgb(0,69,134)"
     stroke="none"
     d="M 5331,3256 L 5456,3381 5581,3256 5456,3131 5331,3256 Z"
     id="path4527" /><path
     fill="none"
     stroke="rgb(0,69,134)"
     stroke-linejoin="round"
     d="M 5331,3256 L 5456,3381 5581,3256 5456,3131 5331,3256 Z"
     id="path4529" /><path
     fill="rgb(0,69,134)"
     stroke="none"
     d="M 7125,7797 L 7250,7922 7375,7797 7250,7672 7125,7797 Z"
     id="path4531" /><path
     fill="none"
     stroke="rgb(0,69,134)"
     stroke-linejoin="round"
     d="M 7125,7797 L 7250,7922 7375,7797 7250,7672 7125,7797 Z"
     id="path4533" /><path
     fill="rgb(0,69,134)"
     stroke="none"
     d="M 7080,6275 L 7205,6400 7330,6275 7205,6150 7080,6275 Z"
     id="path4535" /><path
     fill="none"
     stroke="rgb(0,69,134)"
     stroke-linejoin="round"
     d="M 7080,6275 L 7205,6400 7330,6275 7205,6150 7080,6275 Z"
     id="path4537" /><path
     fill="rgb(0,69,134)"
     stroke="none"
     d="M 8572,7737 L 8697,7862 8822,7737 8697,7612 8572,7737 Z"
     id="path4539" /><path
     fill="none"
     stroke="rgb(0,69,134)"
     stroke-linejoin="round"
     d="M 8572,7737 L 8697,7862 8822,7737 8697,7612 8572,7737 Z"
     id="path4541" /><path
     fill="rgb(0,69,134)"
     stroke="none"
     d="M 4420,3293 L 4545,3418 4670,3293 4545,3168 4420,3293 Z"
     id="path4543" /><path
     fill="none"
     stroke="rgb(0,69,134)"
     stroke-linejoin="round"
     d="M 4420,3293 L 4545,3418 4670,3293 4545,3168 4420,3293 Z"
     id="path4545" /><path
     fill="rgb(0,69,134)"
     stroke="none"
     d="M 4775,6751 L 4900,6876 5025,6751 4900,6626 4775,6751 Z"
     id="path4547" /><path
     fill="none"
     stroke="rgb(0,69,134)"
     stroke-linejoin="round"
     d="M 4775,6751 L 4900,6876 5025,6751 4900,6626 4775,6751 Z"
     id="path4549" /><path
     fill="rgb(0,69,134)"
     stroke="none"
     d="M 5691,5581 L 5816,5706 5941,5581 5816,5456 5691,5581 Z"
     id="path4551" /><path
     fill="none"
     stroke="rgb(0,69,134)"
     stroke-linejoin="round"
     d="M 5691,5581 L 5816,5706 5941,5581 5816,5456 5691,5581 Z"
     id="path4553" /><path
     fill="rgb(0,69,134)"
     stroke="none"
     d="M 4344,7648 L 4469,7773 4594,7648 4469,7523 4344,7648 Z"
     id="path4555" /><path
     fill="none"
     stroke="rgb(0,69,134)"
     stroke-linejoin="round"
     d="M 4344,7648 L 4469,7773 4594,7648 4469,7523 4344,7648 Z"
     id="path4557" /><path
     fill="rgb(0,69,134)"
     stroke="none"
     d="M 6819,7788 L 6944,7913 7069,7788 6944,7663 6819,7788 Z"
     id="path4559" /><path
     fill="none"
     stroke="rgb(0,69,134)"
     stroke-linejoin="round"
     d="M 6819,7788 L 6944,7913 7069,7788 6944,7663 6819,7788 Z"
     id="path4561" /><path
     fill="rgb(0,69,134)"
     stroke="none"
     d="M 7009,5311 L 7134,5436 7259,5311 7134,5186 7009,5311 Z"
     id="path4563" /><path
     fill="none"
     stroke="rgb(0,69,134)"
     stroke-linejoin="round"
     d="M 7009,5311 L 7134,5436 7259,5311 7134,5186 7009,5311 Z"
     id="path4565" /><path
     fill="rgb(0,69,134)"
     stroke="none"
     d="M 4758,2308 L 4883,2433 5008,2308 4883,2183 4758,2308 Z"
     id="path4567" /><path
     fill="none"
     stroke="rgb(0,69,134)"
     stroke-linejoin="round"
     d="M 4758,2308 L 4883,2433 5008,2308 4883,2183 4758,2308 Z"
     id="path4569" /><path
     fill="rgb(0,69,134)"
     stroke="none"
     d="M 5528,6599 L 5652,6724 5777,6599 5652,6474 5528,6599 Z"
     id="path4571" /><path
     fill="none"
     stroke="rgb(0,69,134)"
     stroke-linejoin="round"
     d="M 5528,6599 L 5652,6724 5777,6599 5652,6474 5528,6599 Z"
     id="path4573" /><path
     fill="rgb(0,69,134)"
     stroke="none"
     d="M 7980,6661 L 8105,6786 8230,6661 8105,6536 7980,6661 Z"
     id="path4575" /><path
     fill="none"
     stroke="rgb(0,69,134)"
     stroke-linejoin="round"
     d="M 7980,6661 L 8105,6786 8230,6661 8105,6536 7980,6661 Z"
     id="path4577" /><path
     fill="rgb(0,69,134)"
     stroke="none"
     d="M 4756,767 L 4881,892 5006,767 4881,642 4756,767 Z"
     id="path4579" /><path
     fill="none"
     stroke="rgb(0,69,134)"
     stroke-linejoin="round"
     d="M 4756,767 L 4881,892 5006,767 4881,642 4756,767 Z"
     id="path4581" /><path
     fill="rgb(0,69,134)"
     stroke="none"
     d="M 6907,5762 L 7032,5887 7157,5762 7032,5637 6907,5762 Z"
     id="path4583" /><path
     fill="none"
     stroke="rgb(0,69,134)"
     stroke-linejoin="round"
     d="M 6907,5762 L 7032,5887 7157,5762 7032,5637 6907,5762 Z"
     id="path4585" /><path
     fill="rgb(0,69,134)"
     stroke="none"
     d="M 6210,7620 L 6335,7745 6460,7620 6335,7495 6210,7620 Z"
     id="path4587" /><path
     fill="none"
     stroke="rgb(0,69,134)"
     stroke-linejoin="round"
     d="M 6210,7620 L 6335,7745 6460,7620 6335,7495 6210,7620 Z"
     id="path4589" /><path
     fill="rgb(0,69,134)"
     stroke="none"
     d="M 5265,5808 L 5390,5933 5515,5808 5390,5683 5265,5808 Z"
     id="path4591" /><path
     fill="none"
     stroke="rgb(0,69,134)"
     stroke-linejoin="round"
     d="M 5265,5808 L 5390,5933 5515,5808 5390,5683 5265,5808 Z"
     id="path4593" /><path
     fill="rgb(0,69,134)"
     stroke="none"
     d="M 2873,7270 L 2998,7395 3123,7270 2998,7145 2873,7270 Z"
     id="path4595" /><path
     fill="none"
     stroke="rgb(0,69,134)"
     stroke-linejoin="round"
     d="M 2873,7270 L 2998,7395 3123,7270 2998,7145 2873,7270 Z"
     id="path4597" /><path
     fill="rgb(0,69,134)"
     stroke="none"
     d="M 5831,4041 L 5956,4166 6081,4041 5956,3916 5831,4041 Z"
     id="path4599" /><path
     fill="none"
     stroke="rgb(0,69,134)"
     stroke-linejoin="round"
     d="M 5831,4041 L 5956,4166 6081,4041 5956,3916 5831,4041 Z"
     id="path4601" /><path
     fill="rgb(0,69,134)"
     stroke="none"
     d="M 8030,7633 L 8155,7758 8280,7633 8155,7508 8030,7633 Z"
     id="path4603" /><path
     fill="none"
     stroke="rgb(0,69,134)"
     stroke-linejoin="round"
     d="M 8030,7633 L 8155,7758 8280,7633 8155,7508 8030,7633 Z"
     id="path4605" /><path
     fill="rgb(0,69,134)"
     stroke="none"
     d="M 7709,5967 L 7834,6092 7959,5967 7834,5842 7709,5967 Z"
     id="path4607" /><path
     fill="none"
     stroke="rgb(0,69,134)"
     stroke-linejoin="round"
     d="M 7709,5967 L 7834,6092 7959,5967 7834,5842 7709,5967 Z"
     id="path4609" /><path
     fill="rgb(0,69,134)"
     stroke="none"
     d="M 7819,7660 L 7944,7785 8069,7660 7944,7535 7819,7660 Z"
     id="path4611" /><path
     fill="none"
     stroke="rgb(0,69,134)"
     stroke-linejoin="round"
     d="M 7819,7660 L 7944,7785 8069,7660 7944,7535 7819,7660 Z"
     id="path4613" /><text
     class="TextShape"
     id="text4615"><tspan
       class="TextParagraph"
       font-family="cmr10"
       font-size="388px"
       font-weight="400"
       id="tspan4617"><tspan
         class="TextPosition"
         x="1762"
         y="8358"
         id="tspan4619"><tspan
           fill="rgb(0,0,0)"
           stroke="none"
           id="tspan4621">0.45</tspan></tspan></tspan></text>
<text
     class="TextShape"
     id="text4623"><tspan
       class="TextParagraph"
       font-family="cmr10"
       font-size="388px"
       font-weight="400"
       id="tspan4625"><tspan
         class="TextPosition"
         x="2823"
         y="8358"
         id="tspan4627"><tspan
           fill="rgb(0,0,0)"
           stroke="none"
           id="tspan4629">0.5</tspan></tspan></tspan></text>
<text
     class="TextShape"
     id="text4631"><tspan
       class="TextParagraph"
       font-family="cmr10"
       font-size="388px"
       font-weight="400"
       id="tspan4633"><tspan
         class="TextPosition"
         x="3672"
         y="8358"
         id="tspan4635"><tspan
           fill="rgb(0,0,0)"
           stroke="none"
           id="tspan4637">0.55</tspan></tspan></tspan></text>
<text
     class="TextShape"
     id="text4639"><tspan
       class="TextParagraph"
       font-family="cmr10"
       font-size="388px"
       font-weight="400"
       id="tspan4641"><tspan
         class="TextPosition"
         x="4733"
         y="8358"
         id="tspan4643"><tspan
           fill="rgb(0,0,0)"
           stroke="none"
           id="tspan4645">0.6</tspan></tspan></tspan></text>
<text
     class="TextShape"
     id="text4647"><tspan
       class="TextParagraph"
       font-family="cmr10"
       font-size="388px"
       font-weight="400"
       id="tspan4649"><tspan
         class="TextPosition"
         x="5582"
         y="8358"
         id="tspan4651"><tspan
           fill="rgb(0,0,0)"
           stroke="none"
           id="tspan4653">0.65</tspan></tspan></tspan></text>
<text
     class="TextShape"
     id="text4655"><tspan
       class="TextParagraph"
       font-family="cmr10"
       font-size="388px"
       font-weight="400"
       id="tspan4657"><tspan
         class="TextPosition"
         x="6644"
         y="8358"
         id="tspan4659"><tspan
           fill="rgb(0,0,0)"
           stroke="none"
           id="tspan4661">0.7</tspan></tspan></tspan></text>
<text
     class="TextShape"
     id="text4663"><tspan
       class="TextParagraph"
       font-family="cmr10"
       font-size="388px"
       font-weight="400"
       id="tspan4665"><tspan
         class="TextPosition"
         x="7493"
         y="8358"
         id="tspan4667"><tspan
           fill="rgb(0,0,0)"
           stroke="none"
           id="tspan4669">0.75</tspan></tspan></tspan></text>
<text
     class="TextShape"
     id="text4671"><tspan
       class="TextParagraph"
       font-family="cmr10"
       font-size="388px"
       font-weight="400"
       id="tspan4673"><tspan
         class="TextPosition"
         x="8554"
         y="8358"
         id="tspan4675"><tspan
           fill="rgb(0,0,0)"
           stroke="none"
           id="tspan4677">0.8</tspan></tspan></tspan></text>
<text
     class="TextShape"
     id="text4679"><tspan
       class="TextParagraph"
       font-family="cmr10"
       font-size="388px"
       font-weight="400"
       id="tspan4681"><tspan
         class="TextPosition"
         x="9403"
         y="8358"
         id="tspan4683"><tspan
           fill="rgb(0,0,0)"
           stroke="none"
           id="tspan4685">0.85</tspan></tspan></tspan></text>
<text
     class="TextShape"
     id="text4687"><tspan
       class="TextParagraph"
       font-family="cmr10"
       font-size="388px"
       font-weight="400"
       id="tspan4689"><tspan
         class="TextPosition"
         x="10464"
         y="8358"
         id="tspan4691"><tspan
           fill="rgb(0,0,0)"
           stroke="none"
           id="tspan4693">0.9</tspan></tspan></tspan></text>
<text
     class="TextShape"
     id="text4695"><tspan
       class="TextParagraph"
       font-family="cmr10"
       font-size="388px"
       font-weight="400"
       id="tspan4697"><tspan
         class="TextPosition"
         x="1671"
         y="7911"
         id="tspan4699"><tspan
           fill="rgb(0,0,0)"
           stroke="none"
           id="tspan4701">0</tspan></tspan></tspan></text>
<text
     class="TextShape"
     id="text4703"><tspan
       class="TextParagraph"
       font-family="cmr10"
       font-size="388px"
       font-weight="400"
       id="tspan4705"><tspan
         class="TextPosition"
         x="1354"
         y="7086"
         id="tspan4707"><tspan
           fill="rgb(0,0,0)"
           stroke="none"
           id="tspan4709">0.5</tspan></tspan></tspan></text>
<text
     class="TextShape"
     id="text4711"><tspan
       class="TextParagraph"
       font-family="cmr10"
       font-size="388px"
       font-weight="400"
       id="tspan4713"><tspan
         class="TextPosition"
         x="1671"
         y="6261"
         id="tspan4715"><tspan
           fill="rgb(0,0,0)"
           stroke="none"
           id="tspan4717">1</tspan></tspan></tspan></text>
<text
     class="TextShape"
     id="text4719"><tspan
       class="TextParagraph"
       font-family="cmr10"
       font-size="388px"
       font-weight="400"
       id="tspan4721"><tspan
         class="TextPosition"
         x="1354"
         y="5436"
         id="tspan4723"><tspan
           fill="rgb(0,0,0)"
           stroke="none"
           id="tspan4725">1.5</tspan></tspan></tspan></text>
<text
     class="TextShape"
     id="text4727"><tspan
       class="TextParagraph"
       font-family="cmr10"
       font-size="388px"
       font-weight="400"
       id="tspan4729"><tspan
         class="TextPosition"
         x="1671"
         y="4611"
         id="tspan4731"><tspan
           fill="rgb(0,0,0)"
           stroke="none"
           id="tspan4733">2</tspan></tspan></tspan></text>
<text
     class="TextShape"
     id="text4735"><tspan
       class="TextParagraph"
       font-family="cmr10"
       font-size="388px"
       font-weight="400"
       id="tspan4737"><tspan
         class="TextPosition"
         x="1354"
         y="3786"
         id="tspan4739"><tspan
           fill="rgb(0,0,0)"
           stroke="none"
           id="tspan4741">2.5</tspan></tspan></tspan></text>
<text
     class="TextShape"
     id="text4743"><tspan
       class="TextParagraph"
       font-family="cmr10"
       font-size="388px"
       font-weight="400"
       id="tspan4745"><tspan
         class="TextPosition"
         x="1671"
         y="2961"
         id="tspan4747"><tspan
           fill="rgb(0,0,0)"
           stroke="none"
           id="tspan4749">3</tspan></tspan></tspan></text>
<text
     class="TextShape"
     id="text4751"><tspan
       class="TextParagraph"
       font-family="cmr10"
       font-size="388px"
       font-weight="400"
       id="tspan4753"><tspan
         class="TextPosition"
         x="1354"
         y="2136"
         id="tspan4755"><tspan
           fill="rgb(0,0,0)"
           stroke="none"
           id="tspan4757">3.5</tspan></tspan></tspan></text>
<text
     class="TextShape"
     id="text4759"><tspan
       class="TextParagraph"
       font-family="cmr10"
       font-size="388px"
       font-weight="400"
       id="tspan4761"><tspan
         class="TextPosition"
         x="1671"
         y="1311"
         id="tspan4763"><tspan
           fill="rgb(0,0,0)"
           stroke="none"
           id="tspan4765">4</tspan></tspan></tspan></text>
<text
     class="TextShape"
     id="text4767"><tspan
       class="TextParagraph"
       font-family="cmr10"
       font-size="388px"
       font-weight="400"
       id="tspan4769"><tspan
         class="TextPosition"
         x="1354"
         y="486"
         id="tspan4771"><tspan
           fill="rgb(0,0,0)"
           stroke="none"
           id="tspan4773">4.5</tspan></tspan></tspan></text>
<text
     class="TextShape"
     id="text4775"><tspan
       class="TextParagraph"
       font-family="cmr10"
       font-size="353px"
       font-weight="400"
       id="tspan4777"><tspan
         class="TextPosition"
         x="6537"
         y="6625"
         id="tspan4779"><tspan
           fill="rgb(0,0,0)"
           stroke="none"
           id="tspan4781">AL</tspan></tspan></tspan></text>
<text
     class="TextShape"
     id="text4783"><tspan
       class="TextParagraph"
       font-family="cmr10"
       font-size="353px"
       font-weight="400"
       id="tspan4785"><tspan
         class="TextPosition"
         x="6303"
         y="6543"
         id="tspan4787"><tspan
           fill="rgb(0,0,0)"
           stroke="none"
           id="tspan4789">AR</tspan></tspan></tspan></text>
<text
     class="TextShape"
     id="text4791"><tspan
       class="TextParagraph"
       font-family="cmr10"
       font-size="353px"
       font-weight="400"
       id="tspan4793"><tspan
         class="TextPosition"
         x="4607"
         y="5368"
         id="tspan4795"><tspan
           fill="rgb(0,0,0)"
           stroke="none"
           id="tspan4797">AZ</tspan></tspan></tspan></text>
<text
     class="TextShape"
     id="text4799"><tspan
       class="TextParagraph"
       font-family="cmr10"
       font-size="353px"
       font-weight="400"
       id="tspan4801"><tspan
         class="TextPosition"
         x="6442"
         y="5490"
         id="tspan4803"><tspan
           fill="rgb(0,0,0)"
           stroke="none"
           id="tspan4805">CA</tspan></tspan></tspan></text>
<text
     class="TextShape"
     id="text4807"><tspan
       class="TextParagraph"
       font-family="cmr10"
       font-size="353px"
       font-weight="400"
       id="tspan4809"><tspan
         class="TextPosition"
         x="3181"
         y="7016"
         id="tspan4811"><tspan
           fill="rgb(0,0,0)"
           stroke="none"
           id="tspan4813">CO</tspan></tspan></tspan></text>
<text
     class="TextShape"
     id="text4815"><tspan
       class="TextParagraph"
       font-family="cmr10"
       font-size="353px"
       font-weight="400"
       id="tspan4817"><tspan
         class="TextPosition"
         x="4905"
         y="5593"
         id="tspan4819"><tspan
           fill="rgb(0,0,0)"
           stroke="none"
           id="tspan4821">CT</tspan></tspan></tspan></text>
<text
     class="TextShape"
     id="text4823"><tspan
       class="TextParagraph"
       font-family="cmr10"
       font-size="353px"
       font-weight="400"
       id="tspan4825"><tspan
         class="TextPosition"
         x="7248"
         y="4442"
         id="tspan4827"><tspan
           fill="rgb(0,0,0)"
           stroke="none"
           id="tspan4829">FL</tspan></tspan></tspan></text>
<text
     class="TextShape"
     id="text4831"><tspan
       class="TextParagraph"
       font-family="cmr10"
       font-size="353px"
       font-weight="400"
       id="tspan4833"><tspan
         class="TextPosition"
         x="7350"
         y="6552"
         id="tspan4835"><tspan
           fill="rgb(0,0,0)"
           stroke="none"
           id="tspan4837">GA</tspan></tspan></tspan></text>
<text
     class="TextShape"
     id="text4839"><tspan
       class="TextParagraph"
       font-family="cmr10"
       font-size="353px"
       font-weight="400"
       id="tspan4841"><tspan
         class="TextPosition"
         x="9031"
         y="7310"
         id="tspan4843"><tspan
           fill="rgb(0,0,0)"
           stroke="none"
           id="tspan4845">IA</tspan></tspan></tspan></text>
<text
     class="TextShape"
     id="text4847"><tspan
       class="TextParagraph"
       font-family="cmr10"
       font-size="353px"
       font-weight="400"
       id="tspan4849"><tspan
         class="TextPosition"
         x="3720"
         y="5959"
         id="tspan4851"><tspan
           fill="rgb(0,0,0)"
           stroke="none"
           id="tspan4853">IL</tspan></tspan></tspan></text>
<text
     class="TextShape"
     id="text4855"><tspan
       class="TextParagraph"
       font-family="cmr10"
       font-size="353px"
       font-weight="400"
       id="tspan4857"><tspan
         class="TextPosition"
         x="9795"
         y="4634"
         id="tspan4859"><tspan
           fill="rgb(0,0,0)"
           stroke="none"
           id="tspan4861">IN</tspan></tspan></tspan></text>
<text
     class="TextShape"
     id="text4863"><tspan
       class="TextParagraph"
       font-family="cmr10"
       font-size="353px"
       font-weight="400"
       id="tspan4865"><tspan
         class="TextPosition"
         x="8679"
         y="6968"
         id="tspan4867"><tspan
           fill="rgb(0,0,0)"
           stroke="none"
           id="tspan4869">KS</tspan></tspan></tspan></text>
<text
     class="TextShape"
     id="text4871"><tspan
       class="TextParagraph"
       font-family="cmr10"
       font-size="353px"
       font-weight="400"
       id="tspan4873"><tspan
         class="TextPosition"
         x="8182"
         y="6195"
         id="tspan4875"><tspan
           fill="rgb(0,0,0)"
           stroke="none"
           id="tspan4877">KY</tspan></tspan></tspan></text>
<text
     class="TextShape"
     id="text4879"><tspan
       class="TextParagraph"
       font-family="cmr10"
       font-size="353px"
       font-weight="400"
       id="tspan4881"><tspan
         class="TextPosition"
         x="5239"
         y="5647"
         id="tspan4883"><tspan
           fill="rgb(0,0,0)"
           stroke="none"
           id="tspan4885">LA</tspan></tspan></tspan></text>
<text
     class="TextShape"
     id="text4887"><tspan
       class="TextParagraph"
       font-family="cmr10"
       font-size="353px"
       font-weight="400"
       id="tspan4889"><tspan
         class="TextPosition"
         x="5834"
         y="7480"
         id="tspan4891"><tspan
           fill="rgb(0,0,0)"
           stroke="none"
           id="tspan4893">MA</tspan></tspan></tspan></text>
<text
     class="TextShape"
     id="text4895"><tspan
       class="TextParagraph"
       font-family="cmr10"
       font-size="353px"
       font-weight="400"
       id="tspan4897"><tspan
         class="TextPosition"
         x="2794"
         y="6644"
         id="tspan4899"><tspan
           fill="rgb(0,0,0)"
           stroke="none"
           id="tspan4901">MD</tspan></tspan></tspan></text>
<text
     class="TextShape"
     id="text4903"><tspan
       class="TextParagraph"
       font-family="cmr10"
       font-size="353px"
       font-weight="400"
       id="tspan4905"><tspan
         class="TextPosition"
         x="5231"
         y="2952"
         id="tspan4907"><tspan
           fill="rgb(0,0,0)"
           stroke="none"
           id="tspan4909">MI</tspan></tspan></tspan></text>
<text
     class="TextShape"
     id="text4911"><tspan
       class="TextParagraph"
       font-family="cmr10"
       font-size="353px"
       font-weight="400"
       id="tspan4913"><tspan
         class="TextPosition"
         x="6960"
         y="7493"
         id="tspan4915"><tspan
           fill="rgb(0,0,0)"
           stroke="none"
           id="tspan4917">MN</tspan></tspan></tspan></text>
<text
     class="TextShape"
     id="text4919"><tspan
       class="TextParagraph"
       font-family="cmr10"
       font-size="353px"
       font-weight="400"
       id="tspan4921"><tspan
         class="TextPosition"
         x="6915"
         y="5971"
         id="tspan4923"><tspan
           fill="rgb(0,0,0)"
           stroke="none"
           id="tspan4925">MO</tspan></tspan></tspan></text>
<text
     class="TextShape"
     id="text4927"><tspan
       class="TextParagraph"
       font-family="cmr10"
       font-size="353px"
       font-weight="400"
       id="tspan4929"><tspan
         class="TextPosition"
         x="8446"
         y="7433"
         id="tspan4931"><tspan
           fill="rgb(0,0,0)"
           stroke="none"
           id="tspan4933">MS</tspan></tspan></tspan></text>
<text
     class="TextShape"
     id="text4935"><tspan
       class="TextParagraph"
       font-family="cmr10"
       font-size="353px"
       font-weight="400"
       id="tspan4937"><tspan
         class="TextPosition"
         x="4293"
         y="2989"
         id="tspan4939"><tspan
           fill="rgb(0,0,0)"
           stroke="none"
           id="tspan4941">NC</tspan></tspan></tspan></text>
<text
     class="TextShape"
     id="text4943"><tspan
       class="TextParagraph"
       font-family="cmr10"
       font-size="353px"
       font-weight="400"
       id="tspan4945"><tspan
         class="TextPosition"
         x="4648"
         y="6447"
         id="tspan4947"><tspan
           fill="rgb(0,0,0)"
           stroke="none"
           id="tspan4949">NE</tspan></tspan></tspan></text>
<text
     class="TextShape"
     id="text4951"><tspan
       class="TextParagraph"
       font-family="cmr10"
       font-size="353px"
       font-weight="400"
       id="tspan4953"><tspan
         class="TextPosition"
         x="5592"
         y="5277"
         id="tspan4955"><tspan
           fill="rgb(0,0,0)"
           stroke="none"
           id="tspan4957">NJ</tspan></tspan></tspan></text>
<text
     class="TextShape"
     id="text4959"><tspan
       class="TextParagraph"
       font-family="cmr10"
       font-size="353px"
       font-weight="400"
       id="tspan4961"><tspan
         class="TextPosition"
         x="4178"
         y="7344"
         id="tspan4963"><tspan
           fill="rgb(0,0,0)"
           stroke="none"
           id="tspan4965">NM</tspan></tspan></tspan></text>
<text
     class="TextShape"
     id="text4967"><tspan
       class="TextParagraph"
       font-family="cmr10"
       font-size="353px"
       font-weight="400"
       id="tspan4969"><tspan
         class="TextPosition"
         x="6680"
         y="7484"
         id="tspan4971"><tspan
           fill="rgb(0,0,0)"
           stroke="none"
           id="tspan4973">NV</tspan></tspan></tspan></text>
<text
     class="TextShape"
     id="text4975"><tspan
       class="TextParagraph"
       font-family="cmr10"
       font-size="353px"
       font-weight="400"
       id="tspan4977"><tspan
         class="TextPosition"
         x="6870"
         y="5007"
         id="tspan4979"><tspan
           fill="rgb(0,0,0)"
           stroke="none"
           id="tspan4981">NY</tspan></tspan></tspan></text>
<text
     class="TextShape"
     id="text4983"><tspan
       class="TextParagraph"
       font-family="cmr10"
       font-size="353px"
       font-weight="400"
       id="tspan4985"><tspan
         class="TextPosition"
         x="4618"
         y="2004"
         id="tspan4987"><tspan
           fill="rgb(0,0,0)"
           stroke="none"
           id="tspan4989">OH</tspan></tspan></tspan></text>
<text
     class="TextShape"
     id="text4991"><tspan
       class="TextParagraph"
       font-family="cmr10"
       font-size="353px"
       font-weight="400"
       id="tspan4993"><tspan
         class="TextPosition"
         x="5388"
         y="6295"
         id="tspan4995"><tspan
           fill="rgb(0,0,0)"
           stroke="none"
           id="tspan4997">OK</tspan></tspan></tspan></text>
<text
     class="TextShape"
     id="text4999"><tspan
       class="TextParagraph"
       font-family="cmr10"
       font-size="353px"
       font-weight="400"
       id="tspan5001"><tspan
         class="TextPosition"
         x="7841"
         y="6357"
         id="tspan5003"><tspan
           fill="rgb(0,0,0)"
           stroke="none"
           id="tspan5005">OR</tspan></tspan></tspan></text>
<text
     class="TextShape"
     id="text5007"><tspan
       class="TextParagraph"
       font-family="cmr10"
       font-size="353px"
       font-weight="400"
       id="tspan5009"><tspan
         class="TextPosition"
         x="4629"
         y="463"
         id="tspan5011"><tspan
           fill="rgb(0,0,0)"
           stroke="none"
           id="tspan5013">PA</tspan></tspan></tspan></text>
<text
     class="TextShape"
     id="text5015"><tspan
       class="TextParagraph"
       font-family="cmr10"
       font-size="353px"
       font-weight="400"
       id="tspan5017"><tspan
         class="TextPosition"
         x="6821"
         y="5458"
         id="tspan5019"><tspan
           fill="rgb(0,0,0)"
           stroke="none"
           id="tspan5021">SC</tspan></tspan></tspan></text>
<text
     class="TextShape"
     id="text5023"><tspan
       class="TextParagraph"
       font-family="cmr10"
       font-size="353px"
       font-weight="400"
       id="tspan5025"><tspan
         class="TextPosition"
         x="6084"
         y="7316"
         id="tspan5027"><tspan
           fill="rgb(0,0,0)"
           stroke="none"
           id="tspan5029">TN</tspan></tspan></tspan></text>
<text
     class="TextShape"
     id="text5031"><tspan
       class="TextParagraph"
       font-family="cmr10"
       font-size="353px"
       font-weight="400"
       id="tspan5033"><tspan
         class="TextPosition"
         x="5138"
         y="5504"
         id="tspan5035"><tspan
           fill="rgb(0,0,0)"
           stroke="none"
           id="tspan5037">TX</tspan></tspan></tspan></text>
<text
     class="TextShape"
     id="text5039"><tspan
       class="TextParagraph"
       font-family="cmr10"
       font-size="353px"
       font-weight="400"
       id="tspan5041"><tspan
         class="TextPosition"
         x="2746"
         y="6966"
         id="tspan5043"><tspan
           fill="rgb(0,0,0)"
           stroke="none"
           id="tspan5045">UT</tspan></tspan></tspan></text>
<text
     class="TextShape"
     id="text5047"><tspan
       class="TextParagraph"
       font-family="cmr10"
       font-size="353px"
       font-weight="400"
       id="tspan5049"><tspan
         class="TextPosition"
         x="5692"
         y="3737"
         id="tspan5051"><tspan
           fill="rgb(0,0,0)"
           stroke="none"
           id="tspan5053">VA</tspan></tspan></tspan></text>
<text
     class="TextShape"
     id="text5055"><tspan
       class="TextParagraph"
       font-family="cmr10"
       font-size="353px"
       font-weight="400"
       id="tspan5057"><tspan
         class="TextPosition"
         x="7851"
         y="7329"
         id="tspan5059"><tspan
           fill="rgb(0,0,0)"
           stroke="none"
           id="tspan5061">WA</tspan></tspan></tspan></text>
<text
     class="TextShape"
     id="text5063"><tspan
       class="TextParagraph"
       font-family="cmr10"
       font-size="353px"
       font-weight="400"
       id="tspan5065"><tspan
         class="TextPosition"
         x="7597"
         y="5663"
         id="tspan5067"><tspan
           fill="rgb(0,0,0)"
           stroke="none"
           id="tspan5069">WI</tspan></tspan></tspan></text>
<text
     class="TextShape"
     id="text5071"><tspan
       class="TextParagraph"
       font-family="cmr10"
       font-size="353px"
       font-weight="400"
       id="tspan5073"><tspan
         class="TextPosition"
         x="7640"
         y="7356"
         id="tspan5075"><tspan
           fill="rgb(0,0,0)"
           stroke="none"
           id="tspan5077">WV</tspan></tspan></tspan></text>
<text
     class="TextShape"
     id="text5079"><tspan
       class="TextParagraph"
       font-family="cmr10"
       font-size="423px"
       font-weight="400"
       id="tspan5081"><tspan
         class="TextPosition"
         x="3964"
         y="9106"
         id="tspan5083"><tspan
           fill="rgb(0,0,0)"
           stroke="none"
           id="tspan5085">Convex Hull Population</tspan></tspan></tspan></text>
<text
     class="TextShape"
     id="text5087"
     inkscape:transform-center-x="-7.4940945"
     inkscape:transform-center-y="-114.97653"
     x="-8122.7622"
     y="-6304.7378"
     transform="matrix(0,-1,1,0,0,0)"><tspan
       class="TextParagraph"
       font-size="423px"
       font-weight="400"
       id="tspan5089"
       style="font-size:423px;font-weight:400;font-family:cmr10"><tspan
         class="TextPosition"
         x="-7226.7622"
         y="1226.2622"
         transform="matrix(0,-1,1,0,-6635,8427)"
         id="tspan5091"><tspan
           id="tspan5093"
           style="fill:#000000;stroke:none">Efficiency gap by seat share (seats)</tspan></tspan></tspan></text>
</svg>