<?xml version="1.0" encoding="UTF-8" standalone="no"?>
<svg
   xmlns:dc="http://purl.org/dc/elements/1.1/"
   xmlns:cc="http://creativecommons.org/ns#"
   xmlns:rdf="http://www.w3.org/1999/02/22-rdf-syntax-ns#"
   xmlns:svg="http://www.w3.org/2000/svg"
   xmlns="http://www.w3.org/2000/svg"
   xmlns:sodipodi="http://sodipodi.sourceforge.net/DTD/sodipodi-0.dtd"
   xmlns:inkscape="http://www.inkscape.org/namespaces/inkscape"
   width="112mm"
   height="98mm"
   viewBox="0 0 11200 9800"
   version="1.1"
   stroke-width="28.222"
   stroke-linejoin="round"
   xml:space="preserve"
   id="svg6533"
   inkscape:version="0.48.4 r9939"
   sodipodi:docname="sss-moment_pop.svg"><metadata
     id="metadata7235"><rdf:RDF><cc:Work
         rdf:about=""><dc:format>image/svg+xml</dc:format><dc:type
           rdf:resource="http://purl.org/dc/dcmitype/StillImage" /></cc:Work></rdf:RDF></metadata><defs
     id="defs7233" /><sodipodi:namedview
     pagecolor="#ffffff"
     bordercolor="#666666"
     borderopacity="1"
     objecttolerance="10"
     gridtolerance="10"
     guidetolerance="10"
     inkscape:pageopacity="0"
     inkscape:pageshadow="2"
     inkscape:window-width="1050"
     inkscape:window-height="1680"
     id="namedview7231"
     showgrid="false"
     inkscape:zoom="2.7185489"
     inkscape:cx="131.12194"
     inkscape:cy="54.832936"
     inkscape:window-x="1600"
     inkscape:window-y="0"
     inkscape:window-maximized="0"
     inkscape:current-layer="svg6533" /><path
     fill="rgb(255,255,255)"
     stroke="none"
     d="M 5609,9760 L 0,9760 0,0 11218,0 11218,9760 5609,9760 Z"
     id="path6535" /><path
     fill="none"
     stroke="rgb(179,179,179)"
     stroke-linejoin="round"
     d="M 6430,7819 L 2133,7819 2133,394 10728,394 10728,7819 6430,7819 Z"
     id="path6537" /><path
     fill="none"
     stroke="rgb(179,179,179)"
     stroke-linejoin="round"
     d="M 2133,7968 L 2133,7818"
     id="path6539" /><path
     fill="none"
     stroke="rgb(179,179,179)"
     stroke-linejoin="round"
     d="M 2133,7968 L 2133,7818"
     id="path6541" /><path
     fill="none"
     stroke="rgb(179,179,179)"
     stroke-linejoin="round"
     d="M 3361,7968 L 3361,7818"
     id="path6543" /><path
     fill="none"
     stroke="rgb(179,179,179)"
     stroke-linejoin="round"
     d="M 3361,7968 L 3361,7818"
     id="path6545" /><path
     fill="none"
     stroke="rgb(179,179,179)"
     stroke-linejoin="round"
     d="M 4589,7968 L 4589,7818"
     id="path6547" /><path
     fill="none"
     stroke="rgb(179,179,179)"
     stroke-linejoin="round"
     d="M 4589,7968 L 4589,7818"
     id="path6549" /><path
     fill="none"
     stroke="rgb(179,179,179)"
     stroke-linejoin="round"
     d="M 5816,7968 L 5816,7818"
     id="path6551" /><path
     fill="none"
     stroke="rgb(179,179,179)"
     stroke-linejoin="round"
     d="M 5816,7968 L 5816,7818"
     id="path6553" /><path
     fill="none"
     stroke="rgb(179,179,179)"
     stroke-linejoin="round"
     d="M 7044,7968 L 7044,7818"
     id="path6555" /><path
     fill="none"
     stroke="rgb(179,179,179)"
     stroke-linejoin="round"
     d="M 7044,7968 L 7044,7818"
     id="path6557" /><path
     fill="none"
     stroke="rgb(179,179,179)"
     stroke-linejoin="round"
     d="M 8272,7968 L 8272,7818"
     id="path6559" /><path
     fill="none"
     stroke="rgb(179,179,179)"
     stroke-linejoin="round"
     d="M 8272,7968 L 8272,7818"
     id="path6561" /><path
     fill="none"
     stroke="rgb(179,179,179)"
     stroke-linejoin="round"
     d="M 9500,7968 L 9500,7818"
     id="path6563" /><path
     fill="none"
     stroke="rgb(179,179,179)"
     stroke-linejoin="round"
     d="M 9500,7968 L 9500,7818"
     id="path6565" /><path
     fill="none"
     stroke="rgb(179,179,179)"
     stroke-linejoin="round"
     d="M 10728,7968 L 10728,7818"
     id="path6567" /><path
     fill="none"
     stroke="rgb(179,179,179)"
     stroke-linejoin="round"
     d="M 10728,7968 L 10728,7818"
     id="path6569" /><path
     fill="none"
     stroke="rgb(179,179,179)"
     stroke-linejoin="round"
     d="M 2133,7818 L 10728,7818"
     id="path6571" /><path
     fill="none"
     stroke="rgb(179,179,179)"
     stroke-linejoin="round"
     d="M 1983,7818 L 2133,7818"
     id="path6573" /><path
     fill="none"
     stroke="rgb(179,179,179)"
     stroke-linejoin="round"
     d="M 1983,7818 L 2133,7818"
     id="path6575" /><path
     fill="none"
     stroke="rgb(179,179,179)"
     stroke-linejoin="round"
     d="M 1983,6992 L 2133,6992"
     id="path6577" /><path
     fill="none"
     stroke="rgb(179,179,179)"
     stroke-linejoin="round"
     d="M 1983,6992 L 2133,6992"
     id="path6579" /><path
     fill="none"
     stroke="rgb(179,179,179)"
     stroke-linejoin="round"
     d="M 1983,6167 L 2133,6167"
     id="path6581" /><path
     fill="none"
     stroke="rgb(179,179,179)"
     stroke-linejoin="round"
     d="M 1983,6167 L 2133,6167"
     id="path6583" /><path
     fill="none"
     stroke="rgb(179,179,179)"
     stroke-linejoin="round"
     d="M 1983,5342 L 2133,5342"
     id="path6585" /><path
     fill="none"
     stroke="rgb(179,179,179)"
     stroke-linejoin="round"
     d="M 1983,5342 L 2133,5342"
     id="path6587" /><path
     fill="none"
     stroke="rgb(179,179,179)"
     stroke-linejoin="round"
     d="M 1983,4518 L 2133,4518"
     id="path6589" /><path
     fill="none"
     stroke="rgb(179,179,179)"
     stroke-linejoin="round"
     d="M 1983,4518 L 2133,4518"
     id="path6591" /><path
     fill="none"
     stroke="rgb(179,179,179)"
     stroke-linejoin="round"
     d="M 1983,3693 L 2133,3693"
     id="path6593" /><path
     fill="none"
     stroke="rgb(179,179,179)"
     stroke-linejoin="round"
     d="M 1983,3693 L 2133,3693"
     id="path6595" /><path
     fill="none"
     stroke="rgb(179,179,179)"
     stroke-linejoin="round"
     d="M 1983,2868 L 2133,2868"
     id="path6597" /><path
     fill="none"
     stroke="rgb(179,179,179)"
     stroke-linejoin="round"
     d="M 1983,2868 L 2133,2868"
     id="path6599" /><path
     fill="none"
     stroke="rgb(179,179,179)"
     stroke-linejoin="round"
     d="M 1983,2043 L 2133,2043"
     id="path6601" /><path
     fill="none"
     stroke="rgb(179,179,179)"
     stroke-linejoin="round"
     d="M 1983,2043 L 2133,2043"
     id="path6603" /><path
     fill="none"
     stroke="rgb(179,179,179)"
     stroke-linejoin="round"
     d="M 1983,1218 L 2133,1218"
     id="path6605" /><path
     fill="none"
     stroke="rgb(179,179,179)"
     stroke-linejoin="round"
     d="M 1983,1218 L 2133,1218"
     id="path6607" /><path
     fill="none"
     stroke="rgb(179,179,179)"
     stroke-linejoin="round"
     d="M 1983,393 L 2133,393"
     id="path6609" /><path
     fill="none"
     stroke="rgb(179,179,179)"
     stroke-linejoin="round"
     d="M 1983,393 L 2133,393"
     id="path6611" /><path
     fill="none"
     stroke="rgb(179,179,179)"
     stroke-linejoin="round"
     d="M 2133,7818 L 2133,393"
     id="path6613" /><path
     fill="rgb(0,69,134)"
     stroke="none"
     d="M 4398,6930 L 4523,7055 4648,6930 4523,6805 4398,6930 Z"
     id="path6615" /><path
     fill="none"
     stroke="rgb(0,69,134)"
     stroke-linejoin="round"
     d="M 4398,6930 L 4523,7055 4648,6930 4523,6805 4398,6930 Z"
     id="path6617" /><path
     fill="rgb(0,69,134)"
     stroke="none"
     d="M 4417,6848 L 4542,6973 4667,6848 4542,6723 4417,6848 Z"
     id="path6619" /><path
     fill="none"
     stroke="rgb(0,69,134)"
     stroke-linejoin="round"
     d="M 4417,6848 L 4542,6973 4667,6848 4542,6723 4417,6848 Z"
     id="path6621" /><path
     fill="rgb(0,69,134)"
     stroke="none"
     d="M 4363,5673 L 4488,5798 4613,5673 4488,5548 4363,5673 Z"
     id="path6623" /><path
     fill="none"
     stroke="rgb(0,69,134)"
     stroke-linejoin="round"
     d="M 4363,5673 L 4488,5798 4613,5673 4488,5548 4363,5673 Z"
     id="path6625" /><path
     fill="rgb(0,69,134)"
     stroke="none"
     d="M 4693,5795 L 4818,5920 4943,5795 4818,5670 4693,5795 Z"
     id="path6627" /><path
     fill="none"
     stroke="rgb(0,69,134)"
     stroke-linejoin="round"
     d="M 4693,5795 L 4818,5920 4943,5795 4818,5670 4693,5795 Z"
     id="path6629" /><path
     fill="rgb(0,69,134)"
     stroke="none"
     d="M 5480,7321 L 5605,7446 5729,7321 5605,7196 5480,7321 Z"
     id="path6631" /><path
     fill="none"
     stroke="rgb(0,69,134)"
     stroke-linejoin="round"
     d="M 5480,7321 L 5605,7446 5729,7321 5605,7196 5480,7321 Z"
     id="path6633" /><path
     fill="rgb(0,69,134)"
     stroke="none"
     d="M 3713,5897 L 3838,6022 3963,5897 3838,5772 3713,5897 Z"
     id="path6635" /><path
     fill="none"
     stroke="rgb(0,69,134)"
     stroke-linejoin="round"
     d="M 3713,5897 L 3838,6022 3963,5897 3838,5772 3713,5897 Z"
     id="path6637" /><path
     fill="rgb(0,69,134)"
     stroke="none"
     d="M 4285,4747 L 4410,4872 4535,4747 4410,4622 4285,4747 Z"
     id="path6639" /><path
     fill="none"
     stroke="rgb(0,69,134)"
     stroke-linejoin="round"
     d="M 4285,4747 L 4410,4872 4535,4747 4410,4622 4285,4747 Z"
     id="path6641" /><path
     fill="rgb(0,69,134)"
     stroke="none"
     d="M 4013,6857 L 4138,6982 4263,6857 4138,6732 4013,6857 Z"
     id="path6643" /><path
     fill="none"
     stroke="rgb(0,69,134)"
     stroke-linejoin="round"
     d="M 4013,6857 L 4138,6982 4263,6857 4138,6732 4013,6857 Z"
     id="path6645" /><path
     fill="rgb(0,69,134)"
     stroke="none"
     d="M 3635,7615 L 3760,7740 3885,7615 3760,7490 3635,7615 Z"
     id="path6647" /><path
     fill="none"
     stroke="rgb(0,69,134)"
     stroke-linejoin="round"
     d="M 3635,7615 L 3760,7740 3885,7615 3760,7490 3635,7615 Z"
     id="path6649" /><path
     fill="rgb(0,69,134)"
     stroke="none"
     d="M 3305,6264 L 3430,6389 3555,6264 3430,6139 3305,6264 Z"
     id="path6651" /><path
     fill="none"
     stroke="rgb(0,69,134)"
     stroke-linejoin="round"
     d="M 3305,6264 L 3430,6389 3555,6264 3430,6139 3305,6264 Z"
     id="path6653" /><path
     fill="rgb(0,69,134)"
     stroke="none"
     d="M 4460,4938 L 4585,5063 4710,4938 4585,4814 4460,4938 Z"
     id="path6655" /><path
     fill="none"
     stroke="rgb(0,69,134)"
     stroke-linejoin="round"
     d="M 4460,4938 L 4585,5063 4710,4938 4585,4814 4460,4938 Z"
     id="path6657" /><path
     fill="rgb(0,69,134)"
     stroke="none"
     d="M 6044,7273 L 6169,7398 6294,7273 6169,7148 6044,7273 Z"
     id="path6659" /><path
     fill="none"
     stroke="rgb(0,69,134)"
     stroke-linejoin="round"
     d="M 6044,7273 L 6169,7398 6294,7273 6169,7148 6044,7273 Z"
     id="path6661" /><path
     fill="rgb(0,69,134)"
     stroke="none"
     d="M 3794,6499 L 3919,6624 4044,6499 3919,6374 3794,6499 Z"
     id="path6663" /><path
     fill="none"
     stroke="rgb(0,69,134)"
     stroke-linejoin="round"
     d="M 3794,6499 L 3919,6624 4044,6499 3919,6374 3794,6499 Z"
     id="path6665" /><path
     fill="rgb(0,69,134)"
     stroke="none"
     d="M 4357,5952 L 4482,6077 4607,5952 4482,5827 4357,5952 Z"
     id="path6667" /><path
     fill="none"
     stroke="rgb(0,69,134)"
     stroke-linejoin="round"
     d="M 4357,5952 L 4482,6077 4607,5952 4482,5827 4357,5952 Z"
     id="path6669" /><path
     fill="rgb(0,69,134)"
     stroke="none"
     d="M 4051,7785 L 4176,7910 4301,7785 4176,7660 4051,7785 Z"
     id="path6671" /><path
     fill="none"
     stroke="rgb(0,69,134)"
     stroke-linejoin="round"
     d="M 4051,7785 L 4176,7910 4301,7785 4176,7660 4051,7785 Z"
     id="path6673" /><path
     fill="rgb(0,69,134)"
     stroke="none"
     d="M 3502,6949 L 3627,7074 3752,6949 3627,6824 3502,6949 Z"
     id="path6675" /><path
     fill="none"
     stroke="rgb(0,69,134)"
     stroke-linejoin="round"
     d="M 3502,6949 L 3627,7074 3752,6949 3627,6824 3502,6949 Z"
     id="path6677" /><path
     fill="rgb(0,69,134)"
     stroke="none"
     d="M 3946,3256 L 4071,3381 4196,3256 4071,3131 3946,3256 Z"
     id="path6679" /><path
     fill="none"
     stroke="rgb(0,69,134)"
     stroke-linejoin="round"
     d="M 3946,3256 L 4071,3381 4196,3256 4071,3131 3946,3256 Z"
     id="path6681" /><path
     fill="rgb(0,69,134)"
     stroke="none"
     d="M 4301,7798 L 4426,7923 4551,7798 4426,7673 4301,7798 Z"
     id="path6683" /><path
     fill="none"
     stroke="rgb(0,69,134)"
     stroke-linejoin="round"
     d="M 4301,7798 L 4426,7923 4551,7798 4426,7673 4301,7798 Z"
     id="path6685" /><path
     fill="rgb(0,69,134)"
     stroke="none"
     d="M 4004,6275 L 4129,6400 4254,6275 4129,6150 4004,6275 Z"
     id="path6687" /><path
     fill="none"
     stroke="rgb(0,69,134)"
     stroke-linejoin="round"
     d="M 4004,6275 L 4129,6400 4254,6275 4129,6150 4004,6275 Z"
     id="path6689" /><path
     fill="rgb(0,69,134)"
     stroke="none"
     d="M 3905,7738 L 4030,7863 4155,7738 4030,7613 3905,7738 Z"
     id="path6691" /><path
     fill="none"
     stroke="rgb(0,69,134)"
     stroke-linejoin="round"
     d="M 3905,7738 L 4030,7863 4155,7738 4030,7613 3905,7738 Z"
     id="path6693" /><path
     fill="rgb(0,69,134)"
     stroke="none"
     d="M 3189,3293 L 3314,3418 3439,3293 3314,3168 3189,3293 Z"
     id="path6695" /><path
     fill="none"
     stroke="rgb(0,69,134)"
     stroke-linejoin="round"
     d="M 3189,3293 L 3314,3418 3439,3293 3314,3168 3189,3293 Z"
     id="path6697" /><path
     fill="rgb(0,69,134)"
     stroke="none"
     d="M 5153,6752 L 5278,6877 5403,6752 5278,6627 5153,6752 Z"
     id="path6699" /><path
     fill="none"
     stroke="rgb(0,69,134)"
     stroke-linejoin="round"
     d="M 5153,6752 L 5278,6877 5403,6752 5278,6627 5153,6752 Z"
     id="path6701" /><path
     fill="rgb(0,69,134)"
     stroke="none"
     d="M 3592,5582 L 3717,5707 3842,5582 3717,5457 3592,5582 Z"
     id="path6703" /><path
     fill="none"
     stroke="rgb(0,69,134)"
     stroke-linejoin="round"
     d="M 3592,5582 L 3717,5707 3842,5582 3717,5457 3592,5582 Z"
     id="path6705" /><path
     fill="rgb(0,69,134)"
     stroke="none"
     d="M 9656,7649 L 9781,7774 9906,7649 9781,7524 9656,7649 Z"
     id="path6707" /><path
     fill="none"
     stroke="rgb(0,69,134)"
     stroke-linejoin="round"
     d="M 9656,7649 L 9781,7774 9906,7649 9781,7524 9656,7649 Z"
     id="path6709" /><path
     fill="rgb(0,69,134)"
     stroke="none"
     d="M 7326,7789 L 7451,7914 7576,7789 7451,7664 7326,7789 Z"
     id="path6711" /><path
     fill="none"
     stroke="rgb(0,69,134)"
     stroke-linejoin="round"
     d="M 7326,7789 L 7451,7914 7576,7789 7451,7664 7326,7789 Z"
     id="path6713" /><path
     fill="rgb(0,69,134)"
     stroke="none"
     d="M 4358,5311 L 4483,5436 4608,5311 4483,5186 4358,5311 Z"
     id="path6715" /><path
     fill="none"
     stroke="rgb(0,69,134)"
     stroke-linejoin="round"
     d="M 4358,5311 L 4483,5436 4608,5311 4483,5186 4358,5311 Z"
     id="path6717" /><path
     fill="rgb(0,69,134)"
     stroke="none"
     d="M 3683,2308 L 3808,2433 3933,2308 3808,2183 3683,2308 Z"
     id="path6719" /><path
     fill="none"
     stroke="rgb(0,69,134)"
     stroke-linejoin="round"
     d="M 3683,2308 L 3808,2433 3933,2308 3808,2183 3683,2308 Z"
     id="path6721" /><path
     fill="rgb(0,69,134)"
     stroke="none"
     d="M 4512,6600 L 4637,6725 4762,6600 4637,6475 4512,6600 Z"
     id="path6723" /><path
     fill="none"
     stroke="rgb(0,69,134)"
     stroke-linejoin="round"
     d="M 4512,6600 L 4637,6725 4762,6600 4637,6475 4512,6600 Z"
     id="path6725" /><path
     fill="rgb(0,69,134)"
     stroke="none"
     d="M 5746,6661 L 5871,6786 5996,6661 5871,6536 5746,6661 Z"
     id="path6727" /><path
     fill="none"
     stroke="rgb(0,69,134)"
     stroke-linejoin="round"
     d="M 5746,6661 L 5871,6786 5996,6661 5871,6536 5746,6661 Z"
     id="path6729" /><path
     fill="rgb(0,69,134)"
     stroke="none"
     d="M 3345,767 L 3470,892 3595,767 3470,642 3345,767 Z"
     id="path6731" /><path
     fill="none"
     stroke="rgb(0,69,134)"
     stroke-linejoin="round"
     d="M 3345,767 L 3470,892 3595,767 3470,642 3345,767 Z"
     id="path6733" /><path
     fill="rgb(0,69,134)"
     stroke="none"
     d="M 3939,5762 L 4064,5887 4189,5762 4064,5637 3939,5762 Z"
     id="path6735" /><path
     fill="none"
     stroke="rgb(0,69,134)"
     stroke-linejoin="round"
     d="M 3939,5762 L 4064,5887 4189,5762 4064,5637 3939,5762 Z"
     id="path6737" /><path
     fill="rgb(0,69,134)"
     stroke="none"
     d="M 4042,7621 L 4167,7746 4292,7621 4167,7496 4042,7621 Z"
     id="path6739" /><path
     fill="none"
     stroke="rgb(0,69,134)"
     stroke-linejoin="round"
     d="M 4042,7621 L 4167,7746 4292,7621 4167,7496 4042,7621 Z"
     id="path6741" /><path
     fill="rgb(0,69,134)"
     stroke="none"
     d="M 3688,5809 L 3813,5934 3938,5809 3813,5684 3688,5809 Z"
     id="path6743" /><path
     fill="none"
     stroke="rgb(0,69,134)"
     stroke-linejoin="round"
     d="M 3688,5809 L 3813,5934 3938,5809 3813,5684 3688,5809 Z"
     id="path6745" /><path
     fill="rgb(0,69,134)"
     stroke="none"
     d="M 6083,7271 L 6208,7396 6333,7271 6208,7146 6083,7271 Z"
     id="path6747" /><path
     fill="none"
     stroke="rgb(0,69,134)"
     stroke-linejoin="round"
     d="M 6083,7271 L 6208,7396 6333,7271 6208,7146 6083,7271 Z"
     id="path6749" /><path
     fill="rgb(0,69,134)"
     stroke="none"
     d="M 3495,4042 L 3620,4167 3745,4042 3620,3917 3495,4042 Z"
     id="path6751" /><path
     fill="none"
     stroke="rgb(0,69,134)"
     stroke-linejoin="round"
     d="M 3495,4042 L 3620,4167 3745,4042 3620,3917 3495,4042 Z"
     id="path6753" /><path
     fill="rgb(0,69,134)"
     stroke="none"
     d="M 4831,7634 L 4956,7759 5081,7634 4956,7509 4831,7634 Z"
     id="path6755" /><path
     fill="none"
     stroke="rgb(0,69,134)"
     stroke-linejoin="round"
     d="M 4831,7634 L 4956,7759 5081,7634 4956,7509 4831,7634 Z"
     id="path6757" /><path
     fill="rgb(0,69,134)"
     stroke="none"
     d="M 6650,5968 L 6775,6093 6900,5968 6775,5843 6650,5968 Z"
     id="path6759" /><path
     fill="none"
     stroke="rgb(0,69,134)"
     stroke-linejoin="round"
     d="M 6650,5968 L 6775,6093 6900,5968 6775,5843 6650,5968 Z"
     id="path6761" /><path
     fill="rgb(0,69,134)"
     stroke="none"
     d="M 3066,7661 L 3191,7786 3316,7661 3191,7536 3066,7661 Z"
     id="path6763" /><path
     fill="none"
     stroke="rgb(0,69,134)"
     stroke-linejoin="round"
     d="M 3066,7661 L 3191,7786 3316,7661 3191,7536 3066,7661 Z"
     id="path6765" /><text
     class="TextShape"
     id="text6767"><tspan
       class="TextParagraph"
       font-family="cmr10"
       font-size="388px"
       font-weight="400"
       id="tspan6769"><tspan
         class="TextPosition"
         x="2027"
         y="8359"
         id="tspan6771"><tspan
           fill="rgb(0,0,0)"
           stroke="none"
           id="tspan6773">0</tspan></tspan></tspan></text>
<text
     class="TextShape"
     id="text6775"><tspan
       class="TextParagraph"
       font-family="cmr10"
       font-size="388px"
       font-weight="400"
       id="tspan6777"><tspan
         class="TextPosition"
         x="3096"
         y="8359"
         id="tspan6779"><tspan
           fill="rgb(0,0,0)"
           stroke="none"
           id="tspan6781">0.5</tspan></tspan></tspan></text>
<text
     class="TextShape"
     id="text6783"><tspan
       class="TextParagraph"
       font-family="cmr10"
       font-size="388px"
       font-weight="400"
       id="tspan6785"><tspan
         class="TextPosition"
         x="4483"
         y="8359"
         id="tspan6787"><tspan
           fill="rgb(0,0,0)"
           stroke="none"
           id="tspan6789">1</tspan></tspan></tspan></text>
<text
     class="TextShape"
     id="text6791"><tspan
       class="TextParagraph"
       font-family="cmr10"
       font-size="388px"
       font-weight="400"
       id="tspan6793"><tspan
         class="TextPosition"
         x="5552"
         y="8359"
         id="tspan6795"><tspan
           fill="rgb(0,0,0)"
           stroke="none"
           id="tspan6797">1.5</tspan></tspan></tspan></text>
<text
     class="TextShape"
     id="text6799"><tspan
       class="TextParagraph"
       font-family="cmr10"
       font-size="388px"
       font-weight="400"
       id="tspan6801"><tspan
         class="TextPosition"
         x="6939"
         y="8359"
         id="tspan6803"><tspan
           fill="rgb(0,0,0)"
           stroke="none"
           id="tspan6805">2</tspan></tspan></tspan></text>
<text
     class="TextShape"
     id="text6807"><tspan
       class="TextParagraph"
       font-family="cmr10"
       font-size="388px"
       font-weight="400"
       id="tspan6809"><tspan
         class="TextPosition"
         x="8008"
         y="8359"
         id="tspan6811"><tspan
           fill="rgb(0,0,0)"
           stroke="none"
           id="tspan6813">2.5</tspan></tspan></tspan></text>
<text
     class="TextShape"
     id="text6815"><tspan
       class="TextParagraph"
       font-family="cmr10"
       font-size="388px"
       font-weight="400"
       id="tspan6817"><tspan
         class="TextPosition"
         x="9395"
         y="8359"
         id="tspan6819"><tspan
           fill="rgb(0,0,0)"
           stroke="none"
           id="tspan6821">3</tspan></tspan></tspan></text>
<text
     class="TextShape"
     id="text6823"><tspan
       class="TextParagraph"
       font-family="cmr10"
       font-size="388px"
       font-weight="400"
       id="tspan6825"><tspan
         class="TextPosition"
         x="10464"
         y="8359"
         id="tspan6827"><tspan
           fill="rgb(0,0,0)"
           stroke="none"
           id="tspan6829">3.5</tspan></tspan></tspan></text>
<text
     class="TextShape"
     id="text6831"><tspan
       class="TextParagraph"
       font-family="cmr10"
       font-size="388px"
       font-weight="400"
       id="tspan6833"><tspan
         class="TextPosition"
         x="1671"
         y="7912"
         id="tspan6835"><tspan
           fill="rgb(0,0,0)"
           stroke="none"
           id="tspan6837">0</tspan></tspan></tspan></text>
<text
     class="TextShape"
     id="text6839"><tspan
       class="TextParagraph"
       font-family="cmr10"
       font-size="388px"
       font-weight="400"
       id="tspan6841"><tspan
         class="TextPosition"
         x="1354"
         y="7086"
         id="tspan6843"><tspan
           fill="rgb(0,0,0)"
           stroke="none"
           id="tspan6845">0.5</tspan></tspan></tspan></text>
<text
     class="TextShape"
     id="text6847"><tspan
       class="TextParagraph"
       font-family="cmr10"
       font-size="388px"
       font-weight="400"
       id="tspan6849"><tspan
         class="TextPosition"
         x="1671"
         y="6261"
         id="tspan6851"><tspan
           fill="rgb(0,0,0)"
           stroke="none"
           id="tspan6853">1</tspan></tspan></tspan></text>
<text
     class="TextShape"
     id="text6855"><tspan
       class="TextParagraph"
       font-family="cmr10"
       font-size="388px"
       font-weight="400"
       id="tspan6857"><tspan
         class="TextPosition"
         x="1354"
         y="5436"
         id="tspan6859"><tspan
           fill="rgb(0,0,0)"
           stroke="none"
           id="tspan6861">1.5</tspan></tspan></tspan></text>
<text
     class="TextShape"
     id="text6863"><tspan
       class="TextParagraph"
       font-family="cmr10"
       font-size="388px"
       font-weight="400"
       id="tspan6865"><tspan
         class="TextPosition"
         x="1671"
         y="4611"
         id="tspan6867"><tspan
           fill="rgb(0,0,0)"
           stroke="none"
           id="tspan6869">2</tspan></tspan></tspan></text>
<text
     class="TextShape"
     id="text6871"><tspan
       class="TextParagraph"
       font-family="cmr10"
       font-size="388px"
       font-weight="400"
       id="tspan6873"><tspan
         class="TextPosition"
         x="1354"
         y="3786"
         id="tspan6875"><tspan
           fill="rgb(0,0,0)"
           stroke="none"
           id="tspan6877">2.5</tspan></tspan></tspan></text>
<text
     class="TextShape"
     id="text6879"><tspan
       class="TextParagraph"
       font-family="cmr10"
       font-size="388px"
       font-weight="400"
       id="tspan6881"><tspan
         class="TextPosition"
         x="1671"
         y="2961"
         id="tspan6883"><tspan
           fill="rgb(0,0,0)"
           stroke="none"
           id="tspan6885">3</tspan></tspan></tspan></text>
<text
     class="TextShape"
     id="text6887"><tspan
       class="TextParagraph"
       font-family="cmr10"
       font-size="388px"
       font-weight="400"
       id="tspan6889"><tspan
         class="TextPosition"
         x="1354"
         y="2136"
         id="tspan6891"><tspan
           fill="rgb(0,0,0)"
           stroke="none"
           id="tspan6893">3.5</tspan></tspan></tspan></text>
<text
     class="TextShape"
     id="text6895"><tspan
       class="TextParagraph"
       font-family="cmr10"
       font-size="388px"
       font-weight="400"
       id="tspan6897"><tspan
         class="TextPosition"
         x="1671"
         y="1311"
         id="tspan6899"><tspan
           fill="rgb(0,0,0)"
           stroke="none"
           id="tspan6901">4</tspan></tspan></tspan></text>
<text
     class="TextShape"
     id="text6903"><tspan
       class="TextParagraph"
       font-family="cmr10"
       font-size="388px"
       font-weight="400"
       id="tspan6905"><tspan
         class="TextPosition"
         x="1354"
         y="486"
         id="tspan6907"><tspan
           fill="rgb(0,0,0)"
           stroke="none"
           id="tspan6909">4.5</tspan></tspan></tspan></text>
<text
     class="TextShape"
     id="text6911"><tspan
       class="TextParagraph"
       font-family="cmr10"
       font-size="353px"
       font-weight="400"
       id="tspan6913"><tspan
         class="TextPosition"
         x="4285"
         y="6626"
         id="tspan6915"><tspan
           fill="rgb(0,0,0)"
           stroke="none"
           id="tspan6917">AL</tspan></tspan></tspan></text>
<text
     class="TextShape"
     id="text6919"><tspan
       class="TextParagraph"
       font-family="cmr10"
       font-size="353px"
       font-weight="400"
       id="tspan6921"><tspan
         class="TextPosition"
         x="4277"
         y="6544"
         id="tspan6923"><tspan
           fill="rgb(0,0,0)"
           stroke="none"
           id="tspan6925">AR</tspan></tspan></tspan></text>
<text
     class="TextShape"
     id="text6927"><tspan
       class="TextParagraph"
       font-family="cmr10"
       font-size="353px"
       font-weight="400"
       id="tspan6929"><tspan
         class="TextPosition"
         x="4250"
         y="5369"
         id="tspan6931"><tspan
           fill="rgb(0,0,0)"
           stroke="none"
           id="tspan6933">AZ</tspan></tspan></tspan></text>
<text
     class="TextShape"
     id="text6935"><tspan
       class="TextParagraph"
       font-family="cmr10"
       font-size="353px"
       font-weight="400"
       id="tspan6937"><tspan
         class="TextPosition"
         x="4566"
         y="5491"
         id="tspan6939"><tspan
           fill="rgb(0,0,0)"
           stroke="none"
           id="tspan6941">CA</tspan></tspan></tspan></text>
<text
     class="TextShape"
     id="text6943"><tspan
       class="TextParagraph"
       font-family="cmr10"
       font-size="353px"
       font-weight="400"
       id="tspan6945"><tspan
         class="TextPosition"
         x="5353"
         y="7017"
         id="tspan6947"><tspan
           fill="rgb(0,0,0)"
           stroke="none"
           id="tspan6949">CO</tspan></tspan></tspan></text>
<text
     class="TextShape"
     id="text6951"><tspan
       class="TextParagraph"
       font-family="cmr10"
       font-size="353px"
       font-weight="400"
       id="tspan6953"><tspan
         class="TextPosition"
         x="3600"
         y="5593"
         id="tspan6955"><tspan
           fill="rgb(0,0,0)"
           stroke="none"
           id="tspan6957">CT</tspan></tspan></tspan></text>
<text
     class="TextShape"
     id="text6959"><tspan
       class="TextParagraph"
       font-family="cmr10"
       font-size="353px"
       font-weight="400"
       id="tspan6961"><tspan
         class="TextPosition"
         x="4198"
         y="4443"
         id="tspan6963"><tspan
           fill="rgb(0,0,0)"
           stroke="none"
           id="tspan6965">FL</tspan></tspan></tspan></text>
<text
     class="TextShape"
     id="text6967"><tspan
       class="TextParagraph"
       font-family="cmr10"
       font-size="353px"
       font-weight="400"
       id="tspan6969"><tspan
         class="TextPosition"
         x="3873"
         y="6553"
         id="tspan6971"><tspan
           fill="rgb(0,0,0)"
           stroke="none"
           id="tspan6973">GA</tspan></tspan></tspan></text>
<text
     class="TextShape"
     id="text6975"><tspan
       class="TextParagraph"
       font-family="cmr10"
       font-size="353px"
       font-weight="400"
       id="tspan6977"><tspan
         class="TextPosition"
         x="3561"
         y="7311"
         id="tspan6979"><tspan
           fill="rgb(0,0,0)"
           stroke="none"
           id="tspan6981">IA</tspan></tspan></tspan></text>
<text
     class="TextShape"
     id="text6983"><tspan
       class="TextParagraph"
       font-family="cmr10"
       font-size="353px"
       font-weight="400"
       id="tspan6985"><tspan
         class="TextPosition"
         x="3258"
         y="5960"
         id="tspan6987"><tspan
           fill="rgb(0,0,0)"
           stroke="none"
           id="tspan6989">IL</tspan></tspan></tspan></text>
<text
     class="TextShape"
     id="text6991"><tspan
       class="TextParagraph"
       font-family="cmr10"
       font-size="353px"
       font-weight="400"
       id="tspan6993"><tspan
         class="TextPosition"
         x="4386"
         y="4635"
         id="tspan6995"><tspan
           fill="rgb(0,0,0)"
           stroke="none"
           id="tspan6997">IN</tspan></tspan></tspan></text>
<text
     class="TextShape"
     id="text6999"><tspan
       class="TextParagraph"
       font-family="cmr10"
       font-size="353px"
       font-weight="400"
       id="tspan7001"><tspan
         class="TextPosition"
         x="5945"
         y="6969"
         id="tspan7003"><tspan
           fill="rgb(0,0,0)"
           stroke="none"
           id="tspan7005">KS</tspan></tspan></tspan></text>
<text
     class="TextShape"
     id="text7007"><tspan
       class="TextParagraph"
       font-family="cmr10"
       font-size="353px"
       font-weight="400"
       id="tspan7009"><tspan
         class="TextPosition"
         x="3654"
         y="6195"
         id="tspan7011"><tspan
           fill="rgb(0,0,0)"
           stroke="none"
           id="tspan7013">KY</tspan></tspan></tspan></text>
<text
     class="TextShape"
     id="text7015"><tspan
       class="TextParagraph"
       font-family="cmr10"
       font-size="353px"
       font-weight="400"
       id="tspan7017"><tspan
         class="TextPosition"
         x="4244"
         y="5648"
         id="tspan7019"><tspan
           fill="rgb(0,0,0)"
           stroke="none"
           id="tspan7021">LA</tspan></tspan></tspan></text>
<text
     class="TextShape"
     id="text7023"><tspan
       class="TextParagraph"
       font-family="cmr10"
       font-size="353px"
       font-weight="400"
       id="tspan7025"><tspan
         class="TextPosition"
         x="3885"
         y="7481"
         id="tspan7027"><tspan
           fill="rgb(0,0,0)"
           stroke="none"
           id="tspan7029">MA</tspan></tspan></tspan></text>
<text
     class="TextShape"
     id="text7031"><tspan
       class="TextParagraph"
       font-family="cmr10"
       font-size="353px"
       font-weight="400"
       id="tspan7033"><tspan
         class="TextPosition"
         x="3336"
         y="6645"
         id="tspan7035"><tspan
           fill="rgb(0,0,0)"
           stroke="none"
           id="tspan7037">MD</tspan></tspan></tspan></text>
<text
     class="TextShape"
     id="text7039"><tspan
       class="TextParagraph"
       font-family="cmr10"
       font-size="353px"
       font-weight="400"
       id="tspan7041"><tspan
         class="TextPosition"
         x="3846"
         y="2952"
         id="tspan7043"><tspan
           fill="rgb(0,0,0)"
           stroke="none"
           id="tspan7045">MI</tspan></tspan></tspan></text>
<text
     class="TextShape"
     id="text7047"><tspan
       class="TextParagraph"
       font-family="cmr10"
       font-size="353px"
       font-weight="400"
       id="tspan7049"><tspan
         class="TextPosition"
         x="4135"
         y="7494"
         id="tspan7051"><tspan
           fill="rgb(0,0,0)"
           stroke="none"
           id="tspan7053">MN</tspan></tspan></tspan></text>
<text
     class="TextShape"
     id="text7055"><tspan
       class="TextParagraph"
       font-family="cmr10"
       font-size="353px"
       font-weight="400"
       id="tspan7057"><tspan
         class="TextPosition"
         x="3838"
         y="5971"
         id="tspan7059"><tspan
           fill="rgb(0,0,0)"
           stroke="none"
           id="tspan7061">MO</tspan></tspan></tspan></text>
<text
     class="TextShape"
     id="text7063"><tspan
       class="TextParagraph"
       font-family="cmr10"
       font-size="353px"
       font-weight="400"
       id="tspan7065"><tspan
         class="TextPosition"
         x="3778"
         y="7434"
         id="tspan7067"><tspan
           fill="rgb(0,0,0)"
           stroke="none"
           id="tspan7069">MS</tspan></tspan></tspan></text>
<text
     class="TextShape"
     id="text7071"><tspan
       class="TextParagraph"
       font-family="cmr10"
       font-size="353px"
       font-weight="400"
       id="tspan7073"><tspan
         class="TextPosition"
         x="3062"
         y="2989"
         id="tspan7075"><tspan
           fill="rgb(0,0,0)"
           stroke="none"
           id="tspan7077">NC</tspan></tspan></tspan></text>
<text
     class="TextShape"
     id="text7079"><tspan
       class="TextParagraph"
       font-family="cmr10"
       font-size="353px"
       font-weight="400"
       id="tspan7081"><tspan
         class="TextPosition"
         x="5026"
         y="6448"
         id="tspan7083"><tspan
           fill="rgb(0,0,0)"
           stroke="none"
           id="tspan7085">NE</tspan></tspan></tspan></text>
<text
     class="TextShape"
     id="text7087"><tspan
       class="TextParagraph"
       font-family="cmr10"
       font-size="353px"
       font-weight="400"
       id="tspan7089"><tspan
         class="TextPosition"
         x="3492"
         y="5278"
         id="tspan7091"><tspan
           fill="rgb(0,0,0)"
           stroke="none"
           id="tspan7093">NJ</tspan></tspan></tspan></text>
<text
     class="TextShape"
     id="text7095"><tspan
       class="TextParagraph"
       font-family="cmr10"
       font-size="353px"
       font-weight="400"
       id="tspan7097"><tspan
         class="TextPosition"
         x="9491"
         y="7345"
         id="tspan7099"><tspan
           fill="rgb(0,0,0)"
           stroke="none"
           id="tspan7101">NM</tspan></tspan></tspan></text>
<text
     class="TextShape"
     id="text7103"><tspan
       class="TextParagraph"
       font-family="cmr10"
       font-size="353px"
       font-weight="400"
       id="tspan7105"><tspan
         class="TextPosition"
         x="7187"
         y="7485"
         id="tspan7107"><tspan
           fill="rgb(0,0,0)"
           stroke="none"
           id="tspan7109">NV</tspan></tspan></tspan></text>
<text
     class="TextShape"
     id="text7111"><tspan
       class="TextParagraph"
       font-family="cmr10"
       font-size="353px"
       font-weight="400"
       id="tspan7113"><tspan
         class="TextPosition"
         x="4218"
         y="5007"
         id="tspan7115"><tspan
           fill="rgb(0,0,0)"
           stroke="none"
           id="tspan7117">NY</tspan></tspan></tspan></text>
<text
     class="TextShape"
     id="text7119"><tspan
       class="TextParagraph"
       font-family="cmr10"
       font-size="353px"
       font-weight="400"
       id="tspan7121"><tspan
         class="TextPosition"
         x="3543"
         y="2004"
         id="tspan7123"><tspan
           fill="rgb(0,0,0)"
           stroke="none"
           id="tspan7125">OH</tspan></tspan></tspan></text>
<text
     class="TextShape"
     id="text7127"><tspan
       class="TextParagraph"
       font-family="cmr10"
       font-size="353px"
       font-weight="400"
       id="tspan7129"><tspan
         class="TextPosition"
         x="4372"
         y="6296"
         id="tspan7131"><tspan
           fill="rgb(0,0,0)"
           stroke="none"
           id="tspan7133">OK</tspan></tspan></tspan></text>
<text
     class="TextShape"
     id="text7135"><tspan
       class="TextParagraph"
       font-family="cmr10"
       font-size="353px"
       font-weight="400"
       id="tspan7137"><tspan
         class="TextPosition"
         x="5607"
         y="6357"
         id="tspan7139"><tspan
           fill="rgb(0,0,0)"
           stroke="none"
           id="tspan7141">OR</tspan></tspan></tspan></text>
<text
     class="TextShape"
     id="text7143"><tspan
       class="TextParagraph"
       font-family="cmr10"
       font-size="353px"
       font-weight="400"
       id="tspan7145"><tspan
         class="TextPosition"
         x="3218"
         y="463"
         id="tspan7147"><tspan
           fill="rgb(0,0,0)"
           stroke="none"
           id="tspan7149">PA</tspan></tspan></tspan></text>
<text
     class="TextShape"
     id="text7151"><tspan
       class="TextParagraph"
       font-family="cmr10"
       font-size="353px"
       font-weight="400"
       id="tspan7153"><tspan
         class="TextPosition"
         x="3852"
         y="5458"
         id="tspan7155"><tspan
           fill="rgb(0,0,0)"
           stroke="none"
           id="tspan7157">SC</tspan></tspan></tspan></text>
<text
     class="TextShape"
     id="text7159"><tspan
       class="TextParagraph"
       font-family="cmr10"
       font-size="353px"
       font-weight="400"
       id="tspan7161"><tspan
         class="TextPosition"
         x="3915"
         y="7317"
         id="tspan7163"><tspan
           fill="rgb(0,0,0)"
           stroke="none"
           id="tspan7165">TN</tspan></tspan></tspan></text>
<text
     class="TextShape"
     id="text7167"><tspan
       class="TextParagraph"
       font-family="cmr10"
       font-size="353px"
       font-weight="400"
       id="tspan7169"><tspan
         class="TextPosition"
         x="3561"
         y="5505"
         id="tspan7171"><tspan
           fill="rgb(0,0,0)"
           stroke="none"
           id="tspan7173">TX</tspan></tspan></tspan></text>
<text
     class="TextShape"
     id="text7175"><tspan
       class="TextParagraph"
       font-family="cmr10"
       font-size="353px"
       font-weight="400"
       id="tspan7177"><tspan
         class="TextPosition"
         x="5957"
         y="6967"
         id="tspan7179"><tspan
           fill="rgb(0,0,0)"
           stroke="none"
           id="tspan7181">UT</tspan></tspan></tspan></text>
<text
     class="TextShape"
     id="text7183"><tspan
       class="TextParagraph"
       font-family="cmr10"
       font-size="353px"
       font-weight="400"
       id="tspan7185"><tspan
         class="TextPosition"
         x="3355"
         y="3738"
         id="tspan7187"><tspan
           fill="rgb(0,0,0)"
           stroke="none"
           id="tspan7189">VA</tspan></tspan></tspan></text>
<text
     class="TextShape"
     id="text7191"><tspan
       class="TextParagraph"
       font-family="cmr10"
       font-size="353px"
       font-weight="400"
       id="tspan7193"><tspan
         class="TextPosition"
         x="4651"
         y="7330"
         id="tspan7195"><tspan
           fill="rgb(0,0,0)"
           stroke="none"
           id="tspan7197">WA</tspan></tspan></tspan></text>
<text
     class="TextShape"
     id="text7199"><tspan
       class="TextParagraph"
       font-family="cmr10"
       font-size="353px"
       font-weight="400"
       id="tspan7201"><tspan
         class="TextPosition"
         x="6538"
         y="5664"
         id="tspan7203"><tspan
           fill="rgb(0,0,0)"
           stroke="none"
           id="tspan7205">WI</tspan></tspan></tspan></text>
<text
     class="TextShape"
     id="text7207"><tspan
       class="TextParagraph"
       font-family="cmr10"
       font-size="353px"
       font-weight="400"
       id="tspan7209"><tspan
         class="TextPosition"
         x="2886"
         y="7357"
         id="tspan7211"><tspan
           fill="rgb(0,0,0)"
           stroke="none"
           id="tspan7213">WV</tspan></tspan></tspan></text>
<text
     class="TextShape"
     id="text7215"><tspan
       class="TextParagraph"
       font-family="cmr10"
       font-size="423px"
       font-weight="400"
       id="tspan7217"><tspan
         class="TextPosition"
         x="4097"
         y="9107"
         id="tspan7219"><tspan
           fill="rgb(0,0,0)"
           stroke="none"
           id="tspan7221">Moment of Population</tspan></tspan></tspan></text>
<text
     class="TextShape"
     id="text7223"
     inkscape:transform-center-x="-7.4940945"
     inkscape:transform-center-y="-114.97653"
     x="-8123.7622"
     y="-6305.7378"
     transform="matrix(0,-1,1,0,0,0)"><tspan
       class="TextParagraph"
       font-size="423px"
       font-weight="400"
       id="tspan7225"
       style="font-size:423px;font-weight:400;font-family:cmr10"><tspan
         class="TextPosition"
         x="-7227.7622"
         y="1226.2622"
         transform="matrix(0,-1,1,0,-6636,8428)"
         id="tspan7227"><tspan
           id="tspan7229"
           style="fill:#000000;stroke:none">Efficiency gap by seat share (seats)</tspan></tspan></tspan></text>
</svg>