<?xml version="1.0" encoding="UTF-8" standalone="no"?>
<svg
   xmlns:dc="http://purl.org/dc/elements/1.1/"
   xmlns:cc="http://creativecommons.org/ns#"
   xmlns:rdf="http://www.w3.org/1999/02/22-rdf-syntax-ns#"
   xmlns:svg="http://www.w3.org/2000/svg"
   xmlns="http://www.w3.org/2000/svg"
   xmlns:sodipodi="http://sodipodi.sourceforge.net/DTD/sodipodi-0.dtd"
   xmlns:inkscape="http://www.inkscape.org/namespaces/inkscape"
   width="112mm"
   height="98mm"
   viewBox="0 0 11200 9800"
   version="1.1"
   stroke-width="28.222"
   stroke-linejoin="round"
   xml:space="preserve"
   id="svg5829"
   inkscape:version="0.48.4 r9939"
   sodipodi:docname="sss-moment_area.svg"><metadata
     id="metadata6531"><rdf:RDF><cc:Work
         rdf:about=""><dc:format>image/svg+xml</dc:format><dc:type
           rdf:resource="http://purl.org/dc/dcmitype/StillImage" /></cc:Work></rdf:RDF></metadata><defs
     id="defs6529" /><sodipodi:namedview
     pagecolor="#ffffff"
     bordercolor="#666666"
     borderopacity="1"
     objecttolerance="10"
     gridtolerance="10"
     guidetolerance="10"
     inkscape:pageopacity="0"
     inkscape:pageshadow="2"
     inkscape:window-width="1050"
     inkscape:window-height="1680"
     id="namedview6527"
     showgrid="false"
     inkscape:zoom="2.7185489"
     inkscape:cx="36.50516"
     inkscape:cy="38.150499"
     inkscape:window-x="1600"
     inkscape:window-y="0"
     inkscape:window-maximized="0"
     inkscape:current-layer="svg5829" /><path
     fill="rgb(255,255,255)"
     stroke="none"
     d="M 5609,9759 L 0,9759 0,0 11218,0 11218,9759 5609,9759 Z"
     id="path5831" /><path
     fill="none"
     stroke="rgb(179,179,179)"
     stroke-linejoin="round"
     d="M 6377,7818 L 2133,7818 2133,394 10622,394 10622,7818 6377,7818 Z"
     id="path5833" /><path
     fill="none"
     stroke="rgb(179,179,179)"
     stroke-linejoin="round"
     d="M 2133,7967 L 2133,7817"
     id="path5835" /><path
     fill="none"
     stroke="rgb(179,179,179)"
     stroke-linejoin="round"
     d="M 2133,7967 L 2133,7817"
     id="path5837" /><path
     fill="none"
     stroke="rgb(179,179,179)"
     stroke-linejoin="round"
     d="M 3345,7967 L 3345,7817"
     id="path5839" /><path
     fill="none"
     stroke="rgb(179,179,179)"
     stroke-linejoin="round"
     d="M 3345,7967 L 3345,7817"
     id="path5841" /><path
     fill="none"
     stroke="rgb(179,179,179)"
     stroke-linejoin="round"
     d="M 4558,7967 L 4558,7817"
     id="path5843" /><path
     fill="none"
     stroke="rgb(179,179,179)"
     stroke-linejoin="round"
     d="M 4558,7967 L 4558,7817"
     id="path5845" /><path
     fill="none"
     stroke="rgb(179,179,179)"
     stroke-linejoin="round"
     d="M 5770,7967 L 5770,7817"
     id="path5847" /><path
     fill="none"
     stroke="rgb(179,179,179)"
     stroke-linejoin="round"
     d="M 5770,7967 L 5770,7817"
     id="path5849" /><path
     fill="none"
     stroke="rgb(179,179,179)"
     stroke-linejoin="round"
     d="M 6983,7967 L 6983,7817"
     id="path5851" /><path
     fill="none"
     stroke="rgb(179,179,179)"
     stroke-linejoin="round"
     d="M 6983,7967 L 6983,7817"
     id="path5853" /><path
     fill="none"
     stroke="rgb(179,179,179)"
     stroke-linejoin="round"
     d="M 8196,7967 L 8196,7817"
     id="path5855" /><path
     fill="none"
     stroke="rgb(179,179,179)"
     stroke-linejoin="round"
     d="M 8196,7967 L 8196,7817"
     id="path5857" /><path
     fill="none"
     stroke="rgb(179,179,179)"
     stroke-linejoin="round"
     d="M 9409,7967 L 9409,7817"
     id="path5859" /><path
     fill="none"
     stroke="rgb(179,179,179)"
     stroke-linejoin="round"
     d="M 9409,7967 L 9409,7817"
     id="path5861" /><path
     fill="none"
     stroke="rgb(179,179,179)"
     stroke-linejoin="round"
     d="M 10622,7967 L 10622,7817"
     id="path5863" /><path
     fill="none"
     stroke="rgb(179,179,179)"
     stroke-linejoin="round"
     d="M 10622,7967 L 10622,7817"
     id="path5865" /><path
     fill="none"
     stroke="rgb(179,179,179)"
     stroke-linejoin="round"
     d="M 2133,7817 L 10622,7817"
     id="path5867" /><path
     fill="none"
     stroke="rgb(179,179,179)"
     stroke-linejoin="round"
     d="M 1983,7817 L 2133,7817"
     id="path5869" /><path
     fill="none"
     stroke="rgb(179,179,179)"
     stroke-linejoin="round"
     d="M 1983,7817 L 2133,7817"
     id="path5871" /><path
     fill="none"
     stroke="rgb(179,179,179)"
     stroke-linejoin="round"
     d="M 1983,6992 L 2133,6992"
     id="path5873" /><path
     fill="none"
     stroke="rgb(179,179,179)"
     stroke-linejoin="round"
     d="M 1983,6992 L 2133,6992"
     id="path5875" /><path
     fill="none"
     stroke="rgb(179,179,179)"
     stroke-linejoin="round"
     d="M 1983,6167 L 2133,6167"
     id="path5877" /><path
     fill="none"
     stroke="rgb(179,179,179)"
     stroke-linejoin="round"
     d="M 1983,6167 L 2133,6167"
     id="path5879" /><path
     fill="none"
     stroke="rgb(179,179,179)"
     stroke-linejoin="round"
     d="M 1983,5342 L 2133,5342"
     id="path5881" /><path
     fill="none"
     stroke="rgb(179,179,179)"
     stroke-linejoin="round"
     d="M 1983,5342 L 2133,5342"
     id="path5883" /><path
     fill="none"
     stroke="rgb(179,179,179)"
     stroke-linejoin="round"
     d="M 1983,4518 L 2133,4518"
     id="path5885" /><path
     fill="none"
     stroke="rgb(179,179,179)"
     stroke-linejoin="round"
     d="M 1983,4518 L 2133,4518"
     id="path5887" /><path
     fill="none"
     stroke="rgb(179,179,179)"
     stroke-linejoin="round"
     d="M 1983,3693 L 2133,3693"
     id="path5889" /><path
     fill="none"
     stroke="rgb(179,179,179)"
     stroke-linejoin="round"
     d="M 1983,3693 L 2133,3693"
     id="path5891" /><path
     fill="none"
     stroke="rgb(179,179,179)"
     stroke-linejoin="round"
     d="M 1983,2868 L 2133,2868"
     id="path5893" /><path
     fill="none"
     stroke="rgb(179,179,179)"
     stroke-linejoin="round"
     d="M 1983,2868 L 2133,2868"
     id="path5895" /><path
     fill="none"
     stroke="rgb(179,179,179)"
     stroke-linejoin="round"
     d="M 1983,2043 L 2133,2043"
     id="path5897" /><path
     fill="none"
     stroke="rgb(179,179,179)"
     stroke-linejoin="round"
     d="M 1983,2043 L 2133,2043"
     id="path5899" /><path
     fill="none"
     stroke="rgb(179,179,179)"
     stroke-linejoin="round"
     d="M 1983,1218 L 2133,1218"
     id="path5901" /><path
     fill="none"
     stroke="rgb(179,179,179)"
     stroke-linejoin="round"
     d="M 1983,1218 L 2133,1218"
     id="path5903" /><path
     fill="none"
     stroke="rgb(179,179,179)"
     stroke-linejoin="round"
     d="M 1983,393 L 2133,393"
     id="path5905" /><path
     fill="none"
     stroke="rgb(179,179,179)"
     stroke-linejoin="round"
     d="M 1983,393 L 2133,393"
     id="path5907" /><path
     fill="none"
     stroke="rgb(179,179,179)"
     stroke-linejoin="round"
     d="M 2133,7817 L 2133,393"
     id="path5909" /><path
     fill="rgb(0,69,134)"
     stroke="none"
     d="M 7008,6929 L 7133,7054 7258,6929 7133,6804 7008,6929 Z"
     id="path5911" /><path
     fill="none"
     stroke="rgb(0,69,134)"
     stroke-linejoin="round"
     d="M 7008,6929 L 7133,7054 7258,6929 7133,6804 7008,6929 Z"
     id="path5913" /><path
     fill="rgb(0,69,134)"
     stroke="none"
     d="M 6930,6847 L 7055,6972 7180,6847 7055,6722 6930,6847 Z"
     id="path5915" /><path
     fill="none"
     stroke="rgb(0,69,134)"
     stroke-linejoin="round"
     d="M 6930,6847 L 7055,6972 7180,6847 7055,6722 6930,6847 Z"
     id="path5917" /><path
     fill="rgb(0,69,134)"
     stroke="none"
     d="M 8054,5672 L 8179,5797 8304,5672 8179,5547 8054,5672 Z"
     id="path5919" /><path
     fill="none"
     stroke="rgb(0,69,134)"
     stroke-linejoin="round"
     d="M 8054,5672 L 8179,5797 8304,5672 8179,5547 8054,5672 Z"
     id="path5921" /><path
     fill="rgb(0,69,134)"
     stroke="none"
     d="M 6621,5794 L 6746,5919 6871,5794 6746,5669 6621,5794 Z"
     id="path5923" /><path
     fill="none"
     stroke="rgb(0,69,134)"
     stroke-linejoin="round"
     d="M 6621,5794 L 6746,5919 6871,5794 6746,5669 6621,5794 Z"
     id="path5925" /><path
     fill="rgb(0,69,134)"
     stroke="none"
     d="M 6272,7320 L 6397,7445 6522,7320 6397,7195 6272,7320 Z"
     id="path5927" /><path
     fill="none"
     stroke="rgb(0,69,134)"
     stroke-linejoin="round"
     d="M 6272,7320 L 6397,7445 6522,7320 6397,7195 6272,7320 Z"
     id="path5929" /><path
     fill="rgb(0,69,134)"
     stroke="none"
     d="M 5990,5897 L 6115,6022 6240,5897 6115,5772 5990,5897 Z"
     id="path5931" /><path
     fill="none"
     stroke="rgb(0,69,134)"
     stroke-linejoin="round"
     d="M 5990,5897 L 6115,6022 6240,5897 6115,5772 5990,5897 Z"
     id="path5933" /><path
     fill="rgb(0,69,134)"
     stroke="none"
     d="M 6886,4746 L 7011,4871 7136,4746 7011,4621 6886,4746 Z"
     id="path5935" /><path
     fill="none"
     stroke="rgb(0,69,134)"
     stroke-linejoin="round"
     d="M 6886,4746 L 7011,4871 7136,4746 7011,4621 6886,4746 Z"
     id="path5937" /><path
     fill="rgb(0,69,134)"
     stroke="none"
     d="M 8357,6856 L 8482,6981 8607,6856 8482,6731 8357,6856 Z"
     id="path5939" /><path
     fill="none"
     stroke="rgb(0,69,134)"
     stroke-linejoin="round"
     d="M 8357,6856 L 8482,6981 8607,6856 8482,6731 8357,6856 Z"
     id="path5941" /><path
     fill="rgb(0,69,134)"
     stroke="none"
     d="M 6953,7614 L 7078,7739 7203,7614 7078,7489 6953,7614 Z"
     id="path5943" /><path
     fill="none"
     stroke="rgb(0,69,134)"
     stroke-linejoin="round"
     d="M 6953,7614 L 7078,7739 7203,7614 7078,7489 6953,7614 Z"
     id="path5945" /><path
     fill="rgb(0,69,134)"
     stroke="none"
     d="M 5021,6263 L 5146,6388 5271,6263 5146,6138 5021,6263 Z"
     id="path5947" /><path
     fill="none"
     stroke="rgb(0,69,134)"
     stroke-linejoin="round"
     d="M 5021,6263 L 5146,6388 5271,6263 5146,6138 5021,6263 Z"
     id="path5949" /><path
     fill="rgb(0,69,134)"
     stroke="none"
     d="M 9444,4937 L 9569,5062 9694,4937 9569,4813 9444,4937 Z"
     id="path5951" /><path
     fill="none"
     stroke="rgb(0,69,134)"
     stroke-linejoin="round"
     d="M 9444,4937 L 9569,5062 9694,4937 9569,4813 9444,4937 Z"
     id="path5953" /><path
     fill="rgb(0,69,134)"
     stroke="none"
     d="M 6859,7272 L 6984,7397 7109,7272 6984,7147 6859,7272 Z"
     id="path5955" /><path
     fill="none"
     stroke="rgb(0,69,134)"
     stroke-linejoin="round"
     d="M 6859,7272 L 6984,7397 7109,7272 6984,7147 6859,7272 Z"
     id="path5957" /><path
     fill="rgb(0,69,134)"
     stroke="none"
     d="M 5409,6499 L 5534,6624 5658,6499 5534,6374 5409,6499 Z"
     id="path5959" /><path
     fill="none"
     stroke="rgb(0,69,134)"
     stroke-linejoin="round"
     d="M 5409,6499 L 5534,6624 5658,6499 5534,6374 5409,6499 Z"
     id="path5961" /><path
     fill="rgb(0,69,134)"
     stroke="none"
     d="M 5312,5951 L 5437,6076 5562,5951 5437,5826 5312,5951 Z"
     id="path5963" /><path
     fill="none"
     stroke="rgb(0,69,134)"
     stroke-linejoin="round"
     d="M 5312,5951 L 5437,6076 5562,5951 5437,5826 5312,5951 Z"
     id="path5965" /><path
     fill="rgb(0,69,134)"
     stroke="none"
     d="M 5794,7784 L 5919,7909 6044,7784 5919,7659 5794,7784 Z"
     id="path5967" /><path
     fill="none"
     stroke="rgb(0,69,134)"
     stroke-linejoin="round"
     d="M 5794,7784 L 5919,7909 6044,7784 5919,7659 5794,7784 Z"
     id="path5969" /><path
     fill="rgb(0,69,134)"
     stroke="none"
     d="M 2879,6948 L 3004,7073 3129,6948 3004,6823 2879,6948 Z"
     id="path5971" /><path
     fill="none"
     stroke="rgb(0,69,134)"
     stroke-linejoin="round"
     d="M 2879,6948 L 3004,7073 3129,6948 3004,6823 2879,6948 Z"
     id="path5973" /><path
     fill="rgb(0,69,134)"
     stroke="none"
     d="M 4713,3256 L 4838,3381 4963,3256 4838,3131 4713,3256 Z"
     id="path5975" /><path
     fill="none"
     stroke="rgb(0,69,134)"
     stroke-linejoin="round"
     d="M 4713,3256 L 4838,3381 4963,3256 4838,3131 4713,3256 Z"
     id="path5977" /><path
     fill="rgb(0,69,134)"
     stroke="none"
     d="M 6946,7797 L 7071,7922 7196,7797 7071,7672 6946,7797 Z"
     id="path5979" /><path
     fill="none"
     stroke="rgb(0,69,134)"
     stroke-linejoin="round"
     d="M 6946,7797 L 7071,7922 7196,7797 7071,7672 6946,7797 Z"
     id="path5981" /><path
     fill="rgb(0,69,134)"
     stroke="none"
     d="M 7331,6275 L 7456,6400 7581,6275 7456,6150 7331,6275 Z"
     id="path5983" /><path
     fill="none"
     stroke="rgb(0,69,134)"
     stroke-linejoin="round"
     d="M 7331,6275 L 7456,6400 7581,6275 7456,6150 7331,6275 Z"
     id="path5985" /><path
     fill="rgb(0,69,134)"
     stroke="none"
     d="M 7978,7737 L 8103,7862 8228,7737 8103,7612 7978,7737 Z"
     id="path5987" /><path
     fill="none"
     stroke="rgb(0,69,134)"
     stroke-linejoin="round"
     d="M 7978,7737 L 8103,7862 8228,7737 8103,7612 7978,7737 Z"
     id="path5989" /><path
     fill="rgb(0,69,134)"
     stroke="none"
     d="M 3865,3293 L 3990,3418 4115,3293 3990,3168 3865,3293 Z"
     id="path5991" /><path
     fill="none"
     stroke="rgb(0,69,134)"
     stroke-linejoin="round"
     d="M 3865,3293 L 3990,3418 4115,3293 3990,3168 3865,3293 Z"
     id="path5993" /><path
     fill="rgb(0,69,134)"
     stroke="none"
     d="M 8868,6751 L 8993,6876 9118,6751 8993,6626 8868,6751 Z"
     id="path5995" /><path
     fill="none"
     stroke="rgb(0,69,134)"
     stroke-linejoin="round"
     d="M 8868,6751 L 8993,6876 9118,6751 8993,6626 8868,6751 Z"
     id="path5997" /><path
     fill="rgb(0,69,134)"
     stroke="none"
     d="M 5885,5581 L 6010,5706 6135,5581 6010,5456 5885,5581 Z"
     id="path5999" /><path
     fill="none"
     stroke="rgb(0,69,134)"
     stroke-linejoin="round"
     d="M 5885,5581 L 6010,5706 6135,5581 6010,5456 5885,5581 Z"
     id="path6001" /><path
     fill="rgb(0,69,134)"
     stroke="none"
     d="M 6650,7648 L 6775,7773 6900,7648 6775,7523 6650,7648 Z"
     id="path6003" /><path
     fill="none"
     stroke="rgb(0,69,134)"
     stroke-linejoin="round"
     d="M 6650,7648 L 6775,7773 6900,7648 6775,7523 6650,7648 Z"
     id="path6005" /><path
     fill="rgb(0,69,134)"
     stroke="none"
     d="M 8042,7788 L 8167,7913 8292,7788 8167,7663 8042,7788 Z"
     id="path6007" /><path
     fill="none"
     stroke="rgb(0,69,134)"
     stroke-linejoin="round"
     d="M 8042,7788 L 8167,7913 8292,7788 8167,7663 8042,7788 Z"
     id="path6009" /><path
     fill="rgb(0,69,134)"
     stroke="none"
     d="M 6843,5311 L 6968,5436 7093,5311 6968,5186 6843,5311 Z"
     id="path6011" /><path
     fill="none"
     stroke="rgb(0,69,134)"
     stroke-linejoin="round"
     d="M 6843,5311 L 6968,5436 7093,5311 6968,5186 6843,5311 Z"
     id="path6013" /><path
     fill="rgb(0,69,134)"
     stroke="none"
     d="M 5028,2308 L 5153,2433 5278,2308 5153,2183 5028,2308 Z"
     id="path6015" /><path
     fill="none"
     stroke="rgb(0,69,134)"
     stroke-linejoin="round"
     d="M 5028,2308 L 5153,2433 5278,2308 5153,2183 5028,2308 Z"
     id="path6017" /><path
     fill="rgb(0,69,134)"
     stroke="none"
     d="M 5882,6599 L 6007,6724 6132,6599 6007,6474 5882,6599 Z"
     id="path6019" /><path
     fill="none"
     stroke="rgb(0,69,134)"
     stroke-linejoin="round"
     d="M 5882,6599 L 6007,6724 6132,6599 6007,6474 5882,6599 Z"
     id="path6021" /><path
     fill="rgb(0,69,134)"
     stroke="none"
     d="M 7269,6661 L 7394,6786 7519,6661 7394,6536 7269,6661 Z"
     id="path6023" /><path
     fill="none"
     stroke="rgb(0,69,134)"
     stroke-linejoin="round"
     d="M 7269,6661 L 7394,6786 7519,6661 7394,6536 7269,6661 Z"
     id="path6025" /><path
     fill="rgb(0,69,134)"
     stroke="none"
     d="M 3857,767 L 3982,892 4107,767 3982,642 3857,767 Z"
     id="path6027" /><path
     fill="none"
     stroke="rgb(0,69,134)"
     stroke-linejoin="round"
     d="M 3857,767 L 3982,892 4107,767 3982,642 3857,767 Z"
     id="path6029" /><path
     fill="rgb(0,69,134)"
     stroke="none"
     d="M 6827,5762 L 6952,5887 7077,5762 6952,5637 6827,5762 Z"
     id="path6031" /><path
     fill="none"
     stroke="rgb(0,69,134)"
     stroke-linejoin="round"
     d="M 6827,5762 L 6952,5887 7077,5762 6952,5637 6827,5762 Z"
     id="path6033" /><path
     fill="rgb(0,69,134)"
     stroke="none"
     d="M 6420,7620 L 6545,7745 6670,7620 6545,7495 6420,7620 Z"
     id="path6035" /><path
     fill="none"
     stroke="rgb(0,69,134)"
     stroke-linejoin="round"
     d="M 6420,7620 L 6545,7745 6670,7620 6545,7495 6420,7620 Z"
     id="path6037" /><path
     fill="rgb(0,69,134)"
     stroke="none"
     d="M 5753,5808 L 5878,5933 6003,5808 5878,5683 5753,5808 Z"
     id="path6039" /><path
     fill="none"
     stroke="rgb(0,69,134)"
     stroke-linejoin="round"
     d="M 5753,5808 L 5878,5933 6003,5808 5878,5683 5753,5808 Z"
     id="path6041" /><path
     fill="rgb(0,69,134)"
     stroke="none"
     d="M 5747,7270 L 5872,7395 5997,7270 5872,7145 5747,7270 Z"
     id="path6043" /><path
     fill="none"
     stroke="rgb(0,69,134)"
     stroke-linejoin="round"
     d="M 5747,7270 L 5872,7395 5997,7270 5872,7145 5747,7270 Z"
     id="path6045" /><path
     fill="rgb(0,69,134)"
     stroke="none"
     d="M 4705,4041 L 4830,4166 4955,4041 4830,3916 4705,4041 Z"
     id="path6047" /><path
     fill="none"
     stroke="rgb(0,69,134)"
     stroke-linejoin="round"
     d="M 4705,4041 L 4830,4166 4955,4041 4830,3916 4705,4041 Z"
     id="path6049" /><path
     fill="rgb(0,69,134)"
     stroke="none"
     d="M 6800,7633 L 6925,7758 7050,7633 6925,7508 6800,7633 Z"
     id="path6051" /><path
     fill="none"
     stroke="rgb(0,69,134)"
     stroke-linejoin="round"
     d="M 6800,7633 L 6925,7758 7050,7633 6925,7508 6800,7633 Z"
     id="path6053" /><path
     fill="rgb(0,69,134)"
     stroke="none"
     d="M 6859,5967 L 6984,6092 7109,5967 6984,5842 6859,5967 Z"
     id="path6055" /><path
     fill="none"
     stroke="rgb(0,69,134)"
     stroke-linejoin="round"
     d="M 6859,5967 L 6984,6092 7109,5967 6984,5842 6859,5967 Z"
     id="path6057" /><path
     fill="rgb(0,69,134)"
     stroke="none"
     d="M 2920,7660 L 3045,7785 3170,7660 3045,7535 2920,7660 Z"
     id="path6059" /><path
     fill="none"
     stroke="rgb(0,69,134)"
     stroke-linejoin="round"
     d="M 2920,7660 L 3045,7785 3170,7660 3045,7535 2920,7660 Z"
     id="path6061" /><text
     class="TextShape"
     id="text6063"><tspan
       class="TextParagraph"
       font-family="cmr10"
       font-size="388px"
       font-weight="400"
       id="tspan6065"><tspan
         class="TextPosition"
         x="1868"
         y="8358"
         id="tspan6067"><tspan
           fill="rgb(0,0,0)"
           stroke="none"
           id="tspan6069">0.6</tspan></tspan></tspan></text>
<text
     class="TextShape"
     id="text6071"><tspan
       class="TextParagraph"
       font-family="cmr10"
       font-size="388px"
       font-weight="400"
       id="tspan6073"><tspan
         class="TextPosition"
         x="2974"
         y="8358"
         id="tspan6075"><tspan
           fill="rgb(0,0,0)"
           stroke="none"
           id="tspan6077">0.65</tspan></tspan></tspan></text>
<text
     class="TextShape"
     id="text6079"><tspan
       class="TextParagraph"
       font-family="cmr10"
       font-size="388px"
       font-weight="400"
       id="tspan6081"><tspan
         class="TextPosition"
         x="4293"
         y="8358"
         id="tspan6083"><tspan
           fill="rgb(0,0,0)"
           stroke="none"
           id="tspan6085">0.7</tspan></tspan></tspan></text>
<text
     class="TextShape"
     id="text6087"><tspan
       class="TextParagraph"
       font-family="cmr10"
       font-size="388px"
       font-weight="400"
       id="tspan6089"><tspan
         class="TextPosition"
         x="5400"
         y="8358"
         id="tspan6091"><tspan
           fill="rgb(0,0,0)"
           stroke="none"
           id="tspan6093">0.75</tspan></tspan></tspan></text>
<text
     class="TextShape"
     id="text6095"><tspan
       class="TextParagraph"
       font-family="cmr10"
       font-size="388px"
       font-weight="400"
       id="tspan6097"><tspan
         class="TextPosition"
         x="6719"
         y="8358"
         id="tspan6099"><tspan
           fill="rgb(0,0,0)"
           stroke="none"
           id="tspan6101">0.8</tspan></tspan></tspan></text>
<text
     class="TextShape"
     id="text6103"><tspan
       class="TextParagraph"
       font-family="cmr10"
       font-size="388px"
       font-weight="400"
       id="tspan6105"><tspan
         class="TextPosition"
         x="7826"
         y="8358"
         id="tspan6107"><tspan
           fill="rgb(0,0,0)"
           stroke="none"
           id="tspan6109">0.85</tspan></tspan></tspan></text>
<text
     class="TextShape"
     id="text6111"><tspan
       class="TextParagraph"
       font-family="cmr10"
       font-size="388px"
       font-weight="400"
       id="tspan6113"><tspan
         class="TextPosition"
         x="9145"
         y="8358"
         id="tspan6115"><tspan
           fill="rgb(0,0,0)"
           stroke="none"
           id="tspan6117">0.9</tspan></tspan></tspan></text>
<text
     class="TextShape"
     id="text6119"><tspan
       class="TextParagraph"
       font-family="cmr10"
       font-size="388px"
       font-weight="400"
       id="tspan6121"><tspan
         class="TextPosition"
         x="10252"
         y="8358"
         id="tspan6123"><tspan
           fill="rgb(0,0,0)"
           stroke="none"
           id="tspan6125">0.95</tspan></tspan></tspan></text>
<text
     class="TextShape"
     id="text6127"><tspan
       class="TextParagraph"
       font-family="cmr10"
       font-size="388px"
       font-weight="400"
       id="tspan6129"><tspan
         class="TextPosition"
         x="1671"
         y="7911"
         id="tspan6131"><tspan
           fill="rgb(0,0,0)"
           stroke="none"
           id="tspan6133">0</tspan></tspan></tspan></text>
<text
     class="TextShape"
     id="text6135"><tspan
       class="TextParagraph"
       font-family="cmr10"
       font-size="388px"
       font-weight="400"
       id="tspan6137"><tspan
         class="TextPosition"
         x="1354"
         y="7086"
         id="tspan6139"><tspan
           fill="rgb(0,0,0)"
           stroke="none"
           id="tspan6141">0.5</tspan></tspan></tspan></text>
<text
     class="TextShape"
     id="text6143"><tspan
       class="TextParagraph"
       font-family="cmr10"
       font-size="388px"
       font-weight="400"
       id="tspan6145"><tspan
         class="TextPosition"
         x="1671"
         y="6261"
         id="tspan6147"><tspan
           fill="rgb(0,0,0)"
           stroke="none"
           id="tspan6149">1</tspan></tspan></tspan></text>
<text
     class="TextShape"
     id="text6151"><tspan
       class="TextParagraph"
       font-family="cmr10"
       font-size="388px"
       font-weight="400"
       id="tspan6153"><tspan
         class="TextPosition"
         x="1354"
         y="5436"
         id="tspan6155"><tspan
           fill="rgb(0,0,0)"
           stroke="none"
           id="tspan6157">1.5</tspan></tspan></tspan></text>
<text
     class="TextShape"
     id="text6159"><tspan
       class="TextParagraph"
       font-family="cmr10"
       font-size="388px"
       font-weight="400"
       id="tspan6161"><tspan
         class="TextPosition"
         x="1671"
         y="4611"
         id="tspan6163"><tspan
           fill="rgb(0,0,0)"
           stroke="none"
           id="tspan6165">2</tspan></tspan></tspan></text>
<text
     class="TextShape"
     id="text6167"><tspan
       class="TextParagraph"
       font-family="cmr10"
       font-size="388px"
       font-weight="400"
       id="tspan6169"><tspan
         class="TextPosition"
         x="1354"
         y="3786"
         id="tspan6171"><tspan
           fill="rgb(0,0,0)"
           stroke="none"
           id="tspan6173">2.5</tspan></tspan></tspan></text>
<text
     class="TextShape"
     id="text6175"><tspan
       class="TextParagraph"
       font-family="cmr10"
       font-size="388px"
       font-weight="400"
       id="tspan6177"><tspan
         class="TextPosition"
         x="1671"
         y="2961"
         id="tspan6179"><tspan
           fill="rgb(0,0,0)"
           stroke="none"
           id="tspan6181">3</tspan></tspan></tspan></text>
<text
     class="TextShape"
     id="text6183"><tspan
       class="TextParagraph"
       font-family="cmr10"
       font-size="388px"
       font-weight="400"
       id="tspan6185"><tspan
         class="TextPosition"
         x="1354"
         y="2136"
         id="tspan6187"><tspan
           fill="rgb(0,0,0)"
           stroke="none"
           id="tspan6189">3.5</tspan></tspan></tspan></text>
<text
     class="TextShape"
     id="text6191"><tspan
       class="TextParagraph"
       font-family="cmr10"
       font-size="388px"
       font-weight="400"
       id="tspan6193"><tspan
         class="TextPosition"
         x="1671"
         y="1311"
         id="tspan6195"><tspan
           fill="rgb(0,0,0)"
           stroke="none"
           id="tspan6197">4</tspan></tspan></tspan></text>
<text
     class="TextShape"
     id="text6199"><tspan
       class="TextParagraph"
       font-family="cmr10"
       font-size="388px"
       font-weight="400"
       id="tspan6201"><tspan
         class="TextPosition"
         x="1354"
         y="486"
         id="tspan6203"><tspan
           fill="rgb(0,0,0)"
           stroke="none"
           id="tspan6205">4.5</tspan></tspan></tspan></text>
<text
     class="TextShape"
     id="text6207"><tspan
       class="TextParagraph"
       font-family="cmr10"
       font-size="353px"
       font-weight="400"
       id="tspan6209"><tspan
         class="TextPosition"
         x="6896"
         y="6625"
         id="tspan6211"><tspan
           fill="rgb(0,0,0)"
           stroke="none"
           id="tspan6213">AL</tspan></tspan></tspan></text>
<text
     class="TextShape"
     id="text6215"><tspan
       class="TextParagraph"
       font-family="cmr10"
       font-size="353px"
       font-weight="400"
       id="tspan6217"><tspan
         class="TextPosition"
         x="6791"
         y="6543"
         id="tspan6219"><tspan
           fill="rgb(0,0,0)"
           stroke="none"
           id="tspan6221">AR</tspan></tspan></tspan></text>
<text
     class="TextShape"
     id="text6223"><tspan
       class="TextParagraph"
       font-family="cmr10"
       font-size="353px"
       font-weight="400"
       id="tspan6225"><tspan
         class="TextPosition"
         x="7942"
         y="5368"
         id="tspan6227"><tspan
           fill="rgb(0,0,0)"
           stroke="none"
           id="tspan6229">AZ</tspan></tspan></tspan></text>
<text
     class="TextShape"
     id="text6231"><tspan
       class="TextParagraph"
       font-family="cmr10"
       font-size="353px"
       font-weight="400"
       id="tspan6233"><tspan
         class="TextPosition"
         x="6495"
         y="5490"
         id="tspan6235"><tspan
           fill="rgb(0,0,0)"
           stroke="none"
           id="tspan6237">CA</tspan></tspan></tspan></text>
<text
     class="TextShape"
     id="text6239"><tspan
       class="TextParagraph"
       font-family="cmr10"
       font-size="353px"
       font-weight="400"
       id="tspan6241"><tspan
         class="TextPosition"
         x="6146"
         y="7016"
         id="tspan6243"><tspan
           fill="rgb(0,0,0)"
           stroke="none"
           id="tspan6245">CO</tspan></tspan></tspan></text>
<text
     class="TextShape"
     id="text6247"><tspan
       class="TextParagraph"
       font-family="cmr10"
       font-size="353px"
       font-weight="400"
       id="tspan6249"><tspan
         class="TextPosition"
         x="5878"
         y="5593"
         id="tspan6251"><tspan
           fill="rgb(0,0,0)"
           stroke="none"
           id="tspan6253">CT</tspan></tspan></tspan></text>
<text
     class="TextShape"
     id="text6255"><tspan
       class="TextParagraph"
       font-family="cmr10"
       font-size="353px"
       font-weight="400"
       id="tspan6257"><tspan
         class="TextPosition"
         x="6800"
         y="4442"
         id="tspan6259"><tspan
           fill="rgb(0,0,0)"
           stroke="none"
           id="tspan6261">FL</tspan></tspan></tspan></text>
<text
     class="TextShape"
     id="text6263"><tspan
       class="TextParagraph"
       font-family="cmr10"
       font-size="353px"
       font-weight="400"
       id="tspan6265"><tspan
         class="TextPosition"
         x="8218"
         y="6552"
         id="tspan6267"><tspan
           fill="rgb(0,0,0)"
           stroke="none"
           id="tspan6269">GA</tspan></tspan></tspan></text>
<text
     class="TextShape"
     id="text6271"><tspan
       class="TextParagraph"
       font-family="cmr10"
       font-size="353px"
       font-weight="400"
       id="tspan6273"><tspan
         class="TextPosition"
         x="6880"
         y="7310"
         id="tspan6275"><tspan
           fill="rgb(0,0,0)"
           stroke="none"
           id="tspan6277">IA</tspan></tspan></tspan></text>
<text
     class="TextShape"
     id="text6279"><tspan
       class="TextParagraph"
       font-family="cmr10"
       font-size="353px"
       font-weight="400"
       id="tspan6281"><tspan
         class="TextPosition"
         x="4974"
         y="5959"
         id="tspan6283"><tspan
           fill="rgb(0,0,0)"
           stroke="none"
           id="tspan6285">IL</tspan></tspan></tspan></text>
<text
     class="TextShape"
     id="text6287"><tspan
       class="TextParagraph"
       font-family="cmr10"
       font-size="353px"
       font-weight="400"
       id="tspan6289"><tspan
         class="TextPosition"
         x="9371"
         y="4634"
         id="tspan6291"><tspan
           fill="rgb(0,0,0)"
           stroke="none"
           id="tspan6293">IN</tspan></tspan></tspan></text>
<text
     class="TextShape"
     id="text6295"><tspan
       class="TextParagraph"
       font-family="cmr10"
       font-size="353px"
       font-weight="400"
       id="tspan6297"><tspan
         class="TextPosition"
         x="6760"
         y="6968"
         id="tspan6299"><tspan
           fill="rgb(0,0,0)"
           stroke="none"
           id="tspan6301">KS</tspan></tspan></tspan></text>
<text
     class="TextShape"
     id="text6303"><tspan
       class="TextParagraph"
       font-family="cmr10"
       font-size="353px"
       font-weight="400"
       id="tspan6305"><tspan
         class="TextPosition"
         x="5269"
         y="6195"
         id="tspan6307"><tspan
           fill="rgb(0,0,0)"
           stroke="none"
           id="tspan6309">KY</tspan></tspan></tspan></text>
<text
     class="TextShape"
     id="text6311"><tspan
       class="TextParagraph"
       font-family="cmr10"
       font-size="353px"
       font-weight="400"
       id="tspan6313"><tspan
         class="TextPosition"
         x="5199"
         y="5647"
         id="tspan6315"><tspan
           fill="rgb(0,0,0)"
           stroke="none"
           id="tspan6317">LA</tspan></tspan></tspan></text>
<text
     class="TextShape"
     id="text6319"><tspan
       class="TextParagraph"
       font-family="cmr10"
       font-size="353px"
       font-weight="400"
       id="tspan6321"><tspan
         class="TextPosition"
         x="5629"
         y="7480"
         id="tspan6323"><tspan
           fill="rgb(0,0,0)"
           stroke="none"
           id="tspan6325">MA</tspan></tspan></tspan></text>
<text
     class="TextShape"
     id="text6327"><tspan
       class="TextParagraph"
       font-family="cmr10"
       font-size="353px"
       font-weight="400"
       id="tspan6329"><tspan
         class="TextPosition"
         x="2713"
         y="6644"
         id="tspan6331"><tspan
           fill="rgb(0,0,0)"
           stroke="none"
           id="tspan6333">MD</tspan></tspan></tspan></text>
<text
     class="TextShape"
     id="text6335"><tspan
       class="TextParagraph"
       font-family="cmr10"
       font-size="353px"
       font-weight="400"
       id="tspan6337"><tspan
         class="TextPosition"
         x="4613"
         y="2952"
         id="tspan6339"><tspan
           fill="rgb(0,0,0)"
           stroke="none"
           id="tspan6341">MI</tspan></tspan></tspan></text>
<text
     class="TextShape"
     id="text6343"><tspan
       class="TextParagraph"
       font-family="cmr10"
       font-size="353px"
       font-weight="400"
       id="tspan6345"><tspan
         class="TextPosition"
         x="6781"
         y="7493"
         id="tspan6347"><tspan
           fill="rgb(0,0,0)"
           stroke="none"
           id="tspan6349">MN</tspan></tspan></tspan></text>
<text
     class="TextShape"
     id="text6351"><tspan
       class="TextParagraph"
       font-family="cmr10"
       font-size="353px"
       font-weight="400"
       id="tspan6353"><tspan
         class="TextPosition"
         x="7166"
         y="5971"
         id="tspan6355"><tspan
           fill="rgb(0,0,0)"
           stroke="none"
           id="tspan6357">MO</tspan></tspan></tspan></text>
<text
     class="TextShape"
     id="text6359"><tspan
       class="TextParagraph"
       font-family="cmr10"
       font-size="353px"
       font-weight="400"
       id="tspan6361"><tspan
         class="TextPosition"
         x="7852"
         y="7433"
         id="tspan6363"><tspan
           fill="rgb(0,0,0)"
           stroke="none"
           id="tspan6365">MS</tspan></tspan></tspan></text>
<text
     class="TextShape"
     id="text6367"><tspan
       class="TextParagraph"
       font-family="cmr10"
       font-size="353px"
       font-weight="400"
       id="tspan6369"><tspan
         class="TextPosition"
         x="3738"
         y="2989"
         id="tspan6371"><tspan
           fill="rgb(0,0,0)"
           stroke="none"
           id="tspan6373">NC</tspan></tspan></tspan></text>
<text
     class="TextShape"
     id="text6375"><tspan
       class="TextParagraph"
       font-family="cmr10"
       font-size="353px"
       font-weight="400"
       id="tspan6377"><tspan
         class="TextPosition"
         x="8742"
         y="6447"
         id="tspan6379"><tspan
           fill="rgb(0,0,0)"
           stroke="none"
           id="tspan6381">NE</tspan></tspan></tspan></text>
<text
     class="TextShape"
     id="text6383"><tspan
       class="TextParagraph"
       font-family="cmr10"
       font-size="353px"
       font-weight="400"
       id="tspan6385"><tspan
         class="TextPosition"
         x="5786"
         y="5277"
         id="tspan6387"><tspan
           fill="rgb(0,0,0)"
           stroke="none"
           id="tspan6389">NJ</tspan></tspan></tspan></text>
<text
     class="TextShape"
     id="text6391"><tspan
       class="TextParagraph"
       font-family="cmr10"
       font-size="353px"
       font-weight="400"
       id="tspan6393"><tspan
         class="TextPosition"
         x="6485"
         y="7344"
         id="tspan6395"><tspan
           fill="rgb(0,0,0)"
           stroke="none"
           id="tspan6397">NM</tspan></tspan></tspan></text>
<text
     class="TextShape"
     id="text6399"><tspan
       class="TextParagraph"
       font-family="cmr10"
       font-size="353px"
       font-weight="400"
       id="tspan6401"><tspan
         class="TextPosition"
         x="7903"
         y="7484"
         id="tspan6403"><tspan
           fill="rgb(0,0,0)"
           stroke="none"
           id="tspan6405">NV</tspan></tspan></tspan></text>
<text
     class="TextShape"
     id="text6407"><tspan
       class="TextParagraph"
       font-family="cmr10"
       font-size="353px"
       font-weight="400"
       id="tspan6409"><tspan
         class="TextPosition"
         x="6704"
         y="5007"
         id="tspan6411"><tspan
           fill="rgb(0,0,0)"
           stroke="none"
           id="tspan6413">NY</tspan></tspan></tspan></text>
<text
     class="TextShape"
     id="text6415"><tspan
       class="TextParagraph"
       font-family="cmr10"
       font-size="353px"
       font-weight="400"
       id="tspan6417"><tspan
         class="TextPosition"
         x="4888"
         y="2004"
         id="tspan6419"><tspan
           fill="rgb(0,0,0)"
           stroke="none"
           id="tspan6421">OH</tspan></tspan></tspan></text>
<text
     class="TextShape"
     id="text6423"><tspan
       class="TextParagraph"
       font-family="cmr10"
       font-size="353px"
       font-weight="400"
       id="tspan6425"><tspan
         class="TextPosition"
         x="5743"
         y="6295"
         id="tspan6427"><tspan
           fill="rgb(0,0,0)"
           stroke="none"
           id="tspan6429">OK</tspan></tspan></tspan></text>
<text
     class="TextShape"
     id="text6431"><tspan
       class="TextParagraph"
       font-family="cmr10"
       font-size="353px"
       font-weight="400"
       id="tspan6433"><tspan
         class="TextPosition"
         x="7130"
         y="6357"
         id="tspan6435"><tspan
           fill="rgb(0,0,0)"
           stroke="none"
           id="tspan6437">OR</tspan></tspan></tspan></text>
<text
     class="TextShape"
     id="text6439"><tspan
       class="TextParagraph"
       font-family="cmr10"
       font-size="353px"
       font-weight="400"
       id="tspan6441"><tspan
         class="TextPosition"
         x="3730"
         y="463"
         id="tspan6443"><tspan
           fill="rgb(0,0,0)"
           stroke="none"
           id="tspan6445">PA</tspan></tspan></tspan></text>
<text
     class="TextShape"
     id="text6447"><tspan
       class="TextParagraph"
       font-family="cmr10"
       font-size="353px"
       font-weight="400"
       id="tspan6449"><tspan
         class="TextPosition"
         x="6741"
         y="5458"
         id="tspan6451"><tspan
           fill="rgb(0,0,0)"
           stroke="none"
           id="tspan6453">SC</tspan></tspan></tspan></text>
<text
     class="TextShape"
     id="text6455"><tspan
       class="TextParagraph"
       font-family="cmr10"
       font-size="353px"
       font-weight="400"
       id="tspan6457"><tspan
         class="TextPosition"
         x="6294"
         y="7316"
         id="tspan6459"><tspan
           fill="rgb(0,0,0)"
           stroke="none"
           id="tspan6461">TN</tspan></tspan></tspan></text>
<text
     class="TextShape"
     id="text6463"><tspan
       class="TextParagraph"
       font-family="cmr10"
       font-size="353px"
       font-weight="400"
       id="tspan6465"><tspan
         class="TextPosition"
         x="5627"
         y="5504"
         id="tspan6467"><tspan
           fill="rgb(0,0,0)"
           stroke="none"
           id="tspan6469">TX</tspan></tspan></tspan></text>
<text
     class="TextShape"
     id="text6471"><tspan
       class="TextParagraph"
       font-family="cmr10"
       font-size="353px"
       font-weight="400"
       id="tspan6473"><tspan
         class="TextPosition"
         x="5621"
         y="6966"
         id="tspan6475"><tspan
           fill="rgb(0,0,0)"
           stroke="none"
           id="tspan6477">UT</tspan></tspan></tspan></text>
<text
     class="TextShape"
     id="text6479"><tspan
       class="TextParagraph"
       font-family="cmr10"
       font-size="353px"
       font-weight="400"
       id="tspan6481"><tspan
         class="TextPosition"
         x="4565"
         y="3737"
         id="tspan6483"><tspan
           fill="rgb(0,0,0)"
           stroke="none"
           id="tspan6485">VA</tspan></tspan></tspan></text>
<text
     class="TextShape"
     id="text6487"><tspan
       class="TextParagraph"
       font-family="cmr10"
       font-size="353px"
       font-weight="400"
       id="tspan6489"><tspan
         class="TextPosition"
         x="6621"
         y="7329"
         id="tspan6491"><tspan
           fill="rgb(0,0,0)"
           stroke="none"
           id="tspan6493">WA</tspan></tspan></tspan></text>
<text
     class="TextShape"
     id="text6495"><tspan
       class="TextParagraph"
       font-family="cmr10"
       font-size="353px"
       font-weight="400"
       id="tspan6497"><tspan
         class="TextPosition"
         x="6747"
         y="5663"
         id="tspan6499"><tspan
           fill="rgb(0,0,0)"
           stroke="none"
           id="tspan6501">WI</tspan></tspan></tspan></text>
<text
     class="TextShape"
     id="text6503"><tspan
       class="TextParagraph"
       font-family="cmr10"
       font-size="353px"
       font-weight="400"
       id="tspan6505"><tspan
         class="TextPosition"
         x="2740"
         y="7356"
         id="tspan6507"><tspan
           fill="rgb(0,0,0)"
           stroke="none"
           id="tspan6509">WV</tspan></tspan></tspan></text>
<text
     class="TextShape"
     id="text6511"><tspan
       class="TextParagraph"
       font-family="cmr10"
       font-size="423px"
       font-weight="400"
       id="tspan6513"><tspan
         class="TextPosition"
         x="4666"
         y="9106"
         id="tspan6515"><tspan
           fill="rgb(0,0,0)"
           stroke="none"
           id="tspan6517">Moment of Area</tspan></tspan></tspan></text>
<text
     class="TextShape"
     id="text6519"
     inkscape:transform-center-x="-7.4940945"
     inkscape:transform-center-y="-114.97653"
     x="-8122.7622"
     y="-6304.7378"
     transform="matrix(0,-1,1,0,0,0)"><tspan
       class="TextParagraph"
       font-size="423px"
       font-weight="400"
       id="tspan6521"
       style="font-size:423px;font-weight:400;font-family:cmr10"><tspan
         class="TextPosition"
         x="-7226.7622"
         y="1226.2622"
         transform="matrix(0,-1,1,0,-6635,8427)"
         id="tspan6523"><tspan
           id="tspan6525"
           style="fill:#000000;stroke:none">Efficiency gap by seat share (seats)</tspan></tspan></tspan></text>
</svg>