<?xml version="1.0" encoding="UTF-8" standalone="no"?>
<svg
   xmlns:dc="http://purl.org/dc/elements/1.1/"
   xmlns:cc="http://creativecommons.org/ns#"
   xmlns:rdf="http://www.w3.org/1999/02/22-rdf-syntax-ns#"
   xmlns:svg="http://www.w3.org/2000/svg"
   xmlns="http://www.w3.org/2000/svg"
   xmlns:sodipodi="http://sodipodi.sourceforge.net/DTD/sodipodi-0.dtd"
   xmlns:inkscape="http://www.inkscape.org/namespaces/inkscape"
   width="112mm"
   height="98mm"
   viewBox="0 0 11200 9800"
   version="1.1"
   stroke-width="28.222"
   stroke-linejoin="round"
   xml:space="preserve"
   id="svg5101"
   inkscape:version="0.48.4 r9939"
   sodipodi:docname="sss-convex_hull.svg"><metadata
     id="metadata5827"><rdf:RDF><cc:Work
         rdf:about=""><dc:format>image/svg+xml</dc:format><dc:type
           rdf:resource="http://purl.org/dc/dcmitype/StillImage" /></cc:Work></rdf:RDF></metadata><defs
     id="defs5825" /><sodipodi:namedview
     pagecolor="#ffffff"
     bordercolor="#666666"
     borderopacity="1"
     objecttolerance="10"
     gridtolerance="10"
     guidetolerance="10"
     inkscape:pageopacity="0"
     inkscape:pageshadow="2"
     inkscape:window-width="1050"
     inkscape:window-height="1680"
     id="namedview5823"
     showgrid="false"
     inkscape:zoom="2.7185489"
     inkscape:cx="136.91184"
     inkscape:cy="62.146489"
     inkscape:window-x="1600"
     inkscape:window-y="0"
     inkscape:window-maximized="0"
     inkscape:current-layer="svg5101" /><path
     fill="rgb(255,255,255)"
     stroke="none"
     d="M 5609,9760 L 0,9760 0,0 11218,0 11218,9760 5609,9760 Z"
     id="path5103" /><path
     fill="none"
     stroke="rgb(179,179,179)"
     stroke-linejoin="round"
     d="M 6378,7819 L 2133,7819 2133,394 10623,394 10623,7819 6378,7819 Z"
     id="path5105" /><path
     fill="none"
     stroke="rgb(179,179,179)"
     stroke-linejoin="round"
     d="M 2133,7968 L 2133,7818"
     id="path5107" /><path
     fill="none"
     stroke="rgb(179,179,179)"
     stroke-linejoin="round"
     d="M 2133,7968 L 2133,7818"
     id="path5109" /><path
     fill="none"
     stroke="rgb(179,179,179)"
     stroke-linejoin="round"
     d="M 3076,7968 L 3076,7818"
     id="path5111" /><path
     fill="none"
     stroke="rgb(179,179,179)"
     stroke-linejoin="round"
     d="M 3076,7968 L 3076,7818"
     id="path5113" /><path
     fill="none"
     stroke="rgb(179,179,179)"
     stroke-linejoin="round"
     d="M 4019,7968 L 4019,7818"
     id="path5115" /><path
     fill="none"
     stroke="rgb(179,179,179)"
     stroke-linejoin="round"
     d="M 4019,7968 L 4019,7818"
     id="path5117" /><path
     fill="none"
     stroke="rgb(179,179,179)"
     stroke-linejoin="round"
     d="M 4963,7968 L 4963,7818"
     id="path5119" /><path
     fill="none"
     stroke="rgb(179,179,179)"
     stroke-linejoin="round"
     d="M 4963,7968 L 4963,7818"
     id="path5121" /><path
     fill="none"
     stroke="rgb(179,179,179)"
     stroke-linejoin="round"
     d="M 5905,7968 L 5905,7818"
     id="path5123" /><path
     fill="none"
     stroke="rgb(179,179,179)"
     stroke-linejoin="round"
     d="M 5905,7968 L 5905,7818"
     id="path5125" /><path
     fill="none"
     stroke="rgb(179,179,179)"
     stroke-linejoin="round"
     d="M 6849,7968 L 6849,7818"
     id="path5127" /><path
     fill="none"
     stroke="rgb(179,179,179)"
     stroke-linejoin="round"
     d="M 6849,7968 L 6849,7818"
     id="path5129" /><path
     fill="none"
     stroke="rgb(179,179,179)"
     stroke-linejoin="round"
     d="M 7792,7968 L 7792,7818"
     id="path5131" /><path
     fill="none"
     stroke="rgb(179,179,179)"
     stroke-linejoin="round"
     d="M 7792,7968 L 7792,7818"
     id="path5133" /><path
     fill="none"
     stroke="rgb(179,179,179)"
     stroke-linejoin="round"
     d="M 8736,7968 L 8736,7818"
     id="path5135" /><path
     fill="none"
     stroke="rgb(179,179,179)"
     stroke-linejoin="round"
     d="M 8736,7968 L 8736,7818"
     id="path5137" /><path
     fill="none"
     stroke="rgb(179,179,179)"
     stroke-linejoin="round"
     d="M 9679,7968 L 9679,7818"
     id="path5139" /><path
     fill="none"
     stroke="rgb(179,179,179)"
     stroke-linejoin="round"
     d="M 9679,7968 L 9679,7818"
     id="path5141" /><path
     fill="none"
     stroke="rgb(179,179,179)"
     stroke-linejoin="round"
     d="M 10622,7968 L 10622,7818"
     id="path5143" /><path
     fill="none"
     stroke="rgb(179,179,179)"
     stroke-linejoin="round"
     d="M 10622,7968 L 10622,7818"
     id="path5145" /><path
     fill="none"
     stroke="rgb(179,179,179)"
     stroke-linejoin="round"
     d="M 2133,7818 L 10622,7818"
     id="path5147" /><path
     fill="none"
     stroke="rgb(179,179,179)"
     stroke-linejoin="round"
     d="M 1983,7818 L 2133,7818"
     id="path5149" /><path
     fill="none"
     stroke="rgb(179,179,179)"
     stroke-linejoin="round"
     d="M 1983,7818 L 2133,7818"
     id="path5151" /><path
     fill="none"
     stroke="rgb(179,179,179)"
     stroke-linejoin="round"
     d="M 1983,6992 L 2133,6992"
     id="path5153" /><path
     fill="none"
     stroke="rgb(179,179,179)"
     stroke-linejoin="round"
     d="M 1983,6992 L 2133,6992"
     id="path5155" /><path
     fill="none"
     stroke="rgb(179,179,179)"
     stroke-linejoin="round"
     d="M 1983,6167 L 2133,6167"
     id="path5157" /><path
     fill="none"
     stroke="rgb(179,179,179)"
     stroke-linejoin="round"
     d="M 1983,6167 L 2133,6167"
     id="path5159" /><path
     fill="none"
     stroke="rgb(179,179,179)"
     stroke-linejoin="round"
     d="M 1983,5342 L 2133,5342"
     id="path5161" /><path
     fill="none"
     stroke="rgb(179,179,179)"
     stroke-linejoin="round"
     d="M 1983,5342 L 2133,5342"
     id="path5163" /><path
     fill="none"
     stroke="rgb(179,179,179)"
     stroke-linejoin="round"
     d="M 1983,4518 L 2133,4518"
     id="path5165" /><path
     fill="none"
     stroke="rgb(179,179,179)"
     stroke-linejoin="round"
     d="M 1983,4518 L 2133,4518"
     id="path5167" /><path
     fill="none"
     stroke="rgb(179,179,179)"
     stroke-linejoin="round"
     d="M 1983,3693 L 2133,3693"
     id="path5169" /><path
     fill="none"
     stroke="rgb(179,179,179)"
     stroke-linejoin="round"
     d="M 1983,3693 L 2133,3693"
     id="path5171" /><path
     fill="none"
     stroke="rgb(179,179,179)"
     stroke-linejoin="round"
     d="M 1983,2868 L 2133,2868"
     id="path5173" /><path
     fill="none"
     stroke="rgb(179,179,179)"
     stroke-linejoin="round"
     d="M 1983,2868 L 2133,2868"
     id="path5175" /><path
     fill="none"
     stroke="rgb(179,179,179)"
     stroke-linejoin="round"
     d="M 1983,2043 L 2133,2043"
     id="path5177" /><path
     fill="none"
     stroke="rgb(179,179,179)"
     stroke-linejoin="round"
     d="M 1983,2043 L 2133,2043"
     id="path5179" /><path
     fill="none"
     stroke="rgb(179,179,179)"
     stroke-linejoin="round"
     d="M 1983,1218 L 2133,1218"
     id="path5181" /><path
     fill="none"
     stroke="rgb(179,179,179)"
     stroke-linejoin="round"
     d="M 1983,1218 L 2133,1218"
     id="path5183" /><path
     fill="none"
     stroke="rgb(179,179,179)"
     stroke-linejoin="round"
     d="M 1983,393 L 2133,393"
     id="path5185" /><path
     fill="none"
     stroke="rgb(179,179,179)"
     stroke-linejoin="round"
     d="M 1983,393 L 2133,393"
     id="path5187" /><path
     fill="none"
     stroke="rgb(179,179,179)"
     stroke-linejoin="round"
     d="M 2133,7818 L 2133,393"
     id="path5189" /><path
     fill="rgb(0,69,134)"
     stroke="none"
     d="M 5782,6930 L 5907,7055 6032,6930 5907,6805 5782,6930 Z"
     id="path5191" /><path
     fill="none"
     stroke="rgb(0,69,134)"
     stroke-linejoin="round"
     d="M 5782,6930 L 5907,7055 6032,6930 5907,6805 5782,6930 Z"
     id="path5193" /><path
     fill="rgb(0,69,134)"
     stroke="none"
     d="M 5492,6848 L 5616,6973 5741,6848 5616,6723 5492,6848 Z"
     id="path5195" /><path
     fill="none"
     stroke="rgb(0,69,134)"
     stroke-linejoin="round"
     d="M 5492,6848 L 5616,6973 5741,6848 5616,6723 5492,6848 Z"
     id="path5197" /><path
     fill="rgb(0,69,134)"
     stroke="none"
     d="M 6690,5673 L 6815,5798 6940,5673 6815,5548 6690,5673 Z"
     id="path5199" /><path
     fill="none"
     stroke="rgb(0,69,134)"
     stroke-linejoin="round"
     d="M 6690,5673 L 6815,5798 6940,5673 6815,5548 6690,5673 Z"
     id="path5201" /><path
     fill="rgb(0,69,134)"
     stroke="none"
     d="M 6024,5795 L 6149,5920 6274,5795 6149,5670 6024,5795 Z"
     id="path5203" /><path
     fill="none"
     stroke="rgb(0,69,134)"
     stroke-linejoin="round"
     d="M 6024,5795 L 6149,5920 6274,5795 6149,5670 6024,5795 Z"
     id="path5205" /><path
     fill="rgb(0,69,134)"
     stroke="none"
     d="M 5746,7321 L 5871,7446 5996,7321 5871,7196 5746,7321 Z"
     id="path5207" /><path
     fill="none"
     stroke="rgb(0,69,134)"
     stroke-linejoin="round"
     d="M 5746,7321 L 5871,7446 5996,7321 5871,7196 5746,7321 Z"
     id="path5209" /><path
     fill="rgb(0,69,134)"
     stroke="none"
     d="M 6411,5897 L 6536,6022 6661,5897 6536,5772 6411,5897 Z"
     id="path5211" /><path
     fill="none"
     stroke="rgb(0,69,134)"
     stroke-linejoin="round"
     d="M 6411,5897 L 6536,6022 6661,5897 6536,5772 6411,5897 Z"
     id="path5213" /><path
     fill="rgb(0,69,134)"
     stroke="none"
     d="M 6125,4747 L 6250,4872 6375,4747 6250,4622 6125,4747 Z"
     id="path5215" /><path
     fill="none"
     stroke="rgb(0,69,134)"
     stroke-linejoin="round"
     d="M 6125,4747 L 6250,4872 6375,4747 6250,4622 6125,4747 Z"
     id="path5217" /><path
     fill="rgb(0,69,134)"
     stroke="none"
     d="M 6825,6857 L 6950,6982 7075,6857 6950,6732 6825,6857 Z"
     id="path5219" /><path
     fill="none"
     stroke="rgb(0,69,134)"
     stroke-linejoin="round"
     d="M 6825,6857 L 6950,6982 7075,6857 6950,6732 6825,6857 Z"
     id="path5221" /><path
     fill="rgb(0,69,134)"
     stroke="none"
     d="M 7302,7615 L 7427,7740 7552,7615 7427,7490 7302,7615 Z"
     id="path5223" /><path
     fill="none"
     stroke="rgb(0,69,134)"
     stroke-linejoin="round"
     d="M 7302,7615 L 7427,7740 7552,7615 7427,7490 7302,7615 Z"
     id="path5225" /><path
     fill="rgb(0,69,134)"
     stroke="none"
     d="M 4446,6264 L 4571,6389 4696,6264 4571,6139 4446,6264 Z"
     id="path5227" /><path
     fill="none"
     stroke="rgb(0,69,134)"
     stroke-linejoin="round"
     d="M 4446,6264 L 4571,6389 4696,6264 4571,6139 4446,6264 Z"
     id="path5229" /><path
     fill="rgb(0,69,134)"
     stroke="none"
     d="M 8264,4938 L 8389,5063 8514,4938 8389,4814 8264,4938 Z"
     id="path5231" /><path
     fill="none"
     stroke="rgb(0,69,134)"
     stroke-linejoin="round"
     d="M 8264,4938 L 8389,5063 8514,4938 8389,4814 8264,4938 Z"
     id="path5233" /><path
     fill="rgb(0,69,134)"
     stroke="none"
     d="M 8254,7273 L 8379,7398 8504,7273 8379,7148 8254,7273 Z"
     id="path5235" /><path
     fill="none"
     stroke="rgb(0,69,134)"
     stroke-linejoin="round"
     d="M 8254,7273 L 8379,7398 8504,7273 8379,7148 8254,7273 Z"
     id="path5237" /><path
     fill="rgb(0,69,134)"
     stroke="none"
     d="M 5526,6499 L 5650,6624 5775,6499 5650,6374 5526,6499 Z"
     id="path5239" /><path
     fill="none"
     stroke="rgb(0,69,134)"
     stroke-linejoin="round"
     d="M 5526,6499 L 5650,6624 5775,6499 5650,6374 5526,6499 Z"
     id="path5241" /><path
     fill="rgb(0,69,134)"
     stroke="none"
     d="M 4041,5952 L 4166,6077 4291,5952 4166,5827 4041,5952 Z"
     id="path5243" /><path
     fill="none"
     stroke="rgb(0,69,134)"
     stroke-linejoin="round"
     d="M 4041,5952 L 4166,6077 4291,5952 4166,5827 4041,5952 Z"
     id="path5245" /><path
     fill="rgb(0,69,134)"
     stroke="none"
     d="M 5285,7785 L 5410,7910 5535,7785 5410,7660 5285,7785 Z"
     id="path5247" /><path
     fill="none"
     stroke="rgb(0,69,134)"
     stroke-linejoin="round"
     d="M 5285,7785 L 5410,7910 5535,7785 5410,7660 5285,7785 Z"
     id="path5249" /><path
     fill="rgb(0,69,134)"
     stroke="none"
     d="M 2403,6949 L 2528,7074 2653,6949 2528,6824 2403,6949 Z"
     id="path5251" /><path
     fill="none"
     stroke="rgb(0,69,134)"
     stroke-linejoin="round"
     d="M 2403,6949 L 2528,7074 2653,6949 2528,6824 2403,6949 Z"
     id="path5253" /><path
     fill="rgb(0,69,134)"
     stroke="none"
     d="M 5348,3256 L 5473,3381 5598,3256 5473,3131 5348,3256 Z"
     id="path5255" /><path
     fill="none"
     stroke="rgb(0,69,134)"
     stroke-linejoin="round"
     d="M 5348,3256 L 5473,3381 5598,3256 5473,3131 5348,3256 Z"
     id="path5257" /><path
     fill="rgb(0,69,134)"
     stroke="none"
     d="M 7131,7798 L 7256,7923 7381,7798 7256,7673 7131,7798 Z"
     id="path5259" /><path
     fill="none"
     stroke="rgb(0,69,134)"
     stroke-linejoin="round"
     d="M 7131,7798 L 7256,7923 7381,7798 7256,7673 7131,7798 Z"
     id="path5261" /><path
     fill="rgb(0,69,134)"
     stroke="none"
     d="M 6776,6275 L 6901,6400 7026,6275 6901,6150 6776,6275 Z"
     id="path5263" /><path
     fill="none"
     stroke="rgb(0,69,134)"
     stroke-linejoin="round"
     d="M 6776,6275 L 6901,6400 7026,6275 6901,6150 6776,6275 Z"
     id="path5265" /><path
     fill="rgb(0,69,134)"
     stroke="none"
     d="M 7240,7738 L 7365,7863 7490,7738 7365,7613 7240,7738 Z"
     id="path5267" /><path
     fill="none"
     stroke="rgb(0,69,134)"
     stroke-linejoin="round"
     d="M 7240,7738 L 7365,7863 7490,7738 7365,7613 7240,7738 Z"
     id="path5269" /><path
     fill="rgb(0,69,134)"
     stroke="none"
     d="M 4007,3293 L 4132,3418 4257,3293 4132,3168 4007,3293 Z"
     id="path5271" /><path
     fill="none"
     stroke="rgb(0,69,134)"
     stroke-linejoin="round"
     d="M 4007,3293 L 4132,3418 4257,3293 4132,3168 4007,3293 Z"
     id="path5273" /><path
     fill="rgb(0,69,134)"
     stroke="none"
     d="M 8401,6752 L 8526,6877 8651,6752 8526,6627 8401,6752 Z"
     id="path5275" /><path
     fill="none"
     stroke="rgb(0,69,134)"
     stroke-linejoin="round"
     d="M 8401,6752 L 8526,6877 8651,6752 8526,6627 8401,6752 Z"
     id="path5277" /><path
     fill="rgb(0,69,134)"
     stroke="none"
     d="M 4802,5582 L 4927,5707 5052,5582 4927,5457 4802,5582 Z"
     id="path5279" /><path
     fill="none"
     stroke="rgb(0,69,134)"
     stroke-linejoin="round"
     d="M 4802,5582 L 4927,5707 5052,5582 4927,5457 4802,5582 Z"
     id="path5281" /><path
     fill="rgb(0,69,134)"
     stroke="none"
     d="M 7360,7649 L 7485,7774 7610,7649 7485,7524 7360,7649 Z"
     id="path5283" /><path
     fill="none"
     stroke="rgb(0,69,134)"
     stroke-linejoin="round"
     d="M 7360,7649 L 7485,7774 7610,7649 7485,7524 7360,7649 Z"
     id="path5285" /><path
     fill="rgb(0,69,134)"
     stroke="none"
     d="M 9391,7789 L 9516,7914 9641,7789 9516,7664 9391,7789 Z"
     id="path5287" /><path
     fill="none"
     stroke="rgb(0,69,134)"
     stroke-linejoin="round"
     d="M 9391,7789 L 9516,7914 9641,7789 9516,7664 9391,7789 Z"
     id="path5289" /><path
     fill="rgb(0,69,134)"
     stroke="none"
     d="M 6835,5311 L 6960,5436 7085,5311 6960,5186 6835,5311 Z"
     id="path5291" /><path
     fill="none"
     stroke="rgb(0,69,134)"
     stroke-linejoin="round"
     d="M 6835,5311 L 6960,5436 7085,5311 6960,5186 6835,5311 Z"
     id="path5293" /><path
     fill="rgb(0,69,134)"
     stroke="none"
     d="M 5208,2308 L 5333,2433 5458,2308 5333,2183 5208,2308 Z"
     id="path5295" /><path
     fill="none"
     stroke="rgb(0,69,134)"
     stroke-linejoin="round"
     d="M 5208,2308 L 5333,2433 5458,2308 5333,2183 5208,2308 Z"
     id="path5297" /><path
     fill="rgb(0,69,134)"
     stroke="none"
     d="M 5545,6600 L 5669,6725 5794,6600 5669,6475 5545,6600 Z"
     id="path5299" /><path
     fill="none"
     stroke="rgb(0,69,134)"
     stroke-linejoin="round"
     d="M 5545,6600 L 5669,6725 5794,6600 5669,6475 5545,6600 Z"
     id="path5301" /><path
     fill="rgb(0,69,134)"
     stroke="none"
     d="M 6816,6661 L 6941,6786 7066,6661 6941,6536 6816,6661 Z"
     id="path5303" /><path
     fill="none"
     stroke="rgb(0,69,134)"
     stroke-linejoin="round"
     d="M 6816,6661 L 6941,6786 7066,6661 6941,6536 6816,6661 Z"
     id="path5305" /><path
     fill="rgb(0,69,134)"
     stroke="none"
     d="M 4323,767 L 4448,892 4573,767 4448,642 4323,767 Z"
     id="path5307" /><path
     fill="none"
     stroke="rgb(0,69,134)"
     stroke-linejoin="round"
     d="M 4323,767 L 4448,892 4573,767 4448,642 4323,767 Z"
     id="path5309" /><path
     fill="rgb(0,69,134)"
     stroke="none"
     d="M 6506,5762 L 6631,5887 6756,5762 6631,5637 6506,5762 Z"
     id="path5311" /><path
     fill="none"
     stroke="rgb(0,69,134)"
     stroke-linejoin="round"
     d="M 6506,5762 L 6631,5887 6756,5762 6631,5637 6506,5762 Z"
     id="path5313" /><path
     fill="rgb(0,69,134)"
     stroke="none"
     d="M 5836,7621 L 5961,7746 6086,7621 5961,7496 5836,7621 Z"
     id="path5315" /><path
     fill="none"
     stroke="rgb(0,69,134)"
     stroke-linejoin="round"
     d="M 5836,7621 L 5961,7746 6086,7621 5961,7496 5836,7621 Z"
     id="path5317" /><path
     fill="rgb(0,69,134)"
     stroke="none"
     d="M 5313,5809 L 5438,5934 5563,5809 5438,5684 5313,5809 Z"
     id="path5319" /><path
     fill="none"
     stroke="rgb(0,69,134)"
     stroke-linejoin="round"
     d="M 5313,5809 L 5438,5934 5563,5809 5438,5684 5313,5809 Z"
     id="path5321" /><path
     fill="rgb(0,69,134)"
     stroke="none"
     d="M 5610,7271 L 5735,7396 5860,7271 5735,7146 5610,7271 Z"
     id="path5323" /><path
     fill="none"
     stroke="rgb(0,69,134)"
     stroke-linejoin="round"
     d="M 5610,7271 L 5735,7396 5860,7271 5735,7146 5610,7271 Z"
     id="path5325" /><path
     fill="rgb(0,69,134)"
     stroke="none"
     d="M 4963,4042 L 5088,4167 5213,4042 5088,3917 4963,4042 Z"
     id="path5327" /><path
     fill="none"
     stroke="rgb(0,69,134)"
     stroke-linejoin="round"
     d="M 4963,4042 L 5088,4167 5213,4042 5088,3917 4963,4042 Z"
     id="path5329" /><path
     fill="rgb(0,69,134)"
     stroke="none"
     d="M 6456,7634 L 6581,7759 6706,7634 6581,7509 6456,7634 Z"
     id="path5331" /><path
     fill="none"
     stroke="rgb(0,69,134)"
     stroke-linejoin="round"
     d="M 6456,7634 L 6581,7759 6706,7634 6581,7509 6456,7634 Z"
     id="path5333" /><path
     fill="rgb(0,69,134)"
     stroke="none"
     d="M 7550,5968 L 7675,6093 7800,5968 7675,5843 7550,5968 Z"
     id="path5335" /><path
     fill="none"
     stroke="rgb(0,69,134)"
     stroke-linejoin="round"
     d="M 7550,5968 L 7675,6093 7800,5968 7675,5843 7550,5968 Z"
     id="path5337" /><path
     fill="rgb(0,69,134)"
     stroke="none"
     d="M 2912,7661 L 3037,7786 3162,7661 3037,7536 2912,7661 Z"
     id="path5339" /><path
     fill="none"
     stroke="rgb(0,69,134)"
     stroke-linejoin="round"
     d="M 2912,7661 L 3037,7786 3162,7661 3037,7536 2912,7661 Z"
     id="path5341" /><text
     class="TextShape"
     id="text5343"><tspan
       class="TextParagraph"
       font-family="cmr10"
       font-size="388px"
       font-weight="400"
       id="tspan5345"><tspan
         class="TextPosition"
         x="1868"
         y="8359"
         id="tspan5347"><tspan
           fill="rgb(0,0,0)"
           stroke="none"
           id="tspan5349">0.5</tspan></tspan></tspan></text>
<text
     class="TextShape"
     id="text5351"><tspan
       class="TextParagraph"
       font-family="cmr10"
       font-size="388px"
       font-weight="400"
       id="tspan5353"><tspan
         class="TextPosition"
         x="2705"
         y="8359"
         id="tspan5355"><tspan
           fill="rgb(0,0,0)"
           stroke="none"
           id="tspan5357">0.55</tspan></tspan></tspan></text>
<text
     class="TextShape"
     id="text5359"><tspan
       class="TextParagraph"
       font-family="cmr10"
       font-size="388px"
       font-weight="400"
       id="tspan5361"><tspan
         class="TextPosition"
         x="3754"
         y="8359"
         id="tspan5363"><tspan
           fill="rgb(0,0,0)"
           stroke="none"
           id="tspan5365">0.6</tspan></tspan></tspan></text>
<text
     class="TextShape"
     id="text5367"><tspan
       class="TextParagraph"
       font-family="cmr10"
       font-size="388px"
       font-weight="400"
       id="tspan5369"><tspan
         class="TextPosition"
         x="4592"
         y="8359"
         id="tspan5371"><tspan
           fill="rgb(0,0,0)"
           stroke="none"
           id="tspan5373">0.65</tspan></tspan></tspan></text>
<text
     class="TextShape"
     id="text5375"><tspan
       class="TextParagraph"
       font-family="cmr10"
       font-size="388px"
       font-weight="400"
       id="tspan5377"><tspan
         class="TextPosition"
         x="5641"
         y="8359"
         id="tspan5379"><tspan
           fill="rgb(0,0,0)"
           stroke="none"
           id="tspan5381">0.7</tspan></tspan></tspan></text>
<text
     class="TextShape"
     id="text5383"><tspan
       class="TextParagraph"
       font-family="cmr10"
       font-size="388px"
       font-weight="400"
       id="tspan5385"><tspan
         class="TextPosition"
         x="6479"
         y="8359"
         id="tspan5387"><tspan
           fill="rgb(0,0,0)"
           stroke="none"
           id="tspan5389">0.75</tspan></tspan></tspan></text>
<text
     class="TextShape"
     id="text5391"><tspan
       class="TextParagraph"
       font-family="cmr10"
       font-size="388px"
       font-weight="400"
       id="tspan5393"><tspan
         class="TextPosition"
         x="7528"
         y="8359"
         id="tspan5395"><tspan
           fill="rgb(0,0,0)"
           stroke="none"
           id="tspan5397">0.8</tspan></tspan></tspan></text>
<text
     class="TextShape"
     id="text5399"><tspan
       class="TextParagraph"
       font-family="cmr10"
       font-size="388px"
       font-weight="400"
       id="tspan5401"><tspan
         class="TextPosition"
         x="8366"
         y="8359"
         id="tspan5403"><tspan
           fill="rgb(0,0,0)"
           stroke="none"
           id="tspan5405">0.85</tspan></tspan></tspan></text>
<text
     class="TextShape"
     id="text5407"><tspan
       class="TextParagraph"
       font-family="cmr10"
       font-size="388px"
       font-weight="400"
       id="tspan5409"><tspan
         class="TextPosition"
         x="9415"
         y="8359"
         id="tspan5411"><tspan
           fill="rgb(0,0,0)"
           stroke="none"
           id="tspan5413">0.9</tspan></tspan></tspan></text>
<text
     class="TextShape"
     id="text5415"><tspan
       class="TextParagraph"
       font-family="cmr10"
       font-size="388px"
       font-weight="400"
       id="tspan5417"><tspan
         class="TextPosition"
         x="10252"
         y="8359"
         id="tspan5419"><tspan
           fill="rgb(0,0,0)"
           stroke="none"
           id="tspan5421">0.95</tspan></tspan></tspan></text>
<text
     class="TextShape"
     id="text5423"><tspan
       class="TextParagraph"
       font-family="cmr10"
       font-size="388px"
       font-weight="400"
       id="tspan5425"><tspan
         class="TextPosition"
         x="1671"
         y="7912"
         id="tspan5427"><tspan
           fill="rgb(0,0,0)"
           stroke="none"
           id="tspan5429">0</tspan></tspan></tspan></text>
<text
     class="TextShape"
     id="text5431"><tspan
       class="TextParagraph"
       font-family="cmr10"
       font-size="388px"
       font-weight="400"
       id="tspan5433"><tspan
         class="TextPosition"
         x="1354"
         y="7086"
         id="tspan5435"><tspan
           fill="rgb(0,0,0)"
           stroke="none"
           id="tspan5437">0.5</tspan></tspan></tspan></text>
<text
     class="TextShape"
     id="text5439"><tspan
       class="TextParagraph"
       font-family="cmr10"
       font-size="388px"
       font-weight="400"
       id="tspan5441"><tspan
         class="TextPosition"
         x="1671"
         y="6261"
         id="tspan5443"><tspan
           fill="rgb(0,0,0)"
           stroke="none"
           id="tspan5445">1</tspan></tspan></tspan></text>
<text
     class="TextShape"
     id="text5447"><tspan
       class="TextParagraph"
       font-family="cmr10"
       font-size="388px"
       font-weight="400"
       id="tspan5449"><tspan
         class="TextPosition"
         x="1354"
         y="5436"
         id="tspan5451"><tspan
           fill="rgb(0,0,0)"
           stroke="none"
           id="tspan5453">1.5</tspan></tspan></tspan></text>
<text
     class="TextShape"
     id="text5455"><tspan
       class="TextParagraph"
       font-family="cmr10"
       font-size="388px"
       font-weight="400"
       id="tspan5457"><tspan
         class="TextPosition"
         x="1671"
         y="4611"
         id="tspan5459"><tspan
           fill="rgb(0,0,0)"
           stroke="none"
           id="tspan5461">2</tspan></tspan></tspan></text>
<text
     class="TextShape"
     id="text5463"><tspan
       class="TextParagraph"
       font-family="cmr10"
       font-size="388px"
       font-weight="400"
       id="tspan5465"><tspan
         class="TextPosition"
         x="1354"
         y="3786"
         id="tspan5467"><tspan
           fill="rgb(0,0,0)"
           stroke="none"
           id="tspan5469">2.5</tspan></tspan></tspan></text>
<text
     class="TextShape"
     id="text5471"><tspan
       class="TextParagraph"
       font-family="cmr10"
       font-size="388px"
       font-weight="400"
       id="tspan5473"><tspan
         class="TextPosition"
         x="1671"
         y="2961"
         id="tspan5475"><tspan
           fill="rgb(0,0,0)"
           stroke="none"
           id="tspan5477">3</tspan></tspan></tspan></text>
<text
     class="TextShape"
     id="text5479"><tspan
       class="TextParagraph"
       font-family="cmr10"
       font-size="388px"
       font-weight="400"
       id="tspan5481"><tspan
         class="TextPosition"
         x="1354"
         y="2136"
         id="tspan5483"><tspan
           fill="rgb(0,0,0)"
           stroke="none"
           id="tspan5485">3.5</tspan></tspan></tspan></text>
<text
     class="TextShape"
     id="text5487"><tspan
       class="TextParagraph"
       font-family="cmr10"
       font-size="388px"
       font-weight="400"
       id="tspan5489"><tspan
         class="TextPosition"
         x="1671"
         y="1311"
         id="tspan5491"><tspan
           fill="rgb(0,0,0)"
           stroke="none"
           id="tspan5493">4</tspan></tspan></tspan></text>
<text
     class="TextShape"
     id="text5495"><tspan
       class="TextParagraph"
       font-family="cmr10"
       font-size="388px"
       font-weight="400"
       id="tspan5497"><tspan
         class="TextPosition"
         x="1354"
         y="486"
         id="tspan5499"><tspan
           fill="rgb(0,0,0)"
           stroke="none"
           id="tspan5501">4.5</tspan></tspan></tspan></text>
<text
     class="TextShape"
     id="text5503"><tspan
       class="TextParagraph"
       font-family="cmr10"
       font-size="353px"
       font-weight="400"
       id="tspan5505"><tspan
         class="TextPosition"
         x="5670"
         y="6626"
         id="tspan5507"><tspan
           fill="rgb(0,0,0)"
           stroke="none"
           id="tspan5509">AL</tspan></tspan></tspan></text>
<text
     class="TextShape"
     id="text5511"><tspan
       class="TextParagraph"
       font-family="cmr10"
       font-size="353px"
       font-weight="400"
       id="tspan5513"><tspan
         class="TextPosition"
         x="5352"
         y="6544"
         id="tspan5515"><tspan
           fill="rgb(0,0,0)"
           stroke="none"
           id="tspan5517">AR</tspan></tspan></tspan></text>
<text
     class="TextShape"
     id="text5519"><tspan
       class="TextParagraph"
       font-family="cmr10"
       font-size="353px"
       font-weight="400"
       id="tspan5521"><tspan
         class="TextPosition"
         x="6578"
         y="5369"
         id="tspan5523"><tspan
           fill="rgb(0,0,0)"
           stroke="none"
           id="tspan5525">AZ</tspan></tspan></tspan></text>
<text
     class="TextShape"
     id="text5527"><tspan
       class="TextParagraph"
       font-family="cmr10"
       font-size="353px"
       font-weight="400"
       id="tspan5529"><tspan
         class="TextPosition"
         x="5898"
         y="5491"
         id="tspan5531"><tspan
           fill="rgb(0,0,0)"
           stroke="none"
           id="tspan5533">CA</tspan></tspan></tspan></text>
<text
     class="TextShape"
     id="text5535"><tspan
       class="TextParagraph"
       font-family="cmr10"
       font-size="353px"
       font-weight="400"
       id="tspan5537"><tspan
         class="TextPosition"
         x="5620"
         y="7017"
         id="tspan5539"><tspan
           fill="rgb(0,0,0)"
           stroke="none"
           id="tspan5541">CO</tspan></tspan></tspan></text>
<text
     class="TextShape"
     id="text5543"><tspan
       class="TextParagraph"
       font-family="cmr10"
       font-size="353px"
       font-weight="400"
       id="tspan5545"><tspan
         class="TextPosition"
         x="6299"
         y="5593"
         id="tspan5547"><tspan
           fill="rgb(0,0,0)"
           stroke="none"
           id="tspan5549">CT</tspan></tspan></tspan></text>
<text
     class="TextShape"
     id="text5551"><tspan
       class="TextParagraph"
       font-family="cmr10"
       font-size="353px"
       font-weight="400"
       id="tspan5553"><tspan
         class="TextPosition"
         x="6039"
         y="4443"
         id="tspan5555"><tspan
           fill="rgb(0,0,0)"
           stroke="none"
           id="tspan5557">FL</tspan></tspan></tspan></text>
<text
     class="TextShape"
     id="text5559"><tspan
       class="TextParagraph"
       font-family="cmr10"
       font-size="353px"
       font-weight="400"
       id="tspan5561"><tspan
         class="TextPosition"
         x="6686"
         y="6553"
         id="tspan5563"><tspan
           fill="rgb(0,0,0)"
           stroke="none"
           id="tspan5565">GA</tspan></tspan></tspan></text>
<text
     class="TextShape"
     id="text5567"><tspan
       class="TextParagraph"
       font-family="cmr10"
       font-size="353px"
       font-weight="400"
       id="tspan5569"><tspan
         class="TextPosition"
         x="7229"
         y="7311"
         id="tspan5571"><tspan
           fill="rgb(0,0,0)"
           stroke="none"
           id="tspan5573">IA</tspan></tspan></tspan></text>
<text
     class="TextShape"
     id="text5575"><tspan
       class="TextParagraph"
       font-family="cmr10"
       font-size="353px"
       font-weight="400"
       id="tspan5577"><tspan
         class="TextPosition"
         x="4399"
         y="5960"
         id="tspan5579"><tspan
           fill="rgb(0,0,0)"
           stroke="none"
           id="tspan5581">IL</tspan></tspan></tspan></text>
<text
     class="TextShape"
     id="text5583"><tspan
       class="TextParagraph"
       font-family="cmr10"
       font-size="353px"
       font-weight="400"
       id="tspan5585"><tspan
         class="TextPosition"
         x="8191"
         y="4635"
         id="tspan5587"><tspan
           fill="rgb(0,0,0)"
           stroke="none"
           id="tspan5589">IN</tspan></tspan></tspan></text>
<text
     class="TextShape"
     id="text5591"><tspan
       class="TextParagraph"
       font-family="cmr10"
       font-size="353px"
       font-weight="400"
       id="tspan5593"><tspan
         class="TextPosition"
         x="8155"
         y="6969"
         id="tspan5595"><tspan
           fill="rgb(0,0,0)"
           stroke="none"
           id="tspan5597">KS</tspan></tspan></tspan></text>
<text
     class="TextShape"
     id="text5599"><tspan
       class="TextParagraph"
       font-family="cmr10"
       font-size="353px"
       font-weight="400"
       id="tspan5601"><tspan
         class="TextPosition"
         x="5386"
         y="6195"
         id="tspan5603"><tspan
           fill="rgb(0,0,0)"
           stroke="none"
           id="tspan5605">KY</tspan></tspan></tspan></text>
<text
     class="TextShape"
     id="text5607"><tspan
       class="TextParagraph"
       font-family="cmr10"
       font-size="353px"
       font-weight="400"
       id="tspan5609"><tspan
         class="TextPosition"
         x="3928"
         y="5648"
         id="tspan5611"><tspan
           fill="rgb(0,0,0)"
           stroke="none"
           id="tspan5613">LA</tspan></tspan></tspan></text>
<text
     class="TextShape"
     id="text5615"><tspan
       class="TextParagraph"
       font-family="cmr10"
       font-size="353px"
       font-weight="400"
       id="tspan5617"><tspan
         class="TextPosition"
         x="5119"
         y="7481"
         id="tspan5619"><tspan
           fill="rgb(0,0,0)"
           stroke="none"
           id="tspan5621">MA</tspan></tspan></tspan></text>
<text
     class="TextShape"
     id="text5623"><tspan
       class="TextParagraph"
       font-family="cmr10"
       font-size="353px"
       font-weight="400"
       id="tspan5625"><tspan
         class="TextPosition"
         x="2237"
         y="6645"
         id="tspan5627"><tspan
           fill="rgb(0,0,0)"
           stroke="none"
           id="tspan5629">MD</tspan></tspan></tspan></text>
<text
     class="TextShape"
     id="text5631"><tspan
       class="TextParagraph"
       font-family="cmr10"
       font-size="353px"
       font-weight="400"
       id="tspan5633"><tspan
         class="TextPosition"
         x="5248"
         y="2952"
         id="tspan5635"><tspan
           fill="rgb(0,0,0)"
           stroke="none"
           id="tspan5637">MI</tspan></tspan></tspan></text>
<text
     class="TextShape"
     id="text5639"><tspan
       class="TextParagraph"
       font-family="cmr10"
       font-size="353px"
       font-weight="400"
       id="tspan5641"><tspan
         class="TextPosition"
         x="6966"
         y="7494"
         id="tspan5643"><tspan
           fill="rgb(0,0,0)"
           stroke="none"
           id="tspan5645">MN</tspan></tspan></tspan></text>
<text
     class="TextShape"
     id="text5647"><tspan
       class="TextParagraph"
       font-family="cmr10"
       font-size="353px"
       font-weight="400"
       id="tspan5649"><tspan
         class="TextPosition"
         x="6611"
         y="5971"
         id="tspan5651"><tspan
           fill="rgb(0,0,0)"
           stroke="none"
           id="tspan5653">MO</tspan></tspan></tspan></text>
<text
     class="TextShape"
     id="text5655"><tspan
       class="TextParagraph"
       font-family="cmr10"
       font-size="353px"
       font-weight="400"
       id="tspan5657"><tspan
         class="TextPosition"
         x="7114"
         y="7434"
         id="tspan5659"><tspan
           fill="rgb(0,0,0)"
           stroke="none"
           id="tspan5661">MS</tspan></tspan></tspan></text>
<text
     class="TextShape"
     id="text5663"><tspan
       class="TextParagraph"
       font-family="cmr10"
       font-size="353px"
       font-weight="400"
       id="tspan5665"><tspan
         class="TextPosition"
         x="3880"
         y="2989"
         id="tspan5667"><tspan
           fill="rgb(0,0,0)"
           stroke="none"
           id="tspan5669">NC</tspan></tspan></tspan></text>
<text
     class="TextShape"
     id="text5671"><tspan
       class="TextParagraph"
       font-family="cmr10"
       font-size="353px"
       font-weight="400"
       id="tspan5673"><tspan
         class="TextPosition"
         x="8275"
         y="6448"
         id="tspan5675"><tspan
           fill="rgb(0,0,0)"
           stroke="none"
           id="tspan5677">NE</tspan></tspan></tspan></text>
<text
     class="TextShape"
     id="text5679"><tspan
       class="TextParagraph"
       font-family="cmr10"
       font-size="353px"
       font-weight="400"
       id="tspan5681"><tspan
         class="TextPosition"
         x="4702"
         y="5278"
         id="tspan5683"><tspan
           fill="rgb(0,0,0)"
           stroke="none"
           id="tspan5685">NJ</tspan></tspan></tspan></text>
<text
     class="TextShape"
     id="text5687"><tspan
       class="TextParagraph"
       font-family="cmr10"
       font-size="353px"
       font-weight="400"
       id="tspan5689"><tspan
         class="TextPosition"
         x="7195"
         y="7345"
         id="tspan5691"><tspan
           fill="rgb(0,0,0)"
           stroke="none"
           id="tspan5693">NM</tspan></tspan></tspan></text>
<text
     class="TextShape"
     id="text5695"><tspan
       class="TextParagraph"
       font-family="cmr10"
       font-size="353px"
       font-weight="400"
       id="tspan5697"><tspan
         class="TextPosition"
         x="9252"
         y="7485"
         id="tspan5699"><tspan
           fill="rgb(0,0,0)"
           stroke="none"
           id="tspan5701">NV</tspan></tspan></tspan></text>
<text
     class="TextShape"
     id="text5703"><tspan
       class="TextParagraph"
       font-family="cmr10"
       font-size="353px"
       font-weight="400"
       id="tspan5705"><tspan
         class="TextPosition"
         x="6696"
         y="5007"
         id="tspan5707"><tspan
           fill="rgb(0,0,0)"
           stroke="none"
           id="tspan5709">NY</tspan></tspan></tspan></text>
<text
     class="TextShape"
     id="text5711"><tspan
       class="TextParagraph"
       font-family="cmr10"
       font-size="353px"
       font-weight="400"
       id="tspan5713"><tspan
         class="TextPosition"
         x="5068"
         y="2004"
         id="tspan5715"><tspan
           fill="rgb(0,0,0)"
           stroke="none"
           id="tspan5717">OH</tspan></tspan></tspan></text>
<text
     class="TextShape"
     id="text5719"><tspan
       class="TextParagraph"
       font-family="cmr10"
       font-size="353px"
       font-weight="400"
       id="tspan5721"><tspan
         class="TextPosition"
         x="5405"
         y="6296"
         id="tspan5723"><tspan
           fill="rgb(0,0,0)"
           stroke="none"
           id="tspan5725">OK</tspan></tspan></tspan></text>
<text
     class="TextShape"
     id="text5727"><tspan
       class="TextParagraph"
       font-family="cmr10"
       font-size="353px"
       font-weight="400"
       id="tspan5729"><tspan
         class="TextPosition"
         x="6677"
         y="6357"
         id="tspan5731"><tspan
           fill="rgb(0,0,0)"
           stroke="none"
           id="tspan5733">OR</tspan></tspan></tspan></text>
<text
     class="TextShape"
     id="text5735"><tspan
       class="TextParagraph"
       font-family="cmr10"
       font-size="353px"
       font-weight="400"
       id="tspan5737"><tspan
         class="TextPosition"
         x="4196"
         y="463"
         id="tspan5739"><tspan
           fill="rgb(0,0,0)"
           stroke="none"
           id="tspan5741">PA</tspan></tspan></tspan></text>
<text
     class="TextShape"
     id="text5743"><tspan
       class="TextParagraph"
       font-family="cmr10"
       font-size="353px"
       font-weight="400"
       id="tspan5745"><tspan
         class="TextPosition"
         x="6420"
         y="5458"
         id="tspan5747"><tspan
           fill="rgb(0,0,0)"
           stroke="none"
           id="tspan5749">SC</tspan></tspan></tspan></text>
<text
     class="TextShape"
     id="text5751"><tspan
       class="TextParagraph"
       font-family="cmr10"
       font-size="353px"
       font-weight="400"
       id="tspan5753"><tspan
         class="TextPosition"
         x="5710"
         y="7317"
         id="tspan5755"><tspan
           fill="rgb(0,0,0)"
           stroke="none"
           id="tspan5757">TN</tspan></tspan></tspan></text>
<text
     class="TextShape"
     id="text5759"><tspan
       class="TextParagraph"
       font-family="cmr10"
       font-size="353px"
       font-weight="400"
       id="tspan5761"><tspan
         class="TextPosition"
         x="5186"
         y="5505"
         id="tspan5763"><tspan
           fill="rgb(0,0,0)"
           stroke="none"
           id="tspan5765">TX</tspan></tspan></tspan></text>
<text
     class="TextShape"
     id="text5767"><tspan
       class="TextParagraph"
       font-family="cmr10"
       font-size="353px"
       font-weight="400"
       id="tspan5769"><tspan
         class="TextPosition"
         x="5484"
         y="6967"
         id="tspan5771"><tspan
           fill="rgb(0,0,0)"
           stroke="none"
           id="tspan5773">UT</tspan></tspan></tspan></text>
<text
     class="TextShape"
     id="text5775"><tspan
       class="TextParagraph"
       font-family="cmr10"
       font-size="353px"
       font-weight="400"
       id="tspan5777"><tspan
         class="TextPosition"
         x="4823"
         y="3738"
         id="tspan5779"><tspan
           fill="rgb(0,0,0)"
           stroke="none"
           id="tspan5781">VA</tspan></tspan></tspan></text>
<text
     class="TextShape"
     id="text5783"><tspan
       class="TextParagraph"
       font-family="cmr10"
       font-size="353px"
       font-weight="400"
       id="tspan5785"><tspan
         class="TextPosition"
         x="6277"
         y="7330"
         id="tspan5787"><tspan
           fill="rgb(0,0,0)"
           stroke="none"
           id="tspan5789">WA</tspan></tspan></tspan></text>
<text
     class="TextShape"
     id="text5791"><tspan
       class="TextParagraph"
       font-family="cmr10"
       font-size="353px"
       font-weight="400"
       id="tspan5793"><tspan
         class="TextPosition"
         x="7438"
         y="5664"
         id="tspan5795"><tspan
           fill="rgb(0,0,0)"
           stroke="none"
           id="tspan5797">WI</tspan></tspan></tspan></text>
<text
     class="TextShape"
     id="text5799"><tspan
       class="TextParagraph"
       font-family="cmr10"
       font-size="353px"
       font-weight="400"
       id="tspan5801"><tspan
         class="TextPosition"
         x="2732"
         y="7357"
         id="tspan5803"><tspan
           fill="rgb(0,0,0)"
           stroke="none"
           id="tspan5805">WV</tspan></tspan></tspan></text>
<text
     class="TextShape"
     id="text5807"><tspan
       class="TextParagraph"
       font-family="cmr10"
       font-size="423px"
       font-weight="400"
       id="tspan5809"><tspan
         class="TextPosition"
         x="4533"
         y="9107"
         id="tspan5811"><tspan
           fill="rgb(0,0,0)"
           stroke="none"
           id="tspan5813">Convex Hull Area</tspan></tspan></tspan></text>
<text
     class="TextShape"
     id="text5815"
     inkscape:transform-center-x="-7.4940945"
     inkscape:transform-center-y="-114.97653"
     x="-8123.7622"
     y="-6305.7378"
     transform="matrix(0,-1,1,0,0,0)"><tspan
       class="TextParagraph"
       font-size="423px"
       font-weight="400"
       id="tspan5817"
       style="font-size:423px;font-weight:400;font-family:cmr10"><tspan
         class="TextPosition"
         x="-7227.7622"
         y="1226.2622"
         transform="matrix(0,-1,1,0,-6636,8428)"
         id="tspan5819"><tspan
           id="tspan5821"
           style="fill:#000000;stroke:none">Efficiency gap by seat share (seats)</tspan></tspan></tspan></text>
</svg>