<?xml version="1.0" encoding="UTF-8" standalone="no"?>
<svg
   xmlns:dc="http://purl.org/dc/elements/1.1/"
   xmlns:cc="http://creativecommons.org/ns#"
   xmlns:rdf="http://www.w3.org/1999/02/22-rdf-syntax-ns#"
   xmlns:svg="http://www.w3.org/2000/svg"
   xmlns="http://www.w3.org/2000/svg"
   xmlns:sodipodi="http://sodipodi.sourceforge.net/DTD/sodipodi-0.dtd"
   xmlns:inkscape="http://www.inkscape.org/namespaces/inkscape"
   width="112mm"
   height="98mm"
   viewBox="0 0 11200 9800"
   version="1.1"
   stroke-width="28.222"
   stroke-linejoin="round"
   xml:space="preserve"
   id="svg7237"
   inkscape:version="0.48.4 r9939"
   sodipodi:docname="wvp-moment_pop.svg"><metadata
     id="metadata7903"><rdf:RDF><cc:Work
         rdf:about=""><dc:format>image/svg+xml</dc:format><dc:type
           rdf:resource="http://purl.org/dc/dcmitype/StillImage" /></cc:Work></rdf:RDF></metadata><defs
     id="defs7901" /><sodipodi:namedview
     pagecolor="#ffffff"
     bordercolor="#666666"
     borderopacity="1"
     objecttolerance="10"
     gridtolerance="10"
     guidetolerance="10"
     inkscape:pageopacity="0"
     inkscape:pageshadow="2"
     inkscape:window-width="1050"
     inkscape:window-height="1680"
     id="namedview7899"
     showgrid="false"
     inkscape:zoom="2.7185489"
     inkscape:cx="184.44993"
     inkscape:cy="80.735103"
     inkscape:window-x="1600"
     inkscape:window-y="0"
     inkscape:window-maximized="0"
     inkscape:current-layer="svg7237" /><path
     fill="rgb(255,255,255)"
     stroke="none"
     d="M 5609,9759 L 0,9759 0,-1 11218,-1 11218,9759 5609,9759 Z"
     id="path7239" /><path
     fill="none"
     stroke="rgb(179,179,179)"
     stroke-linejoin="round"
     d="M 6549,7818 L 2371,7818 2371,394 10728,394 10728,7818 6549,7818 Z"
     id="path7241" /><path
     fill="none"
     stroke="rgb(179,179,179)"
     stroke-linejoin="round"
     d="M 2371,7967 L 2371,7817"
     id="path7243" /><path
     fill="none"
     stroke="rgb(179,179,179)"
     stroke-linejoin="round"
     d="M 2371,7967 L 2371,7817"
     id="path7245" /><path
     fill="none"
     stroke="rgb(179,179,179)"
     stroke-linejoin="round"
     d="M 3565,7967 L 3565,7817"
     id="path7247" /><path
     fill="none"
     stroke="rgb(179,179,179)"
     stroke-linejoin="round"
     d="M 3565,7967 L 3565,7817"
     id="path7249" /><path
     fill="none"
     stroke="rgb(179,179,179)"
     stroke-linejoin="round"
     d="M 4759,7967 L 4759,7817"
     id="path7251" /><path
     fill="none"
     stroke="rgb(179,179,179)"
     stroke-linejoin="round"
     d="M 4759,7967 L 4759,7817"
     id="path7253" /><path
     fill="none"
     stroke="rgb(179,179,179)"
     stroke-linejoin="round"
     d="M 5952,7967 L 5952,7817"
     id="path7255" /><path
     fill="none"
     stroke="rgb(179,179,179)"
     stroke-linejoin="round"
     d="M 5952,7967 L 5952,7817"
     id="path7257" /><path
     fill="none"
     stroke="rgb(179,179,179)"
     stroke-linejoin="round"
     d="M 7146,7967 L 7146,7817"
     id="path7259" /><path
     fill="none"
     stroke="rgb(179,179,179)"
     stroke-linejoin="round"
     d="M 7146,7967 L 7146,7817"
     id="path7261" /><path
     fill="none"
     stroke="rgb(179,179,179)"
     stroke-linejoin="round"
     d="M 8340,7967 L 8340,7817"
     id="path7263" /><path
     fill="none"
     stroke="rgb(179,179,179)"
     stroke-linejoin="round"
     d="M 8340,7967 L 8340,7817"
     id="path7265" /><path
     fill="none"
     stroke="rgb(179,179,179)"
     stroke-linejoin="round"
     d="M 9534,7967 L 9534,7817"
     id="path7267" /><path
     fill="none"
     stroke="rgb(179,179,179)"
     stroke-linejoin="round"
     d="M 9534,7967 L 9534,7817"
     id="path7269" /><path
     fill="none"
     stroke="rgb(179,179,179)"
     stroke-linejoin="round"
     d="M 10728,7967 L 10728,7817"
     id="path7271" /><path
     fill="none"
     stroke="rgb(179,179,179)"
     stroke-linejoin="round"
     d="M 10728,7967 L 10728,7817"
     id="path7273" /><path
     fill="none"
     stroke="rgb(179,179,179)"
     stroke-linejoin="round"
     d="M 2371,7817 L 10728,7817"
     id="path7275" /><path
     fill="none"
     stroke="rgb(179,179,179)"
     stroke-linejoin="round"
     d="M 2221,7817 L 2371,7817"
     id="path7277" /><path
     fill="none"
     stroke="rgb(179,179,179)"
     stroke-linejoin="round"
     d="M 2221,7817 L 2371,7817"
     id="path7279" /><path
     fill="none"
     stroke="rgb(179,179,179)"
     stroke-linejoin="round"
     d="M 2221,6579 L 2371,6579"
     id="path7281" /><path
     fill="none"
     stroke="rgb(179,179,179)"
     stroke-linejoin="round"
     d="M 2221,6579 L 2371,6579"
     id="path7283" /><path
     fill="none"
     stroke="rgb(179,179,179)"
     stroke-linejoin="round"
     d="M 2221,5342 L 2371,5342"
     id="path7285" /><path
     fill="none"
     stroke="rgb(179,179,179)"
     stroke-linejoin="round"
     d="M 2221,5342 L 2371,5342"
     id="path7287" /><path
     fill="none"
     stroke="rgb(179,179,179)"
     stroke-linejoin="round"
     d="M 2221,4105 L 2371,4105"
     id="path7289" /><path
     fill="none"
     stroke="rgb(179,179,179)"
     stroke-linejoin="round"
     d="M 2221,4105 L 2371,4105"
     id="path7291" /><path
     fill="none"
     stroke="rgb(179,179,179)"
     stroke-linejoin="round"
     d="M 2221,2867 L 2371,2867"
     id="path7293" /><path
     fill="none"
     stroke="rgb(179,179,179)"
     stroke-linejoin="round"
     d="M 2221,2867 L 2371,2867"
     id="path7295" /><path
     fill="none"
     stroke="rgb(179,179,179)"
     stroke-linejoin="round"
     d="M 2221,1630 L 2371,1630"
     id="path7297" /><path
     fill="none"
     stroke="rgb(179,179,179)"
     stroke-linejoin="round"
     d="M 2221,1630 L 2371,1630"
     id="path7299" /><path
     fill="none"
     stroke="rgb(179,179,179)"
     stroke-linejoin="round"
     d="M 2221,392 L 2371,392"
     id="path7301" /><path
     fill="none"
     stroke="rgb(179,179,179)"
     stroke-linejoin="round"
     d="M 2221,392 L 2371,392"
     id="path7303" /><path
     fill="none"
     stroke="rgb(179,179,179)"
     stroke-linejoin="round"
     d="M 2371,7817 L 2371,392"
     id="path7305" /><path
     fill="rgb(0,69,134)"
     stroke="none"
     d="M 4570,5052 L 4695,5177 4820,5052 4695,4927 4570,5052 Z"
     id="path7307" /><path
     fill="none"
     stroke="rgb(0,69,134)"
     stroke-linejoin="round"
     d="M 4570,5052 L 4695,5177 4820,5052 4695,4927 4570,5052 Z"
     id="path7309" /><path
     fill="rgb(0,69,134)"
     stroke="none"
     d="M 4588,1735 L 4713,1860 4838,1735 4713,1610 4588,1735 Z"
     id="path7311" /><path
     fill="none"
     stroke="rgb(0,69,134)"
     stroke-linejoin="round"
     d="M 4588,1735 L 4713,1860 4838,1735 4713,1610 4588,1735 Z"
     id="path7313" /><path
     fill="rgb(0,69,134)"
     stroke="none"
     d="M 4536,5134 L 4661,5259 4786,5134 4661,5009 4536,5134 Z"
     id="path7315" /><path
     fill="none"
     stroke="rgb(0,69,134)"
     stroke-linejoin="round"
     d="M 4536,5134 L 4661,5259 4786,5134 4661,5009 4536,5134 Z"
     id="path7317" /><path
     fill="rgb(0,69,134)"
     stroke="none"
     d="M 4856,7409 L 4981,7534 5106,7409 4981,7284 4856,7409 Z"
     id="path7319" /><path
     fill="none"
     stroke="rgb(0,69,134)"
     stroke-linejoin="round"
     d="M 4856,7409 L 4981,7534 5106,7409 4981,7284 4856,7409 Z"
     id="path7321" /><path
     fill="rgb(0,69,134)"
     stroke="none"
     d="M 5620,6716 L 5745,6841 5870,6716 5745,6591 5620,6716 Z"
     id="path7323" /><path
     fill="none"
     stroke="rgb(0,69,134)"
     stroke-linejoin="round"
     d="M 5620,6716 L 5745,6841 5870,6716 5745,6591 5620,6716 Z"
     id="path7325" /><path
     fill="rgb(0,69,134)"
     stroke="none"
     d="M 3904,2058 L 4029,2183 4154,2058 4029,1933 3904,2058 Z"
     id="path7327" /><path
     fill="none"
     stroke="rgb(0,69,134)"
     stroke-linejoin="round"
     d="M 3904,2058 L 4029,2183 4154,2058 4029,1933 3904,2058 Z"
     id="path7329" /><path
     fill="rgb(0,69,134)"
     stroke="none"
     d="M 4460,4873 L 4585,4997 4710,4873 4585,4748 4460,4873 Z"
     id="path7331" /><path
     fill="none"
     stroke="rgb(0,69,134)"
     stroke-linejoin="round"
     d="M 4460,4873 L 4585,4997 4710,4873 4585,4748 4460,4873 Z"
     id="path7333" /><path
     fill="rgb(0,69,134)"
     stroke="none"
     d="M 4196,7228 L 4321,7353 4446,7228 4321,7103 4196,7228 Z"
     id="path7335" /><path
     fill="none"
     stroke="rgb(0,69,134)"
     stroke-linejoin="round"
     d="M 4196,7228 L 4321,7353 4446,7228 4321,7103 4196,7228 Z"
     id="path7337" /><path
     fill="rgb(0,69,134)"
     stroke="none"
     d="M 3828,7212 L 3953,7337 4078,7212 3953,7087 3828,7212 Z"
     id="path7339" /><path
     fill="none"
     stroke="rgb(0,69,134)"
     stroke-linejoin="round"
     d="M 3828,7212 L 3953,7337 4078,7212 3953,7087 3828,7212 Z"
     id="path7341" /><path
     fill="rgb(0,69,134)"
     stroke="none"
     d="M 3507,7109 L 3632,7234 3757,7109 3632,6984 3507,7109 Z"
     id="path7343" /><path
     fill="none"
     stroke="rgb(0,69,134)"
     stroke-linejoin="round"
     d="M 3507,7109 L 3632,7234 3757,7109 3632,6984 3507,7109 Z"
     id="path7345" /><path
     fill="rgb(0,69,134)"
     stroke="none"
     d="M 4630,2847 L 4755,2972 4880,2847 4755,2722 4630,2847 Z"
     id="path7347" /><path
     fill="none"
     stroke="rgb(0,69,134)"
     stroke-linejoin="round"
     d="M 4630,2847 L 4755,2972 4880,2847 4755,2722 4630,2847 Z"
     id="path7349" /><path
     fill="rgb(0,69,134)"
     stroke="none"
     d="M 6170,4409 L 6295,4534 6420,4409 6295,4284 6170,4409 Z"
     id="path7351" /><path
     fill="none"
     stroke="rgb(0,69,134)"
     stroke-linejoin="round"
     d="M 6170,4409 L 6295,4534 6420,4409 6295,4284 6170,4409 Z"
     id="path7353" /><path
     fill="rgb(0,69,134)"
     stroke="none"
     d="M 3983,4991 L 4108,5116 4233,4991 4108,4867 3983,4991 Z"
     id="path7355" /><path
     fill="none"
     stroke="rgb(0,69,134)"
     stroke-linejoin="round"
     d="M 3983,4991 L 4108,5116 4233,4991 4108,4867 3983,4991 Z"
     id="path7357" /><path
     fill="rgb(0,69,134)"
     stroke="none"
     d="M 4530,7756 L 4655,7881 4780,7756 4655,7631 4530,7756 Z"
     id="path7359" /><path
     fill="none"
     stroke="rgb(0,69,134)"
     stroke-linejoin="round"
     d="M 4530,7756 L 4655,7881 4780,7756 4655,7631 4530,7756 Z"
     id="path7361" /><path
     fill="rgb(0,69,134)"
     stroke="none"
     d="M 4233,4502 L 4358,4627 4483,4502 4358,4377 4233,4502 Z"
     id="path7363" /><path
     fill="none"
     stroke="rgb(0,69,134)"
     stroke-linejoin="round"
     d="M 4233,4502 L 4358,4627 4483,4502 4358,4377 4233,4502 Z"
     id="path7365" /><path
     fill="rgb(0,69,134)"
     stroke="none"
     d="M 3699,6152 L 3824,6277 3949,6152 3824,6027 3699,6152 Z"
     id="path7367" /><path
     fill="none"
     stroke="rgb(0,69,134)"
     stroke-linejoin="round"
     d="M 3699,6152 L 3824,6277 3949,6152 3824,6027 3699,6152 Z"
     id="path7369" /><path
     fill="rgb(0,69,134)"
     stroke="none"
     d="M 4131,2765 L 4256,2890 4381,2765 4256,2640 4131,2765 Z"
     id="path7371" /><path
     fill="none"
     stroke="rgb(0,69,134)"
     stroke-linejoin="round"
     d="M 4131,2765 L 4256,2890 4381,2765 4256,2640 4131,2765 Z"
     id="path7373" /><path
     fill="rgb(0,69,134)"
     stroke="none"
     d="M 4476,7287 L 4601,7412 4726,7287 4601,7162 4476,7287 Z"
     id="path7375" /><path
     fill="none"
     stroke="rgb(0,69,134)"
     stroke-linejoin="round"
     d="M 4476,7287 L 4601,7412 4726,7287 4601,7162 4476,7287 Z"
     id="path7377" /><path
     fill="rgb(0,69,134)"
     stroke="none"
     d="M 4187,4977 L 4312,5102 4437,4977 4312,4853 4187,4977 Z"
     id="path7379" /><path
     fill="none"
     stroke="rgb(0,69,134)"
     stroke-linejoin="round"
     d="M 4187,4977 L 4312,5102 4437,4977 4312,4853 4187,4977 Z"
     id="path7381" /><path
     fill="rgb(0,69,134)"
     stroke="none"
     d="M 4090,6296 L 4215,6421 4340,6296 4215,6171 4090,6296 Z"
     id="path7383" /><path
     fill="none"
     stroke="rgb(0,69,134)"
     stroke-linejoin="round"
     d="M 4090,6296 L 4215,6421 4340,6296 4215,6171 4090,6296 Z"
     id="path7385" /><path
     fill="rgb(0,69,134)"
     stroke="none"
     d="M 3394,2528 L 3519,2653 3644,2528 3519,2403 3394,2528 Z"
     id="path7387" /><path
     fill="none"
     stroke="rgb(0,69,134)"
     stroke-linejoin="round"
     d="M 3394,2528 L 3519,2653 3644,2528 3519,2403 3394,2528 Z"
     id="path7389" /><path
     fill="rgb(0,69,134)"
     stroke="none"
     d="M 5304,2492 L 5429,2617 5554,2492 5429,2367 5304,2492 Z"
     id="path7391" /><path
     fill="none"
     stroke="rgb(0,69,134)"
     stroke-linejoin="round"
     d="M 5304,2492 L 5429,2617 5554,2492 5429,2367 5304,2492 Z"
     id="path7393" /><path
     fill="rgb(0,69,134)"
     stroke="none"
     d="M 3786,3518 L 3911,3643 4036,3518 3911,3393 3786,3518 Z"
     id="path7395" /><path
     fill="none"
     stroke="rgb(0,69,134)"
     stroke-linejoin="round"
     d="M 3786,3518 L 3911,3643 4036,3518 3911,3393 3786,3518 Z"
     id="path7397" /><path
     fill="rgb(0,69,134)"
     stroke="none"
     d="M 9683,5543 L 9808,5668 9933,5543 9808,5418 9683,5543 Z"
     id="path7399" /><path
     fill="none"
     stroke="rgb(0,69,134)"
     stroke-linejoin="round"
     d="M 9683,5543 L 9808,5668 9933,5543 9808,5418 9683,5543 Z"
     id="path7401" /><path
     fill="rgb(0,69,134)"
     stroke="none"
     d="M 7417,6210 L 7542,6335 7667,6210 7542,6085 7417,6210 Z"
     id="path7403" /><path
     fill="none"
     stroke="rgb(0,69,134)"
     stroke-linejoin="round"
     d="M 7417,6210 L 7542,6335 7667,6210 7542,6085 7417,6210 Z"
     id="path7405" /><path
     fill="rgb(0,69,134)"
     stroke="none"
     d="M 4530,7506 L 4655,7631 4780,7506 4655,7381 4530,7506 Z"
     id="path7407" /><path
     fill="none"
     stroke="rgb(0,69,134)"
     stroke-linejoin="round"
     d="M 4530,7506 L 4655,7631 4780,7506 4655,7381 4530,7506 Z"
     id="path7409" /><path
     fill="rgb(0,69,134)"
     stroke="none"
     d="M 3875,2141 L 4000,2266 4125,2141 4000,2016 3875,2141 Z"
     id="path7411" /><path
     fill="none"
     stroke="rgb(0,69,134)"
     stroke-linejoin="round"
     d="M 3875,2141 L 4000,2266 4125,2141 4000,2016 3875,2141 Z"
     id="path7413" /><path
     fill="rgb(0,69,134)"
     stroke="none"
     d="M 4681,4164 L 4806,4289 4931,4164 4806,4039 4681,4164 Z"
     id="path7415" /><path
     fill="none"
     stroke="rgb(0,69,134)"
     stroke-linejoin="round"
     d="M 4681,4164 L 4806,4289 4931,4164 4806,4039 4681,4164 Z"
     id="path7417" /><path
     fill="rgb(0,69,134)"
     stroke="none"
     d="M 5881,4309 L 6006,4434 6131,4309 6006,4184 5881,4309 Z"
     id="path7419" /><path
     fill="none"
     stroke="rgb(0,69,134)"
     stroke-linejoin="round"
     d="M 5881,4309 L 6006,4434 6131,4309 6006,4184 5881,4309 Z"
     id="path7421" /><path
     fill="rgb(0,69,134)"
     stroke="none"
     d="M 3546,1937 L 3671,2062 3796,1937 3671,1812 3546,1937 Z"
     id="path7423" /><path
     fill="none"
     stroke="rgb(0,69,134)"
     stroke-linejoin="round"
     d="M 3546,1937 L 3671,2062 3796,1937 3671,1812 3546,1937 Z"
     id="path7425" /><path
     fill="rgb(0,69,134)"
     stroke="none"
     d="M 4124,3150 L 4249,3275 4374,3150 4249,3025 4124,3150 Z"
     id="path7427" /><path
     fill="none"
     stroke="rgb(0,69,134)"
     stroke-linejoin="round"
     d="M 4124,3150 L 4249,3275 4374,3150 4249,3025 4124,3150 Z"
     id="path7429" /><path
     fill="rgb(0,69,134)"
     stroke="none"
     d="M 4224,6718 L 4349,6843 4474,6718 4349,6593 4224,6718 Z"
     id="path7431" /><path
     fill="none"
     stroke="rgb(0,69,134)"
     stroke-linejoin="round"
     d="M 4224,6718 L 4349,6843 4474,6718 4349,6593 4224,6718 Z"
     id="path7433" /><path
     fill="rgb(0,69,134)"
     stroke="none"
     d="M 3879,5804 L 4004,5929 4129,5804 4004,5679 3879,5804 Z"
     id="path7435" /><path
     fill="none"
     stroke="rgb(0,69,134)"
     stroke-linejoin="round"
     d="M 3879,5804 L 4004,5929 4129,5804 4004,5679 3879,5804 Z"
     id="path7437" /><path
     fill="rgb(0,69,134)"
     stroke="none"
     d="M 6209,5874 L 6334,5999 6459,5874 6334,5749 6209,5874 Z"
     id="path7439" /><path
     fill="none"
     stroke="rgb(0,69,134)"
     stroke-linejoin="round"
     d="M 6209,5874 L 6334,5999 6459,5874 6334,5749 6209,5874 Z"
     id="path7441" /><path
     fill="rgb(0,69,134)"
     stroke="none"
     d="M 3692,2456 L 3817,2581 3942,2456 3817,2331 3692,2456 Z"
     id="path7443" /><path
     fill="none"
     stroke="rgb(0,69,134)"
     stroke-linejoin="round"
     d="M 3692,2456 L 3817,2581 3942,2456 3817,2331 3692,2456 Z"
     id="path7445" /><path
     fill="rgb(0,69,134)"
     stroke="none"
     d="M 4991,7012 L 5116,7137 5241,7012 5116,6887 4991,7012 Z"
     id="path7447" /><path
     fill="none"
     stroke="rgb(0,69,134)"
     stroke-linejoin="round"
     d="M 4991,7012 L 5116,7137 5241,7012 5116,6887 4991,7012 Z"
     id="path7449" /><path
     fill="rgb(0,69,134)"
     stroke="none"
     d="M 6760,4158 L 6885,4283 7010,4158 6885,4033 6760,4158 Z"
     id="path7451" /><path
     fill="none"
     stroke="rgb(0,69,134)"
     stroke-linejoin="round"
     d="M 6760,4158 L 6885,4283 7010,4158 6885,4033 6760,4158 Z"
     id="path7453" /><path
     fill="rgb(0,69,134)"
     stroke="none"
     d="M 3275,7550 L 3400,7675 3525,7550 3400,7425 3275,7550 Z"
     id="path7455" /><path
     fill="none"
     stroke="rgb(0,69,134)"
     stroke-linejoin="round"
     d="M 3275,7550 L 3400,7675 3525,7550 3400,7425 3275,7550 Z"
     id="path7457" /><text
     class="TextShape"
     id="text7459"><tspan
       class="TextParagraph"
       font-family="cmr10"
       font-size="388px"
       font-weight="400"
       id="tspan7461"><tspan
         class="TextPosition"
         x="2265"
         y="8358"
         id="tspan7463"><tspan
           fill="rgb(0,0,0)"
           stroke="none"
           id="tspan7465">0</tspan></tspan></tspan></text>
<text
     class="TextShape"
     id="text7467"><tspan
       class="TextParagraph"
       font-family="cmr10"
       font-size="388px"
       font-weight="400"
       id="tspan7469"><tspan
         class="TextPosition"
         x="3300"
         y="8358"
         id="tspan7471"><tspan
           fill="rgb(0,0,0)"
           stroke="none"
           id="tspan7473">0.5</tspan></tspan></tspan></text>
<text
     class="TextShape"
     id="text7475"><tspan
       class="TextParagraph"
       font-family="cmr10"
       font-size="388px"
       font-weight="400"
       id="tspan7477"><tspan
         class="TextPosition"
         x="4653"
         y="8358"
         id="tspan7479"><tspan
           fill="rgb(0,0,0)"
           stroke="none"
           id="tspan7481">1</tspan></tspan></tspan></text>
<text
     class="TextShape"
     id="text7483"><tspan
       class="TextParagraph"
       font-family="cmr10"
       font-size="388px"
       font-weight="400"
       id="tspan7485"><tspan
         class="TextPosition"
         x="5688"
         y="8358"
         id="tspan7487"><tspan
           fill="rgb(0,0,0)"
           stroke="none"
           id="tspan7489">1.5</tspan></tspan></tspan></text>
<text
     class="TextShape"
     id="text7491"><tspan
       class="TextParagraph"
       font-family="cmr10"
       font-size="388px"
       font-weight="400"
       id="tspan7493"><tspan
         class="TextPosition"
         x="7041"
         y="8358"
         id="tspan7495"><tspan
           fill="rgb(0,0,0)"
           stroke="none"
           id="tspan7497">2</tspan></tspan></tspan></text>
<text
     class="TextShape"
     id="text7499"><tspan
       class="TextParagraph"
       font-family="cmr10"
       font-size="388px"
       font-weight="400"
       id="tspan7501"><tspan
         class="TextPosition"
         x="8076"
         y="8358"
         id="tspan7503"><tspan
           fill="rgb(0,0,0)"
           stroke="none"
           id="tspan7505">2.5</tspan></tspan></tspan></text>
<text
     class="TextShape"
     id="text7507"><tspan
       class="TextParagraph"
       font-family="cmr10"
       font-size="388px"
       font-weight="400"
       id="tspan7509"><tspan
         class="TextPosition"
         x="9429"
         y="8358"
         id="tspan7511"><tspan
           fill="rgb(0,0,0)"
           stroke="none"
           id="tspan7513">3</tspan></tspan></tspan></text>
<text
     class="TextShape"
     id="text7515"><tspan
       class="TextParagraph"
       font-family="cmr10"
       font-size="388px"
       font-weight="400"
       id="tspan7517"><tspan
         class="TextPosition"
         x="10464"
         y="8358"
         id="tspan7519"><tspan
           fill="rgb(0,0,0)"
           stroke="none"
           id="tspan7521">3.5</tspan></tspan></tspan></text>
<text
     class="TextShape"
     id="text7523"><tspan
       class="TextParagraph"
       font-family="cmr10"
       font-size="388px"
       font-weight="400"
       id="tspan7525"><tspan
         class="TextPosition"
         x="1565"
         y="7911"
         id="tspan7527"><tspan
           fill="rgb(0,0,0)"
           stroke="none"
           id="tspan7529">0%</tspan></tspan></tspan></text>
<text
     class="TextShape"
     id="text7531"><tspan
       class="TextParagraph"
       font-family="cmr10"
       font-size="388px"
       font-weight="400"
       id="tspan7533"><tspan
         class="TextPosition"
         x="1565"
         y="6673"
         id="tspan7535"><tspan
           fill="rgb(0,0,0)"
           stroke="none"
           id="tspan7537">5%</tspan></tspan></tspan></text>
<text
     class="TextShape"
     id="text7539"><tspan
       class="TextParagraph"
       font-family="cmr10"
       font-size="388px"
       font-weight="400"
       id="tspan7541"><tspan
         class="TextPosition"
         x="1354"
         y="5436"
         id="tspan7543"><tspan
           fill="rgb(0,0,0)"
           stroke="none"
           id="tspan7545">10%</tspan></tspan></tspan></text>
<text
     class="TextShape"
     id="text7547"><tspan
       class="TextParagraph"
       font-family="cmr10"
       font-size="388px"
       font-weight="400"
       id="tspan7549"><tspan
         class="TextPosition"
         x="1354"
         y="4198"
         id="tspan7551"><tspan
           fill="rgb(0,0,0)"
           stroke="none"
           id="tspan7553">15%</tspan></tspan></tspan></text>
<text
     class="TextShape"
     id="text7555"><tspan
       class="TextParagraph"
       font-family="cmr10"
       font-size="388px"
       font-weight="400"
       id="tspan7557"><tspan
         class="TextPosition"
         x="1354"
         y="2960"
         id="tspan7559"><tspan
           fill="rgb(0,0,0)"
           stroke="none"
           id="tspan7561">20%</tspan></tspan></tspan></text>
<text
     class="TextShape"
     id="text7563"><tspan
       class="TextParagraph"
       font-family="cmr10"
       font-size="388px"
       font-weight="400"
       id="tspan7565"><tspan
         class="TextPosition"
         x="1354"
         y="1723"
         id="tspan7567"><tspan
           fill="rgb(0,0,0)"
           stroke="none"
           id="tspan7569">25%</tspan></tspan></tspan></text>
<text
     class="TextShape"
     id="text7571"><tspan
       class="TextParagraph"
       font-family="cmr10"
       font-size="388px"
       font-weight="400"
       id="tspan7573"><tspan
         class="TextPosition"
         x="1354"
         y="485"
         id="tspan7575"><tspan
           fill="rgb(0,0,0)"
           stroke="none"
           id="tspan7577">30%</tspan></tspan></tspan></text>
<text
     class="TextShape"
     id="text7579"><tspan
       class="TextParagraph"
       font-family="cmr10"
       font-size="353px"
       font-weight="400"
       id="tspan7581"><tspan
         class="TextPosition"
         x="4457"
         y="4749"
         id="tspan7583"><tspan
           fill="rgb(0,0,0)"
           stroke="none"
           id="tspan7585">AL</tspan></tspan></tspan></text>
<text
     class="TextShape"
     id="text7587"><tspan
       class="TextParagraph"
       font-family="cmr10"
       font-size="353px"
       font-weight="400"
       id="tspan7589"><tspan
         class="TextPosition"
         x="4448"
         y="1431"
         id="tspan7591"><tspan
           fill="rgb(0,0,0)"
           stroke="none"
           id="tspan7593">AR</tspan></tspan></tspan></text>
<text
     class="TextShape"
     id="text7595"><tspan
       class="TextParagraph"
       font-family="cmr10"
       font-size="353px"
       font-weight="400"
       id="tspan7597"><tspan
         class="TextPosition"
         x="4423"
         y="4831"
         id="tspan7599"><tspan
           fill="rgb(0,0,0)"
           stroke="none"
           id="tspan7601">AZ</tspan></tspan></tspan></text>
<text
     class="TextShape"
     id="text7603"><tspan
       class="TextParagraph"
       font-family="cmr10"
       font-size="353px"
       font-weight="400"
       id="tspan7605"><tspan
         class="TextPosition"
         x="4729"
         y="7105"
         id="tspan7607"><tspan
           fill="rgb(0,0,0)"
           stroke="none"
           id="tspan7609">CA</tspan></tspan></tspan></text>
<text
     class="TextShape"
     id="text7611"><tspan
       class="TextParagraph"
       font-family="cmr10"
       font-size="353px"
       font-weight="400"
       id="tspan7613"><tspan
         class="TextPosition"
         x="5494"
         y="6412"
         id="tspan7615"><tspan
           fill="rgb(0,0,0)"
           stroke="none"
           id="tspan7617">CO</tspan></tspan></tspan></text>
<text
     class="TextShape"
     id="text7619"><tspan
       class="TextParagraph"
       font-family="cmr10"
       font-size="353px"
       font-weight="400"
       id="tspan7621"><tspan
         class="TextPosition"
         x="3791"
         y="1754"
         id="tspan7623"><tspan
           fill="rgb(0,0,0)"
           stroke="none"
           id="tspan7625">CT</tspan></tspan></tspan></text>
<text
     class="TextShape"
     id="text7627"><tspan
       class="TextParagraph"
       font-family="cmr10"
       font-size="353px"
       font-weight="400"
       id="tspan7629"><tspan
         class="TextPosition"
         x="4373"
         y="4569"
         id="tspan7631"><tspan
           fill="rgb(0,0,0)"
           stroke="none"
           id="tspan7633">FL</tspan></tspan></tspan></text>
<text
     class="TextShape"
     id="text7635"><tspan
       class="TextParagraph"
       font-family="cmr10"
       font-size="353px"
       font-weight="400"
       id="tspan7637"><tspan
         class="TextPosition"
         x="4056"
         y="6924"
         id="tspan7639"><tspan
           fill="rgb(0,0,0)"
           stroke="none"
           id="tspan7641">GA</tspan></tspan></tspan></text>
<text
     class="TextShape"
     id="text7643"><tspan
       class="TextParagraph"
       font-family="cmr10"
       font-size="353px"
       font-weight="400"
       id="tspan7645"><tspan
         class="TextPosition"
         x="3754"
         y="6908"
         id="tspan7647"><tspan
           fill="rgb(0,0,0)"
           stroke="none"
           id="tspan7649">IA</tspan></tspan></tspan></text>
<text
     class="TextShape"
     id="text7651"><tspan
       class="TextParagraph"
       font-family="cmr10"
       font-size="353px"
       font-weight="400"
       id="tspan7653"><tspan
         class="TextPosition"
         x="3460"
         y="6805"
         id="tspan7655"><tspan
           fill="rgb(0,0,0)"
           stroke="none"
           id="tspan7657">IL</tspan></tspan></tspan></text>
<text
     class="TextShape"
     id="text7659"><tspan
       class="TextParagraph"
       font-family="cmr10"
       font-size="353px"
       font-weight="400"
       id="tspan7661"><tspan
         class="TextPosition"
         x="4556"
         y="2543"
         id="tspan7663"><tspan
           fill="rgb(0,0,0)"
           stroke="none"
           id="tspan7665">IN</tspan></tspan></tspan></text>
<text
     class="TextShape"
     id="text7667"><tspan
       class="TextParagraph"
       font-family="cmr10"
       font-size="353px"
       font-weight="400"
       id="tspan7669"><tspan
         class="TextPosition"
         x="6071"
         y="4105"
         id="tspan7671"><tspan
           fill="rgb(0,0,0)"
           stroke="none"
           id="tspan7673">KS</tspan></tspan></tspan></text>
<text
     class="TextShape"
     id="text7675"><tspan
       class="TextParagraph"
       font-family="cmr10"
       font-size="353px"
       font-weight="400"
       id="tspan7677"><tspan
         class="TextPosition"
         x="3843"
         y="4688"
         id="tspan7679"><tspan
           fill="rgb(0,0,0)"
           stroke="none"
           id="tspan7681">KY</tspan></tspan></tspan></text>
<text
     class="TextShape"
     id="text7683"><tspan
       class="TextParagraph"
       font-family="cmr10"
       font-size="353px"
       font-weight="400"
       id="tspan7685"><tspan
         class="TextPosition"
         x="4417"
         y="7452"
         id="tspan7687"><tspan
           fill="rgb(0,0,0)"
           stroke="none"
           id="tspan7689">LA</tspan></tspan></tspan></text>
<text
     class="TextShape"
     id="text7691"><tspan
       class="TextParagraph"
       font-family="cmr10"
       font-size="353px"
       font-weight="400"
       id="tspan7693"><tspan
         class="TextPosition"
         x="4067"
         y="4198"
         id="tspan7695"><tspan
           fill="rgb(0,0,0)"
           stroke="none"
           id="tspan7697">MA</tspan></tspan></tspan></text>
<text
     class="TextShape"
     id="text7699"><tspan
       class="TextParagraph"
       font-family="cmr10"
       font-size="353px"
       font-weight="400"
       id="tspan7701"><tspan
         class="TextPosition"
         x="3533"
         y="5848"
         id="tspan7703"><tspan
           fill="rgb(0,0,0)"
           stroke="none"
           id="tspan7705">MD</tspan></tspan></tspan></text>
<text
     class="TextShape"
     id="text7707"><tspan
       class="TextParagraph"
       font-family="cmr10"
       font-size="353px"
       font-weight="400"
       id="tspan7709"><tspan
         class="TextPosition"
         x="4031"
         y="2461"
         id="tspan7711"><tspan
           fill="rgb(0,0,0)"
           stroke="none"
           id="tspan7713">MI</tspan></tspan></tspan></text>
<text
     class="TextShape"
     id="text7715"><tspan
       class="TextParagraph"
       font-family="cmr10"
       font-size="353px"
       font-weight="400"
       id="tspan7717"><tspan
         class="TextPosition"
         x="4310"
         y="6983"
         id="tspan7719"><tspan
           fill="rgb(0,0,0)"
           stroke="none"
           id="tspan7721">MN</tspan></tspan></tspan></text>
<text
     class="TextShape"
     id="text7723"><tspan
       class="TextParagraph"
       font-family="cmr10"
       font-size="353px"
       font-weight="400"
       id="tspan7725"><tspan
         class="TextPosition"
         x="4021"
         y="4674"
         id="tspan7727"><tspan
           fill="rgb(0,0,0)"
           stroke="none"
           id="tspan7729">MO</tspan></tspan></tspan></text>
<text
     class="TextShape"
     id="text7731"><tspan
       class="TextParagraph"
       font-family="cmr10"
       font-size="353px"
       font-weight="400"
       id="tspan7733"><tspan
         class="TextPosition"
         x="3963"
         y="5992"
         id="tspan7735"><tspan
           fill="rgb(0,0,0)"
           stroke="none"
           id="tspan7737">MS</tspan></tspan></tspan></text>
<text
     class="TextShape"
     id="text7739"><tspan
       class="TextParagraph"
       font-family="cmr10"
       font-size="353px"
       font-weight="400"
       id="tspan7741"><tspan
         class="TextPosition"
         x="3267"
         y="2224"
         id="tspan7743"><tspan
           fill="rgb(0,0,0)"
           stroke="none"
           id="tspan7745">NC</tspan></tspan></tspan></text>
<text
     class="TextShape"
     id="text7747"><tspan
       class="TextParagraph"
       font-family="cmr10"
       font-size="353px"
       font-weight="400"
       id="tspan7749"><tspan
         class="TextPosition"
         x="5177"
         y="2188"
         id="tspan7751"><tspan
           fill="rgb(0,0,0)"
           stroke="none"
           id="tspan7753">NE</tspan></tspan></tspan></text>
<text
     class="TextShape"
     id="text7755"><tspan
       class="TextParagraph"
       font-family="cmr10"
       font-size="353px"
       font-weight="400"
       id="tspan7757"><tspan
         class="TextPosition"
         x="3686"
         y="3214"
         id="tspan7759"><tspan
           fill="rgb(0,0,0)"
           stroke="none"
           id="tspan7761">NJ</tspan></tspan></tspan></text>
<text
     class="TextShape"
     id="text7763"><tspan
       class="TextParagraph"
       font-family="cmr10"
       font-size="353px"
       font-weight="400"
       id="tspan7765"><tspan
         class="TextPosition"
         x="9518"
         y="5239"
         id="tspan7767"><tspan
           fill="rgb(0,0,0)"
           stroke="none"
           id="tspan7769">NM</tspan></tspan></tspan></text>
<text
     class="TextShape"
     id="text7771"><tspan
       class="TextParagraph"
       font-family="cmr10"
       font-size="353px"
       font-weight="400"
       id="tspan7773"><tspan
         class="TextPosition"
         x="7278"
         y="5906"
         id="tspan7775"><tspan
           fill="rgb(0,0,0)"
           stroke="none"
           id="tspan7777">NV</tspan></tspan></tspan></text>
<text
     class="TextShape"
     id="text7779"><tspan
       class="TextParagraph"
       font-family="cmr10"
       font-size="353px"
       font-weight="400"
       id="tspan7781"><tspan
         class="TextPosition"
         x="4390"
         y="7202"
         id="tspan7783"><tspan
           fill="rgb(0,0,0)"
           stroke="none"
           id="tspan7785">NY</tspan></tspan></tspan></text>
<text
     class="TextShape"
     id="text7787"><tspan
       class="TextParagraph"
       font-family="cmr10"
       font-size="353px"
       font-weight="400"
       id="tspan7789"><tspan
         class="TextPosition"
         x="3735"
         y="1837"
         id="tspan7791"><tspan
           fill="rgb(0,0,0)"
           stroke="none"
           id="tspan7793">OH</tspan></tspan></tspan></text>
<text
     class="TextShape"
     id="text7795"><tspan
       class="TextParagraph"
       font-family="cmr10"
       font-size="353px"
       font-weight="400"
       id="tspan7797"><tspan
         class="TextPosition"
         x="4541"
         y="3860"
         id="tspan7799"><tspan
           fill="rgb(0,0,0)"
           stroke="none"
           id="tspan7801">OK</tspan></tspan></tspan></text>
<text
     class="TextShape"
     id="text7803"><tspan
       class="TextParagraph"
       font-family="cmr10"
       font-size="353px"
       font-weight="400"
       id="tspan7805"><tspan
         class="TextPosition"
         x="5742"
         y="4005"
         id="tspan7807"><tspan
           fill="rgb(0,0,0)"
           stroke="none"
           id="tspan7809">OR</tspan></tspan></tspan></text>
<text
     class="TextShape"
     id="text7811"><tspan
       class="TextParagraph"
       font-family="cmr10"
       font-size="353px"
       font-weight="400"
       id="tspan7813"><tspan
         class="TextPosition"
         x="3419"
         y="1633"
         id="tspan7815"><tspan
           fill="rgb(0,0,0)"
           stroke="none"
           id="tspan7817">PA</tspan></tspan></tspan></text>
<text
     class="TextShape"
     id="text7819"><tspan
       class="TextParagraph"
       font-family="cmr10"
       font-size="353px"
       font-weight="400"
       id="tspan7821"><tspan
         class="TextPosition"
         x="4037"
         y="2846"
         id="tspan7823"><tspan
           fill="rgb(0,0,0)"
           stroke="none"
           id="tspan7825">SC</tspan></tspan></tspan></text>
<text
     class="TextShape"
     id="text7827"><tspan
       class="TextParagraph"
       font-family="cmr10"
       font-size="353px"
       font-weight="400"
       id="tspan7829"><tspan
         class="TextPosition"
         x="4097"
         y="6414"
         id="tspan7831"><tspan
           fill="rgb(0,0,0)"
           stroke="none"
           id="tspan7833">TN</tspan></tspan></tspan></text>
<text
     class="TextShape"
     id="text7835"><tspan
       class="TextParagraph"
       font-family="cmr10"
       font-size="353px"
       font-weight="400"
       id="tspan7837"><tspan
         class="TextPosition"
         x="3752"
         y="5500"
         id="tspan7839"><tspan
           fill="rgb(0,0,0)"
           stroke="none"
           id="tspan7841">TX</tspan></tspan></tspan></text>
<text
     class="TextShape"
     id="text7843"><tspan
       class="TextParagraph"
       font-family="cmr10"
       font-size="353px"
       font-weight="400"
       id="tspan7845"><tspan
         class="TextPosition"
         x="6083"
         y="5570"
         id="tspan7847"><tspan
           fill="rgb(0,0,0)"
           stroke="none"
           id="tspan7849">UT</tspan></tspan></tspan></text>
<text
     class="TextShape"
     id="text7851"><tspan
       class="TextParagraph"
       font-family="cmr10"
       font-size="353px"
       font-weight="400"
       id="tspan7853"><tspan
         class="TextPosition"
         x="3552"
         y="2152"
         id="tspan7855"><tspan
           fill="rgb(0,0,0)"
           stroke="none"
           id="tspan7857">VA</tspan></tspan></tspan></text>
<text
     class="TextShape"
     id="text7859"><tspan
       class="TextParagraph"
       font-family="cmr10"
       font-size="353px"
       font-weight="400"
       id="tspan7861"><tspan
         class="TextPosition"
         x="4811"
         y="6708"
         id="tspan7863"><tspan
           fill="rgb(0,0,0)"
           stroke="none"
           id="tspan7865">WA</tspan></tspan></tspan></text>
<text
     class="TextShape"
     id="text7867"><tspan
       class="TextParagraph"
       font-family="cmr10"
       font-size="353px"
       font-weight="400"
       id="tspan7869"><tspan
         class="TextPosition"
         x="6648"
         y="3854"
         id="tspan7871"><tspan
           fill="rgb(0,0,0)"
           stroke="none"
           id="tspan7873">WI</tspan></tspan></tspan></text>
<text
     class="TextShape"
     id="text7875"><tspan
       class="TextParagraph"
       font-family="cmr10"
       font-size="353px"
       font-weight="400"
       id="tspan7877"><tspan
         class="TextPosition"
         x="3095"
         y="7246"
         id="tspan7879"><tspan
           fill="rgb(0,0,0)"
           stroke="none"
           id="tspan7881">WV</tspan></tspan></tspan></text>
<text
     class="TextShape"
     id="text7883"><tspan
       class="TextParagraph"
       font-family="cmr10"
       font-size="423px"
       font-weight="400"
       id="tspan7885"><tspan
         class="TextPosition"
         x="4097"
         y="9106"
         id="tspan7887"><tspan
           fill="rgb(0,0,0)"
           stroke="none"
           id="tspan7889">Moment of Population</tspan></tspan></tspan></text>
<text
     class="TextShape"
     id="text7891"
     inkscape:transform-center-x="-7.4940925"
     inkscape:transform-center-y="-114.68379"
     x="-8122.7622"
     y="-6304.7378"
     transform="matrix(0,-1,1,0,0,0)"><tspan
       class="TextParagraph"
       font-size="423px"
       font-weight="400"
       id="tspan7893"
       style="font-size:423px;font-weight:400;font-family:cmr10"><tspan
         class="TextPosition"
         x="-7226.7622"
         y="1226.2622"
         transform="matrix(0,-1,1,0,-6635,8427)"
         id="tspan7895"><tspan
           id="tspan7897"
           style="fill:#000000;stroke:none">Efficiency gap by wasted votes (%)</tspan></tspan></tspan></text>
</svg>