<?xml version="1.0" encoding="UTF-8" standalone="no"?>
<svg
   xmlns:dc="http://purl.org/dc/elements/1.1/"
   xmlns:cc="http://creativecommons.org/ns#"
   xmlns:rdf="http://www.w3.org/1999/02/22-rdf-syntax-ns#"
   xmlns:svg="http://www.w3.org/2000/svg"
   xmlns="http://www.w3.org/2000/svg"
   xmlns:sodipodi="http://sodipodi.sourceforge.net/DTD/sodipodi-0.dtd"
   xmlns:inkscape="http://www.inkscape.org/namespaces/inkscape"
   width="112mm"
   height="98mm"
   viewBox="0 0 11200 9800"
   version="1.1"
   stroke-width="28.222"
   stroke-linejoin="round"
   xml:space="preserve"
   id="svg7905"
   inkscape:version="0.48.4 r9939"
   sodipodi:docname="wvs-moment_pop.svg"><metadata
     id="metadata8607"><rdf:RDF><cc:Work
         rdf:about=""><dc:format>image/svg+xml</dc:format><dc:type
           rdf:resource="http://purl.org/dc/dcmitype/StillImage" /></cc:Work></rdf:RDF></metadata><defs
     id="defs8605" /><sodipodi:namedview
     pagecolor="#ffffff"
     bordercolor="#666666"
     borderopacity="1"
     objecttolerance="10"
     gridtolerance="10"
     guidetolerance="10"
     inkscape:pageopacity="0"
     inkscape:pageshadow="2"
     inkscape:window-width="1050"
     inkscape:window-height="1680"
     id="namedview8603"
     showgrid="false"
     inkscape:zoom="3.8446087"
     inkscape:cx="125.90077"
     inkscape:cy="91.34928"
     inkscape:window-x="1600"
     inkscape:window-y="0"
     inkscape:window-maximized="0"
     inkscape:current-layer="svg7905" /><path
     fill="rgb(255,255,255)"
     stroke="none"
     d="M 5609,9759 L 0,9759 0,-1 11218,-1 11218,9759 5609,9759 Z"
     id="path7907" /><path
     fill="none"
     stroke="rgb(179,179,179)"
     stroke-linejoin="round"
     d="M 6430,7818 L 2133,7818 2133,393 10728,393 10728,7818 6430,7818 Z"
     id="path7909" /><path
     fill="none"
     stroke="rgb(179,179,179)"
     stroke-linejoin="round"
     d="M 2133,7967 L 2133,7817"
     id="path7911" /><path
     fill="none"
     stroke="rgb(179,179,179)"
     stroke-linejoin="round"
     d="M 2133,7967 L 2133,7817"
     id="path7913" /><path
     fill="none"
     stroke="rgb(179,179,179)"
     stroke-linejoin="round"
     d="M 3361,7967 L 3361,7817"
     id="path7915" /><path
     fill="none"
     stroke="rgb(179,179,179)"
     stroke-linejoin="round"
     d="M 3361,7967 L 3361,7817"
     id="path7917" /><path
     fill="none"
     stroke="rgb(179,179,179)"
     stroke-linejoin="round"
     d="M 4589,7967 L 4589,7817"
     id="path7919" /><path
     fill="none"
     stroke="rgb(179,179,179)"
     stroke-linejoin="round"
     d="M 4589,7967 L 4589,7817"
     id="path7921" /><path
     fill="none"
     stroke="rgb(179,179,179)"
     stroke-linejoin="round"
     d="M 5816,7967 L 5816,7817"
     id="path7923" /><path
     fill="none"
     stroke="rgb(179,179,179)"
     stroke-linejoin="round"
     d="M 5816,7967 L 5816,7817"
     id="path7925" /><path
     fill="none"
     stroke="rgb(179,179,179)"
     stroke-linejoin="round"
     d="M 7044,7967 L 7044,7817"
     id="path7927" /><path
     fill="none"
     stroke="rgb(179,179,179)"
     stroke-linejoin="round"
     d="M 7044,7967 L 7044,7817"
     id="path7929" /><path
     fill="none"
     stroke="rgb(179,179,179)"
     stroke-linejoin="round"
     d="M 8272,7967 L 8272,7817"
     id="path7931" /><path
     fill="none"
     stroke="rgb(179,179,179)"
     stroke-linejoin="round"
     d="M 8272,7967 L 8272,7817"
     id="path7933" /><path
     fill="none"
     stroke="rgb(179,179,179)"
     stroke-linejoin="round"
     d="M 9500,7967 L 9500,7817"
     id="path7935" /><path
     fill="none"
     stroke="rgb(179,179,179)"
     stroke-linejoin="round"
     d="M 9500,7967 L 9500,7817"
     id="path7937" /><path
     fill="none"
     stroke="rgb(179,179,179)"
     stroke-linejoin="round"
     d="M 10728,7967 L 10728,7817"
     id="path7939" /><path
     fill="none"
     stroke="rgb(179,179,179)"
     stroke-linejoin="round"
     d="M 10728,7967 L 10728,7817"
     id="path7941" /><path
     fill="none"
     stroke="rgb(179,179,179)"
     stroke-linejoin="round"
     d="M 2133,7817 L 10728,7817"
     id="path7943" /><path
     fill="none"
     stroke="rgb(179,179,179)"
     stroke-linejoin="round"
     d="M 1983,7817 L 2133,7817"
     id="path7945" /><path
     fill="none"
     stroke="rgb(179,179,179)"
     stroke-linejoin="round"
     d="M 1983,7817 L 2133,7817"
     id="path7947" /><path
     fill="none"
     stroke="rgb(179,179,179)"
     stroke-linejoin="round"
     d="M 1983,6991 L 2133,6991"
     id="path7949" /><path
     fill="none"
     stroke="rgb(179,179,179)"
     stroke-linejoin="round"
     d="M 1983,6991 L 2133,6991"
     id="path7951" /><path
     fill="none"
     stroke="rgb(179,179,179)"
     stroke-linejoin="round"
     d="M 1983,6166 L 2133,6166"
     id="path7953" /><path
     fill="none"
     stroke="rgb(179,179,179)"
     stroke-linejoin="round"
     d="M 1983,6166 L 2133,6166"
     id="path7955" /><path
     fill="none"
     stroke="rgb(179,179,179)"
     stroke-linejoin="round"
     d="M 1983,5341 L 2133,5341"
     id="path7957" /><path
     fill="none"
     stroke="rgb(179,179,179)"
     stroke-linejoin="round"
     d="M 1983,5341 L 2133,5341"
     id="path7959" /><path
     fill="none"
     stroke="rgb(179,179,179)"
     stroke-linejoin="round"
     d="M 1983,4517 L 2133,4517"
     id="path7961" /><path
     fill="none"
     stroke="rgb(179,179,179)"
     stroke-linejoin="round"
     d="M 1983,4517 L 2133,4517"
     id="path7963" /><path
     fill="none"
     stroke="rgb(179,179,179)"
     stroke-linejoin="round"
     d="M 1983,3692 L 2133,3692"
     id="path7965" /><path
     fill="none"
     stroke="rgb(179,179,179)"
     stroke-linejoin="round"
     d="M 1983,3692 L 2133,3692"
     id="path7967" /><path
     fill="none"
     stroke="rgb(179,179,179)"
     stroke-linejoin="round"
     d="M 1983,2867 L 2133,2867"
     id="path7969" /><path
     fill="none"
     stroke="rgb(179,179,179)"
     stroke-linejoin="round"
     d="M 1983,2867 L 2133,2867"
     id="path7971" /><path
     fill="none"
     stroke="rgb(179,179,179)"
     stroke-linejoin="round"
     d="M 1983,2042 L 2133,2042"
     id="path7973" /><path
     fill="none"
     stroke="rgb(179,179,179)"
     stroke-linejoin="round"
     d="M 1983,2042 L 2133,2042"
     id="path7975" /><path
     fill="none"
     stroke="rgb(179,179,179)"
     stroke-linejoin="round"
     d="M 1983,1217 L 2133,1217"
     id="path7977" /><path
     fill="none"
     stroke="rgb(179,179,179)"
     stroke-linejoin="round"
     d="M 1983,1217 L 2133,1217"
     id="path7979" /><path
     fill="none"
     stroke="rgb(179,179,179)"
     stroke-linejoin="round"
     d="M 1983,392 L 2133,392"
     id="path7981" /><path
     fill="none"
     stroke="rgb(179,179,179)"
     stroke-linejoin="round"
     d="M 1983,392 L 2133,392"
     id="path7983" /><path
     fill="none"
     stroke="rgb(179,179,179)"
     stroke-linejoin="round"
     d="M 2133,7817 L 2133,392"
     id="path7985" /><path
     fill="rgb(0,69,134)"
     stroke="none"
     d="M 4398,6526 L 4523,6651 4648,6526 4523,6401 4398,6526 Z"
     id="path7987" /><path
     fill="none"
     stroke="rgb(0,69,134)"
     stroke-linejoin="round"
     d="M 4398,6526 L 4523,6651 4648,6526 4523,6401 4398,6526 Z"
     id="path7989" /><path
     fill="rgb(0,69,134)"
     stroke="none"
     d="M 4417,6194 L 4542,6319 4667,6194 4542,6069 4417,6194 Z"
     id="path7991" /><path
     fill="none"
     stroke="rgb(0,69,134)"
     stroke-linejoin="round"
     d="M 4417,6194 L 4542,6319 4667,6194 4542,6069 4417,6194 Z"
     id="path7993" /><path
     fill="rgb(0,69,134)"
     stroke="none"
     d="M 4363,6207 L 4488,6332 4613,6207 4488,6082 4363,6207 Z"
     id="path7995" /><path
     fill="none"
     stroke="rgb(0,69,134)"
     stroke-linejoin="round"
     d="M 4363,6207 L 4488,6332 4613,6207 4488,6082 4363,6207 Z"
     id="path7997" /><path
     fill="rgb(0,69,134)"
     stroke="none"
     d="M 4693,6376 L 4818,6501 4943,6376 4818,6251 4693,6376 Z"
     id="path7999" /><path
     fill="none"
     stroke="rgb(0,69,134)"
     stroke-linejoin="round"
     d="M 4693,6376 L 4818,6501 4943,6376 4818,6251 4693,6376 Z"
     id="path8001" /><path
     fill="rgb(0,69,134)"
     stroke="none"
     d="M 5480,7303 L 5605,7428 5729,7303 5605,7178 5480,7303 Z"
     id="path8003" /><path
     fill="none"
     stroke="rgb(0,69,134)"
     stroke-linejoin="round"
     d="M 5480,7303 L 5605,7428 5729,7303 5605,7178 5480,7303 Z"
     id="path8005" /><path
     fill="rgb(0,69,134)"
     stroke="none"
     d="M 3713,5896 L 3838,6021 3963,5896 3838,5771 3713,5896 Z"
     id="path8007" /><path
     fill="none"
     stroke="rgb(0,69,134)"
     stroke-linejoin="round"
     d="M 3713,5896 L 3838,6021 3963,5896 3838,5771 3713,5896 Z"
     id="path8009" /><path
     fill="rgb(0,69,134)"
     stroke="none"
     d="M 4285,2517 L 4410,2642 4535,2517 4410,2392 4285,2517 Z"
     id="path8011" /><path
     fill="none"
     stroke="rgb(0,69,134)"
     stroke-linejoin="round"
     d="M 4285,2517 L 4410,2642 4535,2517 4410,2392 4285,2517 Z"
     id="path8013" /><path
     fill="rgb(0,69,134)"
     stroke="none"
     d="M 4013,7267 L 4138,7392 4263,7267 4138,7142 4013,7267 Z"
     id="path8015" /><path
     fill="none"
     stroke="rgb(0,69,134)"
     stroke-linejoin="round"
     d="M 4013,7267 L 4138,7392 4263,7267 4138,7142 4013,7267 Z"
     id="path8017" /><path
     fill="rgb(0,69,134)"
     stroke="none"
     d="M 3635,7655 L 3760,7780 3885,7655 3760,7530 3635,7655 Z"
     id="path8019" /><path
     fill="none"
     stroke="rgb(0,69,134)"
     stroke-linejoin="round"
     d="M 3635,7655 L 3760,7780 3885,7655 3760,7530 3635,7655 Z"
     id="path8021" /><path
     fill="rgb(0,69,134)"
     stroke="none"
     d="M 3305,6967 L 3430,7092 3555,6967 3430,6842 3305,6967 Z"
     id="path8023" /><path
     fill="none"
     stroke="rgb(0,69,134)"
     stroke-linejoin="round"
     d="M 3305,6967 L 3430,7092 3555,6967 3430,6842 3305,6967 Z"
     id="path8025" /><path
     fill="rgb(0,69,134)"
     stroke="none"
     d="M 4460,4835 L 4585,4959 4710,4835 4585,4710 4460,4835 Z"
     id="path8027" /><path
     fill="none"
     stroke="rgb(0,69,134)"
     stroke-linejoin="round"
     d="M 4460,4835 L 4585,4959 4710,4835 4585,4710 4460,4835 Z"
     id="path8029" /><path
     fill="rgb(0,69,134)"
     stroke="none"
     d="M 6044,6907 L 6169,7032 6294,6907 6169,6782 6044,6907 Z"
     id="path8031" /><path
     fill="none"
     stroke="rgb(0,69,134)"
     stroke-linejoin="round"
     d="M 6044,6907 L 6169,7032 6294,6907 6169,6782 6044,6907 Z"
     id="path8033" /><path
     fill="rgb(0,69,134)"
     stroke="none"
     d="M 3794,6686 L 3919,6811 4044,6686 3919,6561 3794,6686 Z"
     id="path8035" /><path
     fill="none"
     stroke="rgb(0,69,134)"
     stroke-linejoin="round"
     d="M 3794,6686 L 3919,6811 4044,6686 3919,6561 3794,6686 Z"
     id="path8037" /><path
     fill="rgb(0,69,134)"
     stroke="none"
     d="M 4357,7792 L 4482,7917 4607,7792 4482,7667 4357,7792 Z"
     id="path8039" /><path
     fill="none"
     stroke="rgb(0,69,134)"
     stroke-linejoin="round"
     d="M 4357,7792 L 4482,7917 4607,7792 4482,7667 4357,7792 Z"
     id="path8041" /><path
     fill="rgb(0,69,134)"
     stroke="none"
     d="M 4051,5827 L 4176,5952 4301,5827 4176,5702 4051,5827 Z"
     id="path8043" /><path
     fill="none"
     stroke="rgb(0,69,134)"
     stroke-linejoin="round"
     d="M 4051,5827 L 4176,5952 4301,5827 4176,5702 4051,5827 Z"
     id="path8045" /><path
     fill="rgb(0,69,134)"
     stroke="none"
     d="M 3502,6929 L 3627,7054 3752,6929 3627,6804 3502,6929 Z"
     id="path8047" /><path
     fill="none"
     stroke="rgb(0,69,134)"
     stroke-linejoin="round"
     d="M 3502,6929 L 3627,7054 3752,6929 3627,6804 3502,6929 Z"
     id="path8049" /><path
     fill="rgb(0,69,134)"
     stroke="none"
     d="M 3946,3101 L 4071,3226 4196,3101 4071,2976 3946,3101 Z"
     id="path8051" /><path
     fill="none"
     stroke="rgb(0,69,134)"
     stroke-linejoin="round"
     d="M 3946,3101 L 4071,3226 4196,3101 4071,2976 3946,3101 Z"
     id="path8053" /><path
     fill="rgb(0,69,134)"
     stroke="none"
     d="M 4301,7534 L 4426,7659 4551,7534 4426,7409 4301,7534 Z"
     id="path8055" /><path
     fill="none"
     stroke="rgb(0,69,134)"
     stroke-linejoin="round"
     d="M 4301,7534 L 4426,7659 4551,7534 4426,7409 4301,7534 Z"
     id="path8057" /><path
     fill="rgb(0,69,134)"
     stroke="none"
     d="M 4004,6302 L 4129,6427 4254,6302 4129,6177 4004,6302 Z"
     id="path8059" /><path
     fill="none"
     stroke="rgb(0,69,134)"
     stroke-linejoin="round"
     d="M 4004,6302 L 4129,6427 4254,6302 4129,6177 4004,6302 Z"
     id="path8061" /><path
     fill="rgb(0,69,134)"
     stroke="none"
     d="M 3905,7411 L 4030,7536 4155,7411 4030,7286 3905,7411 Z"
     id="path8063" /><path
     fill="none"
     stroke="rgb(0,69,134)"
     stroke-linejoin="round"
     d="M 3905,7411 L 4030,7536 4155,7411 4030,7286 3905,7411 Z"
     id="path8065" /><path
     fill="rgb(0,69,134)"
     stroke="none"
     d="M 3189,3232 L 3314,3357 3439,3232 3314,3107 3189,3232 Z"
     id="path8067" /><path
     fill="none"
     stroke="rgb(0,69,134)"
     stroke-linejoin="round"
     d="M 3189,3232 L 3314,3357 3439,3232 3314,3107 3189,3232 Z"
     id="path8069" /><path
     fill="rgb(0,69,134)"
     stroke="none"
     d="M 5153,6751 L 5278,6876 5403,6751 5278,6626 5153,6751 Z"
     id="path8071" /><path
     fill="none"
     stroke="rgb(0,69,134)"
     stroke-linejoin="round"
     d="M 5153,6751 L 5278,6876 5403,6751 5278,6626 5153,6751 Z"
     id="path8073" /><path
     fill="rgb(0,69,134)"
     stroke="none"
     d="M 3592,4377 L 3717,4502 3842,4377 3717,4252 3592,4377 Z"
     id="path8075" /><path
     fill="none"
     stroke="rgb(0,69,134)"
     stroke-linejoin="round"
     d="M 3592,4377 L 3717,4502 3842,4377 3717,4252 3592,4377 Z"
     id="path8077" /><path
     fill="rgb(0,69,134)"
     stroke="none"
     d="M 9656,7362 L 9781,7487 9906,7362 9781,7237 9656,7362 Z"
     id="path8079" /><path
     fill="none"
     stroke="rgb(0,69,134)"
     stroke-linejoin="round"
     d="M 9656,7362 L 9781,7487 9906,7362 9781,7237 9656,7362 Z"
     id="path8081" /><path
     fill="rgb(0,69,134)"
     stroke="none"
     d="M 7326,7388 L 7451,7513 7576,7388 7451,7263 7326,7388 Z"
     id="path8083" /><path
     fill="none"
     stroke="rgb(0,69,134)"
     stroke-linejoin="round"
     d="M 7326,7388 L 7451,7513 7576,7388 7451,7263 7326,7388 Z"
     id="path8085" /><path
     fill="rgb(0,69,134)"
     stroke="none"
     d="M 4358,7258 L 4483,7383 4608,7258 4483,7133 4358,7258 Z"
     id="path8087" /><path
     fill="none"
     stroke="rgb(0,69,134)"
     stroke-linejoin="round"
     d="M 4358,7258 L 4483,7383 4608,7258 4483,7133 4358,7258 Z"
     id="path8089" /><path
     fill="rgb(0,69,134)"
     stroke="none"
     d="M 3683,1762 L 3808,1887 3933,1762 3808,1637 3683,1762 Z"
     id="path8091" /><path
     fill="none"
     stroke="rgb(0,69,134)"
     stroke-linejoin="round"
     d="M 3683,1762 L 3808,1887 3933,1762 3808,1637 3683,1762 Z"
     id="path8093" /><path
     fill="rgb(0,69,134)"
     stroke="none"
     d="M 4512,6599 L 4637,6724 4762,6599 4637,6474 4512,6599 Z"
     id="path8095" /><path
     fill="none"
     stroke="rgb(0,69,134)"
     stroke-linejoin="round"
     d="M 4512,6599 L 4637,6724 4762,6599 4637,6474 4512,6599 Z"
     id="path8097" /><path
     fill="rgb(0,69,134)"
     stroke="none"
     d="M 5746,6647 L 5871,6772 5996,6647 5871,6522 5746,6647 Z"
     id="path8099" /><path
     fill="none"
     stroke="rgb(0,69,134)"
     stroke-linejoin="round"
     d="M 5746,6647 L 5871,6772 5996,6647 5871,6522 5746,6647 Z"
     id="path8101" /><path
     fill="rgb(0,69,134)"
     stroke="none"
     d="M 3345,760 L 3470,885 3595,760 3470,635 3345,760 Z"
     id="path8103" /><path
     fill="none"
     stroke="rgb(0,69,134)"
     stroke-linejoin="round"
     d="M 3345,760 L 3470,885 3595,760 3470,635 3345,760 Z"
     id="path8105" /><path
     fill="rgb(0,69,134)"
     stroke="none"
     d="M 3939,5638 L 4064,5763 4189,5638 4064,5513 3939,5638 Z"
     id="path8107" /><path
     fill="none"
     stroke="rgb(0,69,134)"
     stroke-linejoin="round"
     d="M 3939,5638 L 4064,5763 4189,5638 4064,5513 3939,5638 Z"
     id="path8109" /><path
     fill="rgb(0,69,134)"
     stroke="none"
     d="M 4042,7157 L 4167,7282 4292,7157 4167,7032 4042,7157 Z"
     id="path8111" /><path
     fill="none"
     stroke="rgb(0,69,134)"
     stroke-linejoin="round"
     d="M 4042,7157 L 4167,7282 4292,7157 4167,7032 4042,7157 Z"
     id="path8113" /><path
     fill="rgb(0,69,134)"
     stroke="none"
     d="M 3688,2987 L 3813,3112 3938,2987 3813,2862 3688,2987 Z"
     id="path8115" /><path
     fill="none"
     stroke="rgb(0,69,134)"
     stroke-linejoin="round"
     d="M 3688,2987 L 3813,3112 3938,2987 3813,2862 3688,2987 Z"
     id="path8117" /><path
     fill="rgb(0,69,134)"
     stroke="none"
     d="M 6083,7298 L 6208,7423 6333,7298 6208,7173 6083,7298 Z"
     id="path8119" /><path
     fill="none"
     stroke="rgb(0,69,134)"
     stroke-linejoin="round"
     d="M 6083,7298 L 6208,7423 6333,7298 6208,7173 6083,7298 Z"
     id="path8121" /><path
     fill="rgb(0,69,134)"
     stroke="none"
     d="M 3495,3885 L 3620,4010 3745,3885 3620,3760 3495,3885 Z"
     id="path8123" /><path
     fill="none"
     stroke="rgb(0,69,134)"
     stroke-linejoin="round"
     d="M 3495,3885 L 3620,4010 3745,3885 3620,3760 3495,3885 Z"
     id="path8125" /><path
     fill="rgb(0,69,134)"
     stroke="none"
     d="M 4831,7280 L 4956,7405 5081,7280 4956,7155 4831,7280 Z"
     id="path8127" /><path
     fill="none"
     stroke="rgb(0,69,134)"
     stroke-linejoin="round"
     d="M 4831,7280 L 4956,7405 5081,7280 4956,7155 4831,7280 Z"
     id="path8129" /><path
     fill="rgb(0,69,134)"
     stroke="none"
     d="M 6650,5865 L 6775,5990 6900,5865 6775,5740 6650,5865 Z"
     id="path8131" /><path
     fill="none"
     stroke="rgb(0,69,134)"
     stroke-linejoin="round"
     d="M 6650,5865 L 6775,5990 6900,5865 6775,5740 6650,5865 Z"
     id="path8133" /><path
     fill="rgb(0,69,134)"
     stroke="none"
     d="M 3066,7763 L 3191,7888 3316,7763 3191,7638 3066,7763 Z"
     id="path8135" /><path
     fill="none"
     stroke="rgb(0,69,134)"
     stroke-linejoin="round"
     d="M 3066,7763 L 3191,7888 3316,7763 3191,7638 3066,7763 Z"
     id="path8137" /><text
     class="TextShape"
     id="text8139"><tspan
       class="TextParagraph"
       font-family="cmr10"
       font-size="388px"
       font-weight="400"
       id="tspan8141"><tspan
         class="TextPosition"
         x="2027"
         y="8358"
         id="tspan8143"><tspan
           fill="rgb(0,0,0)"
           stroke="none"
           id="tspan8145">0</tspan></tspan></tspan></text>
<text
     class="TextShape"
     id="text8147"><tspan
       class="TextParagraph"
       font-family="cmr10"
       font-size="388px"
       font-weight="400"
       id="tspan8149"><tspan
         class="TextPosition"
         x="3096"
         y="8358"
         id="tspan8151"><tspan
           fill="rgb(0,0,0)"
           stroke="none"
           id="tspan8153">0.5</tspan></tspan></tspan></text>
<text
     class="TextShape"
     id="text8155"><tspan
       class="TextParagraph"
       font-family="cmr10"
       font-size="388px"
       font-weight="400"
       id="tspan8157"><tspan
         class="TextPosition"
         x="4483"
         y="8358"
         id="tspan8159"><tspan
           fill="rgb(0,0,0)"
           stroke="none"
           id="tspan8161">1</tspan></tspan></tspan></text>
<text
     class="TextShape"
     id="text8163"><tspan
       class="TextParagraph"
       font-family="cmr10"
       font-size="388px"
       font-weight="400"
       id="tspan8165"><tspan
         class="TextPosition"
         x="5552"
         y="8358"
         id="tspan8167"><tspan
           fill="rgb(0,0,0)"
           stroke="none"
           id="tspan8169">1.5</tspan></tspan></tspan></text>
<text
     class="TextShape"
     id="text8171"><tspan
       class="TextParagraph"
       font-family="cmr10"
       font-size="388px"
       font-weight="400"
       id="tspan8173"><tspan
         class="TextPosition"
         x="6939"
         y="8358"
         id="tspan8175"><tspan
           fill="rgb(0,0,0)"
           stroke="none"
           id="tspan8177">2</tspan></tspan></tspan></text>
<text
     class="TextShape"
     id="text8179"><tspan
       class="TextParagraph"
       font-family="cmr10"
       font-size="388px"
       font-weight="400"
       id="tspan8181"><tspan
         class="TextPosition"
         x="8008"
         y="8358"
         id="tspan8183"><tspan
           fill="rgb(0,0,0)"
           stroke="none"
           id="tspan8185">2.5</tspan></tspan></tspan></text>
<text
     class="TextShape"
     id="text8187"><tspan
       class="TextParagraph"
       font-family="cmr10"
       font-size="388px"
       font-weight="400"
       id="tspan8189"><tspan
         class="TextPosition"
         x="9395"
         y="8358"
         id="tspan8191"><tspan
           fill="rgb(0,0,0)"
           stroke="none"
           id="tspan8193">3</tspan></tspan></tspan></text>
<text
     class="TextShape"
     id="text8195"><tspan
       class="TextParagraph"
       font-family="cmr10"
       font-size="388px"
       font-weight="400"
       id="tspan8197"><tspan
         class="TextPosition"
         x="10464"
         y="8358"
         id="tspan8199"><tspan
           fill="rgb(0,0,0)"
           stroke="none"
           id="tspan8201">3.5</tspan></tspan></tspan></text>
<text
     class="TextShape"
     id="text8203"><tspan
       class="TextParagraph"
       font-family="cmr10"
       font-size="388px"
       font-weight="400"
       id="tspan8205"><tspan
         class="TextPosition"
         x="1671"
         y="7911"
         id="tspan8207"><tspan
           fill="rgb(0,0,0)"
           stroke="none"
           id="tspan8209">0</tspan></tspan></tspan></text>
<text
     class="TextShape"
     id="text8211"><tspan
       class="TextParagraph"
       font-family="cmr10"
       font-size="388px"
       font-weight="400"
       id="tspan8213"><tspan
         class="TextPosition"
         x="1354"
         y="7085"
         id="tspan8215"><tspan
           fill="rgb(0,0,0)"
           stroke="none"
           id="tspan8217">0.5</tspan></tspan></tspan></text>
<text
     class="TextShape"
     id="text8219"><tspan
       class="TextParagraph"
       font-family="cmr10"
       font-size="388px"
       font-weight="400"
       id="tspan8221"><tspan
         class="TextPosition"
         x="1671"
         y="6260"
         id="tspan8223"><tspan
           fill="rgb(0,0,0)"
           stroke="none"
           id="tspan8225">1</tspan></tspan></tspan></text>
<text
     class="TextShape"
     id="text8227"><tspan
       class="TextParagraph"
       font-family="cmr10"
       font-size="388px"
       font-weight="400"
       id="tspan8229"><tspan
         class="TextPosition"
         x="1354"
         y="5435"
         id="tspan8231"><tspan
           fill="rgb(0,0,0)"
           stroke="none"
           id="tspan8233">1.5</tspan></tspan></tspan></text>
<text
     class="TextShape"
     id="text8235"><tspan
       class="TextParagraph"
       font-family="cmr10"
       font-size="388px"
       font-weight="400"
       id="tspan8237"><tspan
         class="TextPosition"
         x="1671"
         y="4610"
         id="tspan8239"><tspan
           fill="rgb(0,0,0)"
           stroke="none"
           id="tspan8241">2</tspan></tspan></tspan></text>
<text
     class="TextShape"
     id="text8243"><tspan
       class="TextParagraph"
       font-family="cmr10"
       font-size="388px"
       font-weight="400"
       id="tspan8245"><tspan
         class="TextPosition"
         x="1354"
         y="3785"
         id="tspan8247"><tspan
           fill="rgb(0,0,0)"
           stroke="none"
           id="tspan8249">2.5</tspan></tspan></tspan></text>
<text
     class="TextShape"
     id="text8251"><tspan
       class="TextParagraph"
       font-family="cmr10"
       font-size="388px"
       font-weight="400"
       id="tspan8253"><tspan
         class="TextPosition"
         x="1671"
         y="2960"
         id="tspan8255"><tspan
           fill="rgb(0,0,0)"
           stroke="none"
           id="tspan8257">3</tspan></tspan></tspan></text>
<text
     class="TextShape"
     id="text8259"><tspan
       class="TextParagraph"
       font-family="cmr10"
       font-size="388px"
       font-weight="400"
       id="tspan8261"><tspan
         class="TextPosition"
         x="1354"
         y="2135"
         id="tspan8263"><tspan
           fill="rgb(0,0,0)"
           stroke="none"
           id="tspan8265">3.5</tspan></tspan></tspan></text>
<text
     class="TextShape"
     id="text8267"><tspan
       class="TextParagraph"
       font-family="cmr10"
       font-size="388px"
       font-weight="400"
       id="tspan8269"><tspan
         class="TextPosition"
         x="1671"
         y="1310"
         id="tspan8271"><tspan
           fill="rgb(0,0,0)"
           stroke="none"
           id="tspan8273">4</tspan></tspan></tspan></text>
<text
     class="TextShape"
     id="text8275"><tspan
       class="TextParagraph"
       font-family="cmr10"
       font-size="388px"
       font-weight="400"
       id="tspan8277"><tspan
         class="TextPosition"
         x="1354"
         y="485"
         id="tspan8279"><tspan
           fill="rgb(0,0,0)"
           stroke="none"
           id="tspan8281">4.5</tspan></tspan></tspan></text>
<text
     class="TextShape"
     id="text8283"><tspan
       class="TextParagraph"
       font-family="cmr10"
       font-size="353px"
       font-weight="400"
       id="tspan8285"><tspan
         class="TextPosition"
         x="4285"
         y="6222"
         id="tspan8287"><tspan
           fill="rgb(0,0,0)"
           stroke="none"
           id="tspan8289">AL</tspan></tspan></tspan></text>
<text
     class="TextShape"
     id="text8291"><tspan
       class="TextParagraph"
       font-family="cmr10"
       font-size="353px"
       font-weight="400"
       id="tspan8293"><tspan
         class="TextPosition"
         x="4277"
         y="5890"
         id="tspan8295"><tspan
           fill="rgb(0,0,0)"
           stroke="none"
           id="tspan8297">AR</tspan></tspan></tspan></text>
<text
     class="TextShape"
     id="text8299"><tspan
       class="TextParagraph"
       font-family="cmr10"
       font-size="353px"
       font-weight="400"
       id="tspan8301"><tspan
         class="TextPosition"
         x="4250"
         y="5903"
         id="tspan8303"><tspan
           fill="rgb(0,0,0)"
           stroke="none"
           id="tspan8305">AZ</tspan></tspan></tspan></text>
<text
     class="TextShape"
     id="text8307"><tspan
       class="TextParagraph"
       font-family="cmr10"
       font-size="353px"
       font-weight="400"
       id="tspan8309"><tspan
         class="TextPosition"
         x="4566"
         y="6072"
         id="tspan8311"><tspan
           fill="rgb(0,0,0)"
           stroke="none"
           id="tspan8313">CA</tspan></tspan></tspan></text>
<text
     class="TextShape"
     id="text8315"><tspan
       class="TextParagraph"
       font-family="cmr10"
       font-size="353px"
       font-weight="400"
       id="tspan8317"><tspan
         class="TextPosition"
         x="5353"
         y="6999"
         id="tspan8319"><tspan
           fill="rgb(0,0,0)"
           stroke="none"
           id="tspan8321">CO</tspan></tspan></tspan></text>
<text
     class="TextShape"
     id="text8323"><tspan
       class="TextParagraph"
       font-family="cmr10"
       font-size="353px"
       font-weight="400"
       id="tspan8325"><tspan
         class="TextPosition"
         x="3600"
         y="5592"
         id="tspan8327"><tspan
           fill="rgb(0,0,0)"
           stroke="none"
           id="tspan8329">CT</tspan></tspan></tspan></text>
<text
     class="TextShape"
     id="text8331"><tspan
       class="TextParagraph"
       font-family="cmr10"
       font-size="353px"
       font-weight="400"
       id="tspan8333"><tspan
         class="TextPosition"
         x="4198"
         y="2213"
         id="tspan8335"><tspan
           fill="rgb(0,0,0)"
           stroke="none"
           id="tspan8337">FL</tspan></tspan></tspan></text>
<text
     class="TextShape"
     id="text8339"><tspan
       class="TextParagraph"
       font-family="cmr10"
       font-size="353px"
       font-weight="400"
       id="tspan8341"><tspan
         class="TextPosition"
         x="3873"
         y="6963"
         id="tspan8343"><tspan
           fill="rgb(0,0,0)"
           stroke="none"
           id="tspan8345">GA</tspan></tspan></tspan></text>
<text
     class="TextShape"
     id="text8347"><tspan
       class="TextParagraph"
       font-family="cmr10"
       font-size="353px"
       font-weight="400"
       id="tspan8349"><tspan
         class="TextPosition"
         x="3561"
         y="7351"
         id="tspan8351"><tspan
           fill="rgb(0,0,0)"
           stroke="none"
           id="tspan8353">IA</tspan></tspan></tspan></text>
<text
     class="TextShape"
     id="text8355"><tspan
       class="TextParagraph"
       font-family="cmr10"
       font-size="353px"
       font-weight="400"
       id="tspan8357"><tspan
         class="TextPosition"
         x="3258"
         y="6663"
         id="tspan8359"><tspan
           fill="rgb(0,0,0)"
           stroke="none"
           id="tspan8361">IL</tspan></tspan></tspan></text>
<text
     class="TextShape"
     id="text8363"><tspan
       class="TextParagraph"
       font-family="cmr10"
       font-size="353px"
       font-weight="400"
       id="tspan8365"><tspan
         class="TextPosition"
         x="4386"
         y="4531"
         id="tspan8367"><tspan
           fill="rgb(0,0,0)"
           stroke="none"
           id="tspan8369">IN</tspan></tspan></tspan></text>
<text
     class="TextShape"
     id="text8371"><tspan
       class="TextParagraph"
       font-family="cmr10"
       font-size="353px"
       font-weight="400"
       id="tspan8373"><tspan
         class="TextPosition"
         x="5945"
         y="6603"
         id="tspan8375"><tspan
           fill="rgb(0,0,0)"
           stroke="none"
           id="tspan8377">KS</tspan></tspan></tspan></text>
<text
     class="TextShape"
     id="text8379"><tspan
       class="TextParagraph"
       font-family="cmr10"
       font-size="353px"
       font-weight="400"
       id="tspan8381"><tspan
         class="TextPosition"
         x="3654"
         y="6382"
         id="tspan8383"><tspan
           fill="rgb(0,0,0)"
           stroke="none"
           id="tspan8385">KY</tspan></tspan></tspan></text>
<text
     class="TextShape"
     id="text8387"><tspan
       class="TextParagraph"
       font-family="cmr10"
       font-size="353px"
       font-weight="400"
       id="tspan8389"><tspan
         class="TextPosition"
         x="4244"
         y="7488"
         id="tspan8391"><tspan
           fill="rgb(0,0,0)"
           stroke="none"
           id="tspan8393">LA</tspan></tspan></tspan></text>
<text
     class="TextShape"
     id="text8395"><tspan
       class="TextParagraph"
       font-family="cmr10"
       font-size="353px"
       font-weight="400"
       id="tspan8397"><tspan
         class="TextPosition"
         x="3885"
         y="5523"
         id="tspan8399"><tspan
           fill="rgb(0,0,0)"
           stroke="none"
           id="tspan8401">MA</tspan></tspan></tspan></text>
<text
     class="TextShape"
     id="text8403"><tspan
       class="TextParagraph"
       font-family="cmr10"
       font-size="353px"
       font-weight="400"
       id="tspan8405"><tspan
         class="TextPosition"
         x="3336"
         y="6625"
         id="tspan8407"><tspan
           fill="rgb(0,0,0)"
           stroke="none"
           id="tspan8409">MD</tspan></tspan></tspan></text>
<text
     class="TextShape"
     id="text8411"><tspan
       class="TextParagraph"
       font-family="cmr10"
       font-size="353px"
       font-weight="400"
       id="tspan8413"><tspan
         class="TextPosition"
         x="3846"
         y="2797"
         id="tspan8415"><tspan
           fill="rgb(0,0,0)"
           stroke="none"
           id="tspan8417">MI</tspan></tspan></tspan></text>
<text
     class="TextShape"
     id="text8419"><tspan
       class="TextParagraph"
       font-family="cmr10"
       font-size="353px"
       font-weight="400"
       id="tspan8421"><tspan
         class="TextPosition"
         x="4135"
         y="7230"
         id="tspan8423"><tspan
           fill="rgb(0,0,0)"
           stroke="none"
           id="tspan8425">MN</tspan></tspan></tspan></text>
<text
     class="TextShape"
     id="text8427"><tspan
       class="TextParagraph"
       font-family="cmr10"
       font-size="353px"
       font-weight="400"
       id="tspan8429"><tspan
         class="TextPosition"
         x="3838"
         y="5998"
         id="tspan8431"><tspan
           fill="rgb(0,0,0)"
           stroke="none"
           id="tspan8433">MO</tspan></tspan></tspan></text>
<text
     class="TextShape"
     id="text8435"><tspan
       class="TextParagraph"
       font-family="cmr10"
       font-size="353px"
       font-weight="400"
       id="tspan8437"><tspan
         class="TextPosition"
         x="3778"
         y="7107"
         id="tspan8439"><tspan
           fill="rgb(0,0,0)"
           stroke="none"
           id="tspan8441">MS</tspan></tspan></tspan></text>
<text
     class="TextShape"
     id="text8443"><tspan
       class="TextParagraph"
       font-family="cmr10"
       font-size="353px"
       font-weight="400"
       id="tspan8445"><tspan
         class="TextPosition"
         x="3062"
         y="2928"
         id="tspan8447"><tspan
           fill="rgb(0,0,0)"
           stroke="none"
           id="tspan8449">NC</tspan></tspan></tspan></text>
<text
     class="TextShape"
     id="text8451"><tspan
       class="TextParagraph"
       font-family="cmr10"
       font-size="353px"
       font-weight="400"
       id="tspan8453"><tspan
         class="TextPosition"
         x="5026"
         y="6447"
         id="tspan8455"><tspan
           fill="rgb(0,0,0)"
           stroke="none"
           id="tspan8457">NE</tspan></tspan></tspan></text>
<text
     class="TextShape"
     id="text8459"><tspan
       class="TextParagraph"
       font-family="cmr10"
       font-size="353px"
       font-weight="400"
       id="tspan8461"><tspan
         class="TextPosition"
         x="3492"
         y="4073"
         id="tspan8463"><tspan
           fill="rgb(0,0,0)"
           stroke="none"
           id="tspan8465">NJ</tspan></tspan></tspan></text>
<text
     class="TextShape"
     id="text8467"><tspan
       class="TextParagraph"
       font-family="cmr10"
       font-size="353px"
       font-weight="400"
       id="tspan8469"><tspan
         class="TextPosition"
         x="9491"
         y="7058"
         id="tspan8471"><tspan
           fill="rgb(0,0,0)"
           stroke="none"
           id="tspan8473">NM</tspan></tspan></tspan></text>
<text
     class="TextShape"
     id="text8475"><tspan
       class="TextParagraph"
       font-family="cmr10"
       font-size="353px"
       font-weight="400"
       id="tspan8477"><tspan
         class="TextPosition"
         x="7187"
         y="7084"
         id="tspan8479"><tspan
           fill="rgb(0,0,0)"
           stroke="none"
           id="tspan8481">NV</tspan></tspan></tspan></text>
<text
     class="TextShape"
     id="text8483"><tspan
       class="TextParagraph"
       font-family="cmr10"
       font-size="353px"
       font-weight="400"
       id="tspan8485"><tspan
         class="TextPosition"
         x="4218"
         y="6954"
         id="tspan8487"><tspan
           fill="rgb(0,0,0)"
           stroke="none"
           id="tspan8489">NY</tspan></tspan></tspan></text>
<text
     class="TextShape"
     id="text8491"><tspan
       class="TextParagraph"
       font-family="cmr10"
       font-size="353px"
       font-weight="400"
       id="tspan8493"><tspan
         class="TextPosition"
         x="3543"
         y="1458"
         id="tspan8495"><tspan
           fill="rgb(0,0,0)"
           stroke="none"
           id="tspan8497">OH</tspan></tspan></tspan></text>
<text
     class="TextShape"
     id="text8499"><tspan
       class="TextParagraph"
       font-family="cmr10"
       font-size="353px"
       font-weight="400"
       id="tspan8501"><tspan
         class="TextPosition"
         x="4372"
         y="6295"
         id="tspan8503"><tspan
           fill="rgb(0,0,0)"
           stroke="none"
           id="tspan8505">OK</tspan></tspan></tspan></text>
<text
     class="TextShape"
     id="text8507"><tspan
       class="TextParagraph"
       font-family="cmr10"
       font-size="353px"
       font-weight="400"
       id="tspan8509"><tspan
         class="TextPosition"
         x="5607"
         y="6343"
         id="tspan8511"><tspan
           fill="rgb(0,0,0)"
           stroke="none"
           id="tspan8513">OR</tspan></tspan></tspan></text>
<text
     class="TextShape"
     id="text8515"><tspan
       class="TextParagraph"
       font-family="cmr10"
       font-size="353px"
       font-weight="400"
       id="tspan8517"><tspan
         class="TextPosition"
         x="3218"
         y="456"
         id="tspan8519"><tspan
           fill="rgb(0,0,0)"
           stroke="none"
           id="tspan8521">PA</tspan></tspan></tspan></text>
<text
     class="TextShape"
     id="text8523"><tspan
       class="TextParagraph"
       font-family="cmr10"
       font-size="353px"
       font-weight="400"
       id="tspan8525"><tspan
         class="TextPosition"
         x="3852"
         y="5334"
         id="tspan8527"><tspan
           fill="rgb(0,0,0)"
           stroke="none"
           id="tspan8529">SC</tspan></tspan></tspan></text>
<text
     class="TextShape"
     id="text8531"><tspan
       class="TextParagraph"
       font-family="cmr10"
       font-size="353px"
       font-weight="400"
       id="tspan8533"><tspan
         class="TextPosition"
         x="3915"
         y="6853"
         id="tspan8535"><tspan
           fill="rgb(0,0,0)"
           stroke="none"
           id="tspan8537">TN</tspan></tspan></tspan></text>
<text
     class="TextShape"
     id="text8539"><tspan
       class="TextParagraph"
       font-family="cmr10"
       font-size="353px"
       font-weight="400"
       id="tspan8541"><tspan
         class="TextPosition"
         x="3561"
         y="2683"
         id="tspan8543"><tspan
           fill="rgb(0,0,0)"
           stroke="none"
           id="tspan8545">TX</tspan></tspan></tspan></text>
<text
     class="TextShape"
     id="text8547"><tspan
       class="TextParagraph"
       font-family="cmr10"
       font-size="353px"
       font-weight="400"
       id="tspan8549"><tspan
         class="TextPosition"
         x="5957"
         y="6994"
         id="tspan8551"><tspan
           fill="rgb(0,0,0)"
           stroke="none"
           id="tspan8553">UT</tspan></tspan></tspan></text>
<text
     class="TextShape"
     id="text8555"><tspan
       class="TextParagraph"
       font-family="cmr10"
       font-size="353px"
       font-weight="400"
       id="tspan8557"><tspan
         class="TextPosition"
         x="3355"
         y="3581"
         id="tspan8559"><tspan
           fill="rgb(0,0,0)"
           stroke="none"
           id="tspan8561">VA</tspan></tspan></tspan></text>
<text
     class="TextShape"
     id="text8563"><tspan
       class="TextParagraph"
       font-family="cmr10"
       font-size="353px"
       font-weight="400"
       id="tspan8565"><tspan
         class="TextPosition"
         x="4651"
         y="6976"
         id="tspan8567"><tspan
           fill="rgb(0,0,0)"
           stroke="none"
           id="tspan8569">WA</tspan></tspan></tspan></text>
<text
     class="TextShape"
     id="text8571"><tspan
       class="TextParagraph"
       font-family="cmr10"
       font-size="353px"
       font-weight="400"
       id="tspan8573"><tspan
         class="TextPosition"
         x="6538"
         y="5561"
         id="tspan8575"><tspan
           fill="rgb(0,0,0)"
           stroke="none"
           id="tspan8577">WI</tspan></tspan></tspan></text>
<text
     class="TextShape"
     id="text8579"><tspan
       class="TextParagraph"
       font-family="cmr10"
       font-size="353px"
       font-weight="400"
       id="tspan8581"><tspan
         class="TextPosition"
         x="2886"
         y="7459"
         id="tspan8583"><tspan
           fill="rgb(0,0,0)"
           stroke="none"
           id="tspan8585">WV</tspan></tspan></tspan></text>
<text
     class="TextShape"
     id="text8587"><tspan
       class="TextParagraph"
       font-family="cmr10"
       font-size="423px"
       font-weight="400"
       id="tspan8589"><tspan
         class="TextPosition"
         x="4097"
         y="9106"
         id="tspan8591"><tspan
           fill="rgb(0,0,0)"
           stroke="none"
           id="tspan8593">Moment of Population</tspan></tspan></tspan></text>
<text
     class="TextShape"
     id="text8595"
     inkscape:transform-center-x="-7.4940937"
     inkscape:transform-center-y="-124.32951"
     x="-8386.7627"
     y="-6568.7378"
     transform="matrix(0,-1,1,0,0,0)"><tspan
       class="TextParagraph"
       font-size="423px"
       font-weight="400"
       id="tspan8597"
       style="font-size:423px;font-weight:400;font-family:cmr10"><tspan
         class="TextPosition"
         x="-7490.7622"
         y="1226.2622"
         transform="matrix(0,-1,1,0,-6899,8691)"
         id="tspan8599"><tspan
           id="tspan8601"
           style="fill:#000000;stroke:none">Efficiency gap by wasted votes (seats)</tspan></tspan></tspan></text>
</svg>